<svg width="686" height="146" viewBox="0 0 686 146" fill="none" xmlns="http://www.w3.org/2000/svg">
<path d="M109.17 145.74H36.5699C26.875 145.727 17.581 141.87 10.7257 135.014C3.87037 128.159 0.0132282 118.865 0 109.17V36.57C0.0132282 26.8751 3.87037 17.581 10.7257 10.7257C17.581 3.87037 26.875 0.0132282 36.5699 0H109.17C118.866 0.0105877 128.161 3.8669 135.017 10.7228C141.873 17.5787 145.729 26.8743 145.74 36.57V109.17C145.729 118.866 141.873 128.161 135.017 135.017C128.161 141.873 118.866 145.729 109.17 145.74ZM36.5699 8C28.996 8.01058 21.7353 11.024 16.3796 16.3796C11.024 21.7353 8.01058 28.996 8 36.57V109.17C8.01058 116.744 11.024 124.005 16.3796 129.36C21.7353 134.716 28.996 137.729 36.5699 137.74H109.17C116.744 137.729 124.005 134.716 129.36 129.36C134.716 124.005 137.729 116.744 137.74 109.17V36.57C137.729 28.996 134.716 21.7353 129.36 16.3796C124.005 11.024 116.744 8.01058 109.17 8H36.5699Z" fill="url(#paint0_linear_450_1290)"/>
<path d="M48.47 58.33L44.37 63.98L76.39 87.22L76.6 87.38L80.7 81.73L48.47 58.33Z" fill="url(#paint1_linear_450_1290)"/>
<path d="M69.17 58.33L65.07 63.98L97.31 87.38L101.41 81.73L69.17 58.33Z" fill="url(#paint2_linear_450_1290)"/>
<path d="M72.9 29.41C55.54 29.41 41.42 40.2001 41.42 53.4601V53.73H48.42V53.4601C48.42 44.0501 59.42 36.39 72.92 36.39C86.42 36.39 97.42 44.0501 97.42 53.4601V53.73H104.42V53.4601C104.38 40.2001 90.26 29.41 72.9 29.41Z" fill="url(#paint3_linear_450_1290)"/>
<path d="M97.35 92.28C97.35 101.69 86.35 109.35 72.84 109.35C59.33 109.35 48.34 101.69 48.34 92.28V92.01H41.34V92.28C41.34 105.54 55.4599 116.33 72.8199 116.33C90.1799 116.33 104.3 105.54 104.3 92.28V92.01H97.3L97.35 92.28Z" fill="url(#paint4_linear_450_1290)"/>
<path d="M275.504 33.16V115H266.08V63.54L267.196 41.964H267.072L240.164 115H231.732L204.824 41.964H204.7L205.816 63.54V115H196.392V33.16H211.644L229.624 82.884L235.824 103.344H236.072L242.396 83.008L260.252 33.16H275.504Z" fill="white"/>
<path d="M318.867 51.76C324.737 51.76 329.903 53.0413 334.367 55.604C338.914 58.1666 342.469 61.8867 345.031 66.764C347.594 71.5587 348.875 77.304 348.875 84C348.875 90.696 347.594 96.4827 345.031 101.36C342.469 106.155 338.914 109.833 334.367 112.396C329.903 114.959 324.737 116.24 318.867 116.24C313.081 116.24 307.914 114.959 303.367 112.396C298.821 109.833 295.266 106.155 292.703 101.36C290.141 96.4827 288.859 90.696 288.859 84C288.859 77.304 290.141 71.5587 292.703 66.764C295.266 61.8867 298.821 58.1666 303.367 55.604C307.914 53.0413 313.081 51.76 318.867 51.76ZM318.867 60.316C314.651 60.316 311.055 61.2667 308.079 63.168C305.103 65.0693 302.789 67.7973 301.135 71.352C299.565 74.824 298.779 79.04 298.779 84C298.779 88.8773 299.565 93.0933 301.135 96.648C302.789 100.203 305.103 102.931 308.079 104.832C311.055 106.733 314.651 107.684 318.867 107.684C323.083 107.684 326.679 106.733 329.655 104.832C332.631 102.931 334.905 100.203 336.475 96.648C338.129 93.0933 338.955 88.8773 338.955 84C338.955 79.04 338.129 74.824 336.475 71.352C334.905 67.7973 332.631 65.0693 329.655 63.168C326.679 61.2667 323.083 60.316 318.867 60.316Z" fill="white"/>
<path d="M385.531 116.24C380.406 116.24 375.694 114.959 371.395 112.396C367.096 109.833 363.666 106.155 361.103 101.36C358.54 96.4827 357.259 90.696 357.259 84C357.259 77.1387 358.623 71.3107 361.351 66.516C364.079 61.7213 367.675 58.084 372.139 55.604C376.603 53.0413 381.398 51.76 386.523 51.76C391.648 51.76 396.071 53.0826 399.791 55.728C403.594 58.3733 406.115 61.8866 407.355 66.268L406.115 67.136V24.48H416.035V115H407.355L406.487 99.996L407.851 99.252C407.272 102.889 405.867 105.989 403.635 108.552C401.486 111.032 398.799 112.933 395.575 114.256C392.434 115.579 389.086 116.24 385.531 116.24ZM386.523 107.56C390.491 107.56 393.922 106.568 396.815 104.584C399.791 102.6 402.064 99.7893 403.635 96.152C405.288 92.432 406.115 88.092 406.115 83.132C406.115 78.42 405.288 74.3693 403.635 70.98C402.064 67.5906 399.832 64.9866 396.939 63.168C394.128 61.3493 390.822 60.44 387.019 60.44C380.736 60.44 375.859 62.5893 372.387 66.888C368.915 71.1867 367.179 76.8906 367.179 84C367.179 91.1093 368.874 96.8133 372.263 101.112C375.652 105.411 380.406 107.56 386.523 107.56Z" fill="white"/>
<path d="M458.809 116.24C452.94 116.24 447.69 114.959 443.061 112.396C438.514 109.833 434.96 106.155 432.397 101.36C429.834 96.4827 428.553 90.696 428.553 84C428.553 77.304 429.834 71.5587 432.397 66.764C434.96 61.8867 438.473 58.1666 442.937 55.604C447.401 53.0413 452.485 51.76 458.189 51.76C463.976 51.76 468.894 53 472.945 55.48C477.078 57.96 480.22 61.3493 482.369 65.648C484.518 69.864 485.593 74.6173 485.593 79.908C485.593 81.3133 485.552 82.5947 485.469 83.752C485.386 84.9093 485.262 85.9426 485.097 86.852H435.001V78.048H480.757L475.673 79.04C475.673 73.088 474.02 68.5 470.713 65.276C467.489 62.052 463.232 60.44 457.941 60.44C453.89 60.44 450.377 61.3906 447.401 63.292C444.508 65.1106 442.234 67.7973 440.581 71.352C439.01 74.824 438.225 79.04 438.225 84C438.225 88.8773 439.052 93.0933 440.705 96.648C442.358 100.203 444.673 102.931 447.649 104.832C450.708 106.651 454.345 107.56 458.561 107.56C463.108 107.56 466.786 106.692 469.597 104.956C472.49 103.22 474.805 100.864 476.541 97.888L484.353 102.476C482.782 105.287 480.757 107.725 478.277 109.792C475.88 111.859 473.028 113.471 469.721 114.628C466.497 115.703 462.86 116.24 458.809 116.24Z" fill="white"/>
<path d="M507.683 24.48V99.252C507.683 102.393 508.262 104.584 509.419 105.824C510.577 106.981 512.437 107.56 514.999 107.56C516.653 107.56 518.017 107.436 519.091 107.188C520.166 106.94 521.613 106.485 523.431 105.824L521.819 114.504C520.497 115.083 519.05 115.496 517.479 115.744C515.909 116.075 514.297 116.24 512.643 116.24C507.601 116.24 503.839 114.876 501.359 112.148C498.962 109.42 497.763 105.245 497.763 99.624V24.48H507.683Z" fill="white"/>
<path d="M534.922 41.096C532.69 41.096 530.871 40.4346 529.466 39.112C528.143 37.7066 527.482 35.888 527.482 33.656C527.482 31.424 528.143 29.6466 529.466 28.324C530.871 26.9186 532.69 26.216 534.922 26.216C537.154 26.216 538.931 26.9186 540.254 28.324C541.659 29.6466 542.362 31.424 542.362 33.656C542.362 35.888 541.659 37.7066 540.254 39.112C538.931 40.4346 537.154 41.096 534.922 41.096ZM539.882 53V115H529.962V53H539.882Z" fill="white"/>
<path d="M556.699 115V53H565.379L566.247 66.888L564.635 65.524C565.958 62.2173 567.735 59.572 569.967 57.588C572.199 55.5213 574.762 54.0333 577.655 53.124C580.631 52.2146 583.69 51.76 586.831 51.76C591.295 51.76 595.346 52.628 598.983 54.364C602.621 56.0173 605.514 58.58 607.663 62.052C609.895 65.524 611.011 69.9467 611.011 75.32V115H601.091V78.792C601.091 71.9307 599.603 67.1773 596.627 64.532C593.734 61.804 590.138 60.44 585.839 60.44C582.863 60.44 579.887 61.1426 576.911 62.548C573.935 63.9533 571.455 66.2266 569.471 69.368C567.57 72.5093 566.619 76.7253 566.619 82.016V115H556.699Z" fill="white"/>
<path d="M663.481 74.948C663.481 70.3186 662.241 66.764 659.761 64.284C657.281 61.7213 653.767 60.44 649.221 60.44C644.922 60.44 641.285 61.3906 638.309 63.292C635.333 65.1106 633.142 68.0866 631.737 72.22L623.677 67.26C625.33 62.6306 628.389 58.9106 632.853 56.1C637.317 53.2066 642.855 51.76 649.469 51.76C653.933 51.76 657.983 52.5453 661.621 54.116C665.258 55.604 668.11 57.9186 670.177 61.06C672.326 64.1186 673.401 68.0866 673.401 72.964V102.972C673.401 105.948 674.971 107.436 678.113 107.436C679.683 107.436 681.213 107.229 682.701 106.816L682.205 114.628C680.551 115.455 678.402 115.868 675.757 115.868C673.359 115.868 671.21 115.413 669.309 114.504C667.407 113.595 665.919 112.231 664.845 110.412C663.77 108.511 663.233 106.155 663.233 103.344V102.104L665.713 102.476C664.721 105.7 663.026 108.345 660.629 110.412C658.231 112.396 655.545 113.884 652.569 114.876C649.593 115.785 646.658 116.24 643.765 116.24C640.127 116.24 636.738 115.62 633.597 114.38C630.455 113.14 627.934 111.28 626.033 108.8C624.214 106.237 623.305 103.096 623.305 99.376C623.305 94.7467 624.834 90.944 627.893 87.968C631.034 84.9093 635.374 82.8426 640.913 81.768L665.465 76.932V85.116L645.501 89.208C641.45 90.0347 638.433 91.192 636.449 92.68C634.465 94.168 633.473 96.2346 633.473 98.88C633.473 101.443 634.465 103.551 636.449 105.204C638.515 106.775 641.409 107.56 645.129 107.56C647.526 107.56 649.799 107.271 651.949 106.692C654.181 106.031 656.165 105.08 657.901 103.84C659.637 102.517 661.001 100.905 661.993 99.004C662.985 97.02 663.481 94.7053 663.481 92.06V74.948Z" fill="white"/>
<defs>
<linearGradient id="paint0_linear_450_1290" x1="146" y1="0" x2="0" y2="146" gradientUnits="userSpaceOnUse">
<stop stop-color="#ADF0FF"/>
<stop offset="1" stop-color="#02C6F2"/>
<stop offset="1" stop-color="#02C6F2"/>
</linearGradient>
<linearGradient id="paint1_linear_450_1290" x1="146" y1="0" x2="0" y2="146" gradientUnits="userSpaceOnUse">
<stop stop-color="#ADF0FF"/>
<stop offset="1" stop-color="#02C6F2"/>
<stop offset="1" stop-color="#02C6F2"/>
</linearGradient>
<linearGradient id="paint2_linear_450_1290" x1="146" y1="0" x2="0" y2="146" gradientUnits="userSpaceOnUse">
<stop stop-color="#ADF0FF"/>
<stop offset="1" stop-color="#02C6F2"/>
<stop offset="1" stop-color="#02C6F2"/>
</linearGradient>
<linearGradient id="paint3_linear_450_1290" x1="146" y1="0" x2="0" y2="146" gradientUnits="userSpaceOnUse">
<stop stop-color="#ADF0FF"/>
<stop offset="1" stop-color="#02C6F2"/>
<stop offset="1" stop-color="#02C6F2"/>
</linearGradient>
<linearGradient id="paint4_linear_450_1290" x1="146" y1="0" x2="0" y2="146" gradientUnits="userSpaceOnUse">
<stop stop-color="#ADF0FF"/>
<stop offset="1" stop-color="#02C6F2"/>
<stop offset="1" stop-color="#02C6F2"/>
</linearGradient>
</defs>
</svg>
