<?xml version="1.0" encoding="utf-8"?>
<!-- Generator: Adobe Illustrator 21.0.2, SVG Export Plug-In . SVG Version: 6.00 Build 0)  -->
<svg version="1.1" id="Capa_1" xmlns="http://www.w3.org/2000/svg" xmlns:xlink="http://www.w3.org/1999/xlink" x="0px" y="0px"
	 viewBox="0 0 1646.5 800" style="enable-background:new 0 0 1646.5 800;" xml:space="preserve">
<style type="text/css">
	.st0{fill:#252F3F;}
	.st1{fill:#1AD4D3;}
	.st2{fill:#FFFFFF;}
	.st3{clip-path:url(#SVGID_17_);}
	.st4{clip-path:url(#SVGID_22_);}
	.st5{clip-path:url(#SVGID_23_);}
	.st6{clip-path:url(#SVGID_29_);}
	.st7{clip-path:url(#SVGID_30_);}
	.st8{clip-path:url(#SVGID_31_);}
	.st9{clip-path:url(#SVGID_38_);}
	.st10{clip-path:url(#SVGID_39_);}
	.st11{clip-path:url(#SVGID_40_);}
	.st12{clip-path:url(#SVGID_41_);}
	.st13{clip-path:url(#SVGID_49_);}
	.st14{clip-path:url(#SVGID_50_);}
	.st15{clip-path:url(#SVGID_51_);}
	.st16{clip-path:url(#SVGID_52_);}
	.st17{clip-path:url(#SVGID_53_);}
	.st18{clip-path:url(#SVGID_62_);}
	.st19{clip-path:url(#SVGID_63_);}
	.st20{clip-path:url(#SVGID_64_);}
	.st21{clip-path:url(#SVGID_65_);}
	.st22{clip-path:url(#SVGID_66_);}
	.st23{clip-path:url(#SVGID_67_);}
	.st24{clip-path:url(#SVGID_77_);}
	.st25{clip-path:url(#SVGID_78_);}
	.st26{clip-path:url(#SVGID_79_);}
	.st27{clip-path:url(#SVGID_80_);}
	.st28{clip-path:url(#SVGID_81_);}
	.st29{clip-path:url(#SVGID_82_);}
	.st30{clip-path:url(#SVGID_83_);}
	.st31{clip-path:url(#SVGID_94_);}
	.st32{clip-path:url(#SVGID_95_);}
	.st33{clip-path:url(#SVGID_96_);}
	.st34{clip-path:url(#SVGID_97_);}
	.st35{clip-path:url(#SVGID_98_);}
	.st36{clip-path:url(#SVGID_99_);}
	.st37{clip-path:url(#SVGID_100_);}
	.st38{clip-path:url(#SVGID_101_);}
	.st39{clip-path:url(#SVGID_113_);}
	.st40{clip-path:url(#SVGID_114_);}
	.st41{clip-path:url(#SVGID_115_);}
	.st42{clip-path:url(#SVGID_116_);}
	.st43{clip-path:url(#SVGID_117_);}
	.st44{clip-path:url(#SVGID_118_);}
	.st45{clip-path:url(#SVGID_119_);}
	.st46{clip-path:url(#SVGID_120_);}
	.st47{clip-path:url(#SVGID_121_);}
	.st48{clip-path:url(#SVGID_134_);}
	.st49{clip-path:url(#SVGID_135_);}
	.st50{clip-path:url(#SVGID_136_);}
	.st51{clip-path:url(#SVGID_137_);}
	.st52{clip-path:url(#SVGID_138_);}
	.st53{clip-path:url(#SVGID_139_);}
	.st54{clip-path:url(#SVGID_140_);}
	.st55{clip-path:url(#SVGID_141_);}
	.st56{clip-path:url(#SVGID_142_);}
	.st57{clip-path:url(#SVGID_143_);}
</style>
<g id="Layer_2">
	<rect x="-57.5" y="-18.5" class="st0" width="1820" height="856"/>
</g>
<g id="Layer_3">
	<g>
		<path class="st1" d="M1328.2,406c0,3.2-0.3,6.7-1,10.3l-9.8,49.5h-16l9.8-49.5c0.5-2.7,0.8-5.2,0.8-7.3c0-11.5-6.7-18-20.5-18
			c-17.2,0-28.8,9.2-32.7,28.2l-9.3,46.7h-16l24.7-123.6h16l-9.2,45.7c8.2-7.7,18.8-11.2,31.2-11.2
			C1316.2,376.7,1328.2,387.1,1328.2,406z"/>
		<path class="st1" d="M1446.8,377.5l-17.5,88.3H1414l2.2-11.3c-8.2,8.3-19.3,12.3-31.7,12.3c-19.3,0-31.7-10.8-31.7-29.7
			c0-3.2,0.3-6.5,1-10.2l9.8-49.5h16l-9.8,49.7c-0.5,2.7-0.8,5.2-0.8,7.5c0,11.3,6.7,17.8,20.2,17.8c16.7,0,28.5-9.3,32.3-28.2
			l9.3-46.8L1446.8,377.5L1446.8,377.5z"/>
		<path class="st1" d="M1560.6,414.6c0,30.3-21.3,52.2-50,52.2c-15.7,0-26.8-6-32.3-17l-3.3,16h-15.2l24.7-123.6h16l-9.2,45.5
			c7.8-7,18-11,30.3-11C1544.1,376.7,1560.6,390.8,1560.6,414.6z M1544.4,415.5c0-15.7-9.5-24.8-26.3-24.8
			c-20,0-34.5,15.5-34.5,37.3c0,15.5,9.5,24.8,26.3,24.8C1529.8,452.8,1544.4,437.3,1544.4,415.5z"/>
	</g>
</g>
<g id="Layer_1">
	<g>
		<path id="SVGID_1_" class="st2" d="M406.5,317.5h21.9L479,465.8h-18.1l-11.8-35.5h-63.1l-11.8,35.5H356L406.5,317.5z M444.5,414.7
			l-26.7-80.8l-27.3,80.8H444.5z"/>
	</g>
	<g>
		<path id="SVGID_2_" class="st2" d="M506,465c-6.7-3.2-12-7.7-16.1-13.4c-4.1-5.7-6.3-12.2-6.7-19.5l15.6-3.6
			c0.3,5.3,1.8,10,4.4,14.1c2.7,4.1,6.2,7.1,10.7,9.3c4.5,2.1,9.5,3.2,14.9,3.2c4.8,0,9-0.7,12.8-2.1c3.8-1.4,6.8-3.5,9.1-6.2
			c2.3-2.7,3.5-5.7,3.5-8.9c0-3.6-1.3-6.6-3.8-8.9c-2.5-2.3-5.6-4.1-9.3-5.5c-3.6-1.3-8.4-2.8-14.3-4.3c-8.1-2.1-14.8-4.2-19.9-6.3
			c-5.1-2.1-9.4-5.2-12.9-9.4c-3.5-4.1-5.3-9.6-5.3-16.3c0-5.9,1.6-11.3,4.7-16.1c3.2-4.8,7.4-8.6,12.8-11.4
			c5.4-2.7,11.5-4.1,18.2-4.1c6.6,0,12.7,1.4,18.3,4.1c5.6,2.7,10.2,6.5,13.7,11.3c3.5,4.8,5.5,10.1,6.1,16l-15.6,4
			c-0.3-6.4-2.6-11.5-6.8-15.2c-4.3-3.7-9.6-5.6-16.1-5.6c-3.6,0-7,0.7-10,2.1c-3,1.4-5.4,3.4-7.1,5.9c-1.8,2.5-2.6,5.3-2.6,8.4
			c0,3.6,1.3,6.6,3.8,8.9c2.5,2.3,5.1,4,7.7,5c2.6,1.1,8,2.5,16.1,4.3c7.7,2.1,14.2,4.3,19.5,6.7c5.3,2.4,9.6,5.6,13.1,9.7
			c3.5,4.1,5.3,9.1,5.3,15.1c0,6.3-1.8,12-5.5,17.1c-3.6,5.1-8.6,9.1-14.8,12c-6.2,2.9-13.3,4.3-21.1,4.3
			C520.2,469.8,512.7,468.2,506,465z"/>
	</g>
	<g>
		<path id="SVGID_3_" class="st2" d="M597,514c-6.6-2.8-12.4-6.8-17.3-12c-5-5.2-8.8-11.1-11.5-17.9l13.5-9
			c2.4,8.5,6.8,15.5,13.2,20.7c6.4,5.3,13.9,7.9,22.5,7.9c6.6,0,12.4-1.6,17.3-4.9c5-3.3,8.9-7.8,11.8-13.5
			c2.9-5.7,4.3-12.1,4.3-19.2l-0.2-14.3c-2,3.5-4.6,6.6-7.8,9.4c-3.2,2.7-6.8,4.9-10.7,6.4c-3.9,1.5-7.9,2.3-12,2.3
			c-7.3,0-13.8-1.8-19.5-5.4c-5.7-3.6-10.1-8.5-13.1-14.7c-3.1-6.2-4.6-13.4-4.6-21.6v-68.6h16v68.6c0,5.3,1,10,2.9,14
			c2,4,4.8,7.2,8.4,9.6c3.6,2.4,7.9,3.6,12.6,3.6c5.2,0,9.9-1.3,14.1-3.8c4.2-2.5,7.5-6,10-10.4c2.5-4.4,3.7-9.4,3.7-15v-66.5h16
			l0.2,106.4c0,10-2.1,18.9-6.3,26.8c-4.2,7.9-10,14.1-17.5,18.6c-7.4,4.5-15.8,6.7-25,6.7C610.6,518.2,603.6,516.8,597,514z"/>
	</g>
	<g>
		<path id="SVGID_4_" class="st2" d="M687.9,359.6h14.5l1.5,14.1c2.9-5.5,7.2-9.8,12.8-13.1c5.6-3.3,11.5-4.9,17.7-4.9
			c7.3,0,13.8,1.8,19.5,5.5c5.7,3.6,10.1,8.6,13.2,14.8c3.2,6.2,4.7,13.4,4.7,21.4v68.6h-16.2v-68.6c0-5.2-0.9-9.8-2.8-13.9
			c-1.9-4.1-4.7-7.3-8.4-9.6c-3.7-2.3-8-3.5-12.7-3.5c-5,0-9.7,1.3-13.9,3.8c-4.2,2.5-7.6,6-10.1,10.4c-2.5,4.4-3.8,9.4-3.8,15v66.2
			h-16L687.9,359.6L687.9,359.6z"/>
	</g>
	<g>
		<path id="SVGID_5_" class="st2" d="M811.3,462.4c-7.6-4.9-13.5-11.7-17.7-20.3c-4.2-8.6-6.2-18.4-6.1-29.3
			c0-11.1,1.9-20.9,5.8-29.6c3.9-8.6,9.3-15.4,16.3-20.3c7-4.9,15.1-7.4,24.2-7.4c7,0,13.5,1.5,19.3,4.6c5.9,3.1,10.8,7.3,14.8,12.5
			c4,5.3,6.8,11.4,8.3,18.4l-15.4,4.2c-2-7.7-5.4-13.9-10.2-18.5c-4.8-4.6-10.6-6.9-17.1-6.9c-5.6,0-10.7,1.8-15.4,5.5
			c-4.6,3.6-8.2,8.7-10.8,15.2c-2.6,6.5-3.9,13.9-3.9,22.2c0,8.3,1.4,15.6,4.3,22.1c2.9,6.5,6.9,11.5,12,15.2
			c5.1,3.7,10.9,5.6,17.3,5.6c5.6,0,10.7-1.3,15.2-4c4.6-2.7,8.3-6.4,11.1-11.1c2.9-4.8,4.7-10.2,5.6-16.2l15.4,3.4
			c-1.1,8.1-3.9,15.4-8.3,21.8c-4.4,6.4-10,11.4-16.7,14.9c-6.7,3.6-14.2,5.4-22.3,5.4C827.5,469.8,818.9,467.3,811.3,462.4z"/>
	</g>
	<g>
		<path id="SVGID_6_" class="st2" d="M941.1,316.9h31.1l50.7,148.9h-26.3l-10.3-33h-58.9l-10.9,33h-25.9L941.1,316.9z M980.6,412.4
			l-23.8-73.2l-24.2,73.2H980.6z"/>
	</g>
	<g>
		<path id="SVGID_7_" class="st2" d="M1037,316.9h58.5c10,0,18.9,2,26.7,5.9c7.8,3.9,14.1,9.4,18.6,16.4c4.6,7,6.8,15,6.8,24
			c0,9-2.2,16.9-6.7,23.9c-4.5,6.9-10.7,12.4-18.6,16.5c-7.9,4.1-16.8,6.1-26.6,6.1h-34.1v56.2H1037L1037,316.9L1037,316.9z
			 M1092.7,388.6c5.5,0,10.5-1.1,15-3.3c4.6-2.2,8.1-5.2,10.7-9c2.6-3.9,3.9-8.2,3.9-13.1s-1.3-9.3-3.8-13.1c-2.5-3.9-6-6.9-10.5-9
			c-4.5-2.2-9.6-3.3-15.3-3.3h-31.1v50.9L1092.7,388.6L1092.7,388.6z"/>
	</g>
	<g>
		<path id="SVGID_8_" class="st2" d="M1163.8,316.9h25.2v148.9h-25.2V316.9z"/>
	</g>
	<g>
		<path id="SVGID_9_" class="st2" d="M181.5,524.5c-48.9,0-88.8-29.7-88.8-66.2h17.6c0,26.8,31.9,48.6,71.2,48.6
			s71.2-21.8,71.2-48.6h17.6C270.2,494.8,230.4,524.5,181.5,524.5z"/>
	</g>
	<g>
		<path id="SVGID_10_" class="st2" d="M270.2,342.9h-17.6c0-26.8-31.9-48.6-71.2-48.6s-71.2,21.8-71.2,48.6H92.7
			c0-36.5,39.8-66.2,88.8-66.2C230.4,276.7,270.2,306.4,270.2,342.9z"/>
	</g>
	<g>
		
			<rect id="SVGID_11_" x="146.6" y="344.2" transform="matrix(0.5866 -0.8099 0.8099 0.5866 -260.2504 291.4493)" class="st2" width="17.6" height="112.9"/>
	</g>
	<g>
		<polygon id="SVGID_12_" class="st2" points="248.9,440.8 157.4,374.6 167.7,360.3 259.2,426.5 		"/>
	</g>
	<g>
		<defs>
			<path id="SVGID_13_" d="M406.5,317.5h21.9L479,465.8h-18.1l-11.8-35.5h-63.1l-11.8,35.5H356L406.5,317.5z M444.5,414.7
				l-26.7-80.8l-27.3,80.8H444.5z"/>
		</defs>
		<clipPath id="SVGID_14_">
			<use xlink:href="#SVGID_13_"  style="overflow:visible;"/>
		</clipPath>
	</g>
	<g>
		<defs>
			<path id="SVGID_15_" d="M406.5,317.5h21.9L479,465.8h-18.1l-11.8-35.5h-63.1l-11.8,35.5H356L406.5,317.5z M444.5,414.7
				l-26.7-80.8l-27.3,80.8H444.5z"/>
		</defs>
		<defs>
			<path id="SVGID_16_" d="M506,465c-6.7-3.2-12-7.7-16.1-13.4c-4.1-5.7-6.3-12.2-6.7-19.5l15.6-3.6c0.3,5.3,1.8,10,4.4,14.1
				c2.7,4.1,6.2,7.1,10.7,9.3c4.5,2.1,9.5,3.2,14.9,3.2c4.8,0,9-0.7,12.8-2.1c3.8-1.4,6.8-3.5,9.1-6.2c2.3-2.7,3.5-5.7,3.5-8.9
				c0-3.6-1.3-6.6-3.8-8.9c-2.5-2.3-5.6-4.1-9.3-5.5c-3.6-1.3-8.4-2.8-14.3-4.3c-8.1-2.1-14.8-4.2-19.9-6.3
				c-5.1-2.1-9.4-5.2-12.9-9.4c-3.5-4.1-5.3-9.6-5.3-16.3c0-5.9,1.6-11.3,4.7-16.1c3.2-4.8,7.4-8.6,12.8-11.4
				c5.4-2.7,11.5-4.1,18.2-4.1c6.6,0,12.7,1.4,18.3,4.1c5.6,2.7,10.2,6.5,13.7,11.3c3.5,4.8,5.5,10.1,6.1,16l-15.6,4
				c-0.3-6.4-2.6-11.5-6.8-15.2c-4.3-3.7-9.6-5.6-16.1-5.6c-3.6,0-7,0.7-10,2.1c-3,1.4-5.4,3.4-7.1,5.9c-1.8,2.5-2.6,5.3-2.6,8.4
				c0,3.6,1.3,6.6,3.8,8.9c2.5,2.3,5.1,4,7.7,5c2.6,1.1,8,2.5,16.1,4.3c7.7,2.1,14.2,4.3,19.5,6.7c5.3,2.4,9.6,5.6,13.1,9.7
				c3.5,4.1,5.3,9.1,5.3,15.1c0,6.3-1.8,12-5.5,17.1c-3.6,5.1-8.6,9.1-14.8,12c-6.2,2.9-13.3,4.3-21.1,4.3
				C520.2,469.8,512.7,468.2,506,465z"/>
		</defs>
		<clipPath id="SVGID_17_">
			<use xlink:href="#SVGID_15_"  style="overflow:visible;"/>
		</clipPath>
		<clipPath id="SVGID_18_" class="st3">
			<use xlink:href="#SVGID_16_"  style="overflow:visible;"/>
		</clipPath>
	</g>
	<g>
		<defs>
			<path id="SVGID_19_" d="M406.5,317.5h21.9L479,465.8h-18.1l-11.8-35.5h-63.1l-11.8,35.5H356L406.5,317.5z M444.5,414.7
				l-26.7-80.8l-27.3,80.8H444.5z"/>
		</defs>
		<defs>
			<path id="SVGID_20_" d="M506,465c-6.7-3.2-12-7.7-16.1-13.4c-4.1-5.7-6.3-12.2-6.7-19.5l15.6-3.6c0.3,5.3,1.8,10,4.4,14.1
				c2.7,4.1,6.2,7.1,10.7,9.3c4.5,2.1,9.5,3.2,14.9,3.2c4.8,0,9-0.7,12.8-2.1c3.8-1.4,6.8-3.5,9.1-6.2c2.3-2.7,3.5-5.7,3.5-8.9
				c0-3.6-1.3-6.6-3.8-8.9c-2.5-2.3-5.6-4.1-9.3-5.5c-3.6-1.3-8.4-2.8-14.3-4.3c-8.1-2.1-14.8-4.2-19.9-6.3
				c-5.1-2.1-9.4-5.2-12.9-9.4c-3.5-4.1-5.3-9.6-5.3-16.3c0-5.9,1.6-11.3,4.7-16.1c3.2-4.8,7.4-8.6,12.8-11.4
				c5.4-2.7,11.5-4.1,18.2-4.1c6.6,0,12.7,1.4,18.3,4.1c5.6,2.7,10.2,6.5,13.7,11.3c3.5,4.8,5.5,10.1,6.1,16l-15.6,4
				c-0.3-6.4-2.6-11.5-6.8-15.2c-4.3-3.7-9.6-5.6-16.1-5.6c-3.6,0-7,0.7-10,2.1c-3,1.4-5.4,3.4-7.1,5.9c-1.8,2.5-2.6,5.3-2.6,8.4
				c0,3.6,1.3,6.6,3.8,8.9c2.5,2.3,5.1,4,7.7,5c2.6,1.1,8,2.5,16.1,4.3c7.7,2.1,14.2,4.3,19.5,6.7c5.3,2.4,9.6,5.6,13.1,9.7
				c3.5,4.1,5.3,9.1,5.3,15.1c0,6.3-1.8,12-5.5,17.1c-3.6,5.1-8.6,9.1-14.8,12c-6.2,2.9-13.3,4.3-21.1,4.3
				C520.2,469.8,512.7,468.2,506,465z"/>
		</defs>
		<defs>
			<path id="SVGID_21_" d="M597,514c-6.6-2.8-12.4-6.8-17.3-12c-5-5.2-8.8-11.1-11.5-17.9l13.5-9c2.4,8.5,6.8,15.5,13.2,20.7
				c6.4,5.3,13.9,7.9,22.5,7.9c6.6,0,12.4-1.6,17.3-4.9c5-3.3,8.9-7.8,11.8-13.5c2.9-5.7,4.3-12.1,4.3-19.2l-0.2-14.3
				c-2,3.5-4.6,6.6-7.8,9.4c-3.2,2.7-6.8,4.9-10.7,6.4c-3.9,1.5-7.9,2.3-12,2.3c-7.3,0-13.8-1.8-19.5-5.4
				c-5.7-3.6-10.1-8.5-13.1-14.7c-3.1-6.2-4.6-13.4-4.6-21.6v-68.6h16v68.6c0,5.3,1,10,2.9,14c2,4,4.8,7.2,8.4,9.6
				c3.6,2.4,7.9,3.6,12.6,3.6c5.2,0,9.9-1.3,14.1-3.8c4.2-2.5,7.5-6,10-10.4c2.5-4.4,3.7-9.4,3.7-15v-66.5h16l0.2,106.4
				c0,10-2.1,18.9-6.3,26.8c-4.2,7.9-10,14.1-17.5,18.6c-7.4,4.5-15.8,6.7-25,6.7C610.6,518.2,603.6,516.8,597,514z"/>
		</defs>
		<clipPath id="SVGID_22_">
			<use xlink:href="#SVGID_19_"  style="overflow:visible;"/>
		</clipPath>
		<clipPath id="SVGID_23_" class="st4">
			<use xlink:href="#SVGID_20_"  style="overflow:visible;"/>
		</clipPath>
		<clipPath id="SVGID_24_" class="st5">
			<use xlink:href="#SVGID_21_"  style="overflow:visible;"/>
		</clipPath>
	</g>
	<g>
		<defs>
			<path id="SVGID_25_" d="M406.5,317.5h21.9L479,465.8h-18.1l-11.8-35.5h-63.1l-11.8,35.5H356L406.5,317.5z M444.5,414.7
				l-26.7-80.8l-27.3,80.8H444.5z"/>
		</defs>
		<defs>
			<path id="SVGID_26_" d="M506,465c-6.7-3.2-12-7.7-16.1-13.4c-4.1-5.7-6.3-12.2-6.7-19.5l15.6-3.6c0.3,5.3,1.8,10,4.4,14.1
				c2.7,4.1,6.2,7.1,10.7,9.3c4.5,2.1,9.5,3.2,14.9,3.2c4.8,0,9-0.7,12.8-2.1c3.8-1.4,6.8-3.5,9.1-6.2c2.3-2.7,3.5-5.7,3.5-8.9
				c0-3.6-1.3-6.6-3.8-8.9c-2.5-2.3-5.6-4.1-9.3-5.5c-3.6-1.3-8.4-2.8-14.3-4.3c-8.1-2.1-14.8-4.2-19.9-6.3
				c-5.1-2.1-9.4-5.2-12.9-9.4c-3.5-4.1-5.3-9.6-5.3-16.3c0-5.9,1.6-11.3,4.7-16.1c3.2-4.8,7.4-8.6,12.8-11.4
				c5.4-2.7,11.5-4.1,18.2-4.1c6.6,0,12.7,1.4,18.3,4.1c5.6,2.7,10.2,6.5,13.7,11.3c3.5,4.8,5.5,10.1,6.1,16l-15.6,4
				c-0.3-6.4-2.6-11.5-6.8-15.2c-4.3-3.7-9.6-5.6-16.1-5.6c-3.6,0-7,0.7-10,2.1c-3,1.4-5.4,3.4-7.1,5.9c-1.8,2.5-2.6,5.3-2.6,8.4
				c0,3.6,1.3,6.6,3.8,8.9c2.5,2.3,5.1,4,7.7,5c2.6,1.1,8,2.5,16.1,4.3c7.7,2.1,14.2,4.3,19.5,6.7c5.3,2.4,9.6,5.6,13.1,9.7
				c3.5,4.1,5.3,9.1,5.3,15.1c0,6.3-1.8,12-5.5,17.1c-3.6,5.1-8.6,9.1-14.8,12c-6.2,2.9-13.3,4.3-21.1,4.3
				C520.2,469.8,512.7,468.2,506,465z"/>
		</defs>
		<defs>
			<path id="SVGID_27_" d="M597,514c-6.6-2.8-12.4-6.8-17.3-12c-5-5.2-8.8-11.1-11.5-17.9l13.5-9c2.4,8.5,6.8,15.5,13.2,20.7
				c6.4,5.3,13.9,7.9,22.5,7.9c6.6,0,12.4-1.6,17.3-4.9c5-3.3,8.9-7.8,11.8-13.5c2.9-5.7,4.3-12.1,4.3-19.2l-0.2-14.3
				c-2,3.5-4.6,6.6-7.8,9.4c-3.2,2.7-6.8,4.9-10.7,6.4c-3.9,1.5-7.9,2.3-12,2.3c-7.3,0-13.8-1.8-19.5-5.4
				c-5.7-3.6-10.1-8.5-13.1-14.7c-3.1-6.2-4.6-13.4-4.6-21.6v-68.6h16v68.6c0,5.3,1,10,2.9,14c2,4,4.8,7.2,8.4,9.6
				c3.6,2.4,7.9,3.6,12.6,3.6c5.2,0,9.9-1.3,14.1-3.8c4.2-2.5,7.5-6,10-10.4c2.5-4.4,3.7-9.4,3.7-15v-66.5h16l0.2,106.4
				c0,10-2.1,18.9-6.3,26.8c-4.2,7.9-10,14.1-17.5,18.6c-7.4,4.5-15.8,6.7-25,6.7C610.6,518.2,603.6,516.8,597,514z"/>
		</defs>
		<defs>
			<path id="SVGID_28_" d="M687.9,359.6h14.5l1.5,14.1c2.9-5.5,7.2-9.8,12.8-13.1c5.6-3.3,11.5-4.9,17.7-4.9
				c7.3,0,13.8,1.8,19.5,5.5c5.7,3.6,10.1,8.6,13.2,14.8c3.2,6.2,4.7,13.4,4.7,21.4v68.6h-16.2v-68.6c0-5.2-0.9-9.8-2.8-13.9
				c-1.9-4.1-4.7-7.3-8.4-9.6c-3.7-2.3-8-3.5-12.7-3.5c-5,0-9.7,1.3-13.9,3.8c-4.2,2.5-7.6,6-10.1,10.4c-2.5,4.4-3.8,9.4-3.8,15
				v66.2h-16L687.9,359.6L687.9,359.6z"/>
		</defs>
		<clipPath id="SVGID_29_">
			<use xlink:href="#SVGID_25_"  style="overflow:visible;"/>
		</clipPath>
		<clipPath id="SVGID_30_" class="st6">
			<use xlink:href="#SVGID_26_"  style="overflow:visible;"/>
		</clipPath>
		<clipPath id="SVGID_31_" class="st7">
			<use xlink:href="#SVGID_27_"  style="overflow:visible;"/>
		</clipPath>
		<clipPath id="SVGID_32_" class="st8">
			<use xlink:href="#SVGID_28_"  style="overflow:visible;"/>
		</clipPath>
	</g>
	<g>
		<defs>
			<path id="SVGID_33_" d="M406.5,317.5h21.9L479,465.8h-18.1l-11.8-35.5h-63.1l-11.8,35.5H356L406.5,317.5z M444.5,414.7
				l-26.7-80.8l-27.3,80.8H444.5z"/>
		</defs>
		<defs>
			<path id="SVGID_34_" d="M506,465c-6.7-3.2-12-7.7-16.1-13.4c-4.1-5.7-6.3-12.2-6.7-19.5l15.6-3.6c0.3,5.3,1.8,10,4.4,14.1
				c2.7,4.1,6.2,7.1,10.7,9.3c4.5,2.1,9.5,3.2,14.9,3.2c4.8,0,9-0.7,12.8-2.1c3.8-1.4,6.8-3.5,9.1-6.2c2.3-2.7,3.5-5.7,3.5-8.9
				c0-3.6-1.3-6.6-3.8-8.9c-2.5-2.3-5.6-4.1-9.3-5.5c-3.6-1.3-8.4-2.8-14.3-4.3c-8.1-2.1-14.8-4.2-19.9-6.3
				c-5.1-2.1-9.4-5.2-12.9-9.4c-3.5-4.1-5.3-9.6-5.3-16.3c0-5.9,1.6-11.3,4.7-16.1c3.2-4.8,7.4-8.6,12.8-11.4
				c5.4-2.7,11.5-4.1,18.2-4.1c6.6,0,12.7,1.4,18.3,4.1c5.6,2.7,10.2,6.5,13.7,11.3c3.5,4.8,5.5,10.1,6.1,16l-15.6,4
				c-0.3-6.4-2.6-11.5-6.8-15.2c-4.3-3.7-9.6-5.6-16.1-5.6c-3.6,0-7,0.7-10,2.1c-3,1.4-5.4,3.4-7.1,5.9c-1.8,2.5-2.6,5.3-2.6,8.4
				c0,3.6,1.3,6.6,3.8,8.9c2.5,2.3,5.1,4,7.7,5c2.6,1.1,8,2.5,16.1,4.3c7.7,2.1,14.2,4.3,19.5,6.7c5.3,2.4,9.6,5.6,13.1,9.7
				c3.5,4.1,5.3,9.1,5.3,15.1c0,6.3-1.8,12-5.5,17.1c-3.6,5.1-8.6,9.1-14.8,12c-6.2,2.9-13.3,4.3-21.1,4.3
				C520.2,469.8,512.7,468.2,506,465z"/>
		</defs>
		<defs>
			<path id="SVGID_35_" d="M597,514c-6.6-2.8-12.4-6.8-17.3-12c-5-5.2-8.8-11.1-11.5-17.9l13.5-9c2.4,8.5,6.8,15.5,13.2,20.7
				c6.4,5.3,13.9,7.9,22.5,7.9c6.6,0,12.4-1.6,17.3-4.9c5-3.3,8.9-7.8,11.8-13.5c2.9-5.7,4.3-12.1,4.3-19.2l-0.2-14.3
				c-2,3.5-4.6,6.6-7.8,9.4c-3.2,2.7-6.8,4.9-10.7,6.4c-3.9,1.5-7.9,2.3-12,2.3c-7.3,0-13.8-1.8-19.5-5.4
				c-5.7-3.6-10.1-8.5-13.1-14.7c-3.1-6.2-4.6-13.4-4.6-21.6v-68.6h16v68.6c0,5.3,1,10,2.9,14c2,4,4.8,7.2,8.4,9.6
				c3.6,2.4,7.9,3.6,12.6,3.6c5.2,0,9.9-1.3,14.1-3.8c4.2-2.5,7.5-6,10-10.4c2.5-4.4,3.7-9.4,3.7-15v-66.5h16l0.2,106.4
				c0,10-2.1,18.9-6.3,26.8c-4.2,7.9-10,14.1-17.5,18.6c-7.4,4.5-15.8,6.7-25,6.7C610.6,518.2,603.6,516.8,597,514z"/>
		</defs>
		<defs>
			<path id="SVGID_36_" d="M687.9,359.6h14.5l1.5,14.1c2.9-5.5,7.2-9.8,12.8-13.1c5.6-3.3,11.5-4.9,17.7-4.9
				c7.3,0,13.8,1.8,19.5,5.5c5.7,3.6,10.1,8.6,13.2,14.8c3.2,6.2,4.7,13.4,4.7,21.4v68.6h-16.2v-68.6c0-5.2-0.9-9.8-2.8-13.9
				c-1.9-4.1-4.7-7.3-8.4-9.6c-3.7-2.3-8-3.5-12.7-3.5c-5,0-9.7,1.3-13.9,3.8c-4.2,2.5-7.6,6-10.1,10.4c-2.5,4.4-3.8,9.4-3.8,15
				v66.2h-16L687.9,359.6L687.9,359.6z"/>
		</defs>
		<defs>
			<path id="SVGID_37_" d="M811.3,462.4c-7.6-4.9-13.5-11.7-17.7-20.3c-4.2-8.6-6.2-18.4-6.1-29.3c0-11.1,1.9-20.9,5.8-29.6
				c3.9-8.6,9.3-15.4,16.3-20.3c7-4.9,15.1-7.4,24.2-7.4c7,0,13.5,1.5,19.3,4.6c5.9,3.1,10.8,7.3,14.8,12.5c4,5.3,6.8,11.4,8.3,18.4
				l-15.4,4.2c-2-7.7-5.4-13.9-10.2-18.5c-4.8-4.6-10.6-6.9-17.1-6.9c-5.6,0-10.7,1.8-15.4,5.5c-4.6,3.6-8.2,8.7-10.8,15.2
				c-2.6,6.5-3.9,13.9-3.9,22.2c0,8.3,1.4,15.6,4.3,22.1c2.9,6.5,6.9,11.5,12,15.2c5.1,3.7,10.9,5.6,17.3,5.6c5.6,0,10.7-1.3,15.2-4
				c4.6-2.7,8.3-6.4,11.1-11.1c2.9-4.8,4.7-10.2,5.6-16.2l15.4,3.4c-1.1,8.1-3.9,15.4-8.3,21.8c-4.4,6.4-10,11.4-16.7,14.9
				c-6.7,3.6-14.2,5.4-22.3,5.4C827.5,469.8,818.9,467.3,811.3,462.4z"/>
		</defs>
		<clipPath id="SVGID_38_">
			<use xlink:href="#SVGID_33_"  style="overflow:visible;"/>
		</clipPath>
		<clipPath id="SVGID_39_" class="st9">
			<use xlink:href="#SVGID_34_"  style="overflow:visible;"/>
		</clipPath>
		<clipPath id="SVGID_40_" class="st10">
			<use xlink:href="#SVGID_35_"  style="overflow:visible;"/>
		</clipPath>
		<clipPath id="SVGID_41_" class="st11">
			<use xlink:href="#SVGID_36_"  style="overflow:visible;"/>
		</clipPath>
		<clipPath id="SVGID_42_" class="st12">
			<use xlink:href="#SVGID_37_"  style="overflow:visible;"/>
		</clipPath>
	</g>
	<g>
		<defs>
			<path id="SVGID_43_" d="M406.5,317.5h21.9L479,465.8h-18.1l-11.8-35.5h-63.1l-11.8,35.5H356L406.5,317.5z M444.5,414.7
				l-26.7-80.8l-27.3,80.8H444.5z"/>
		</defs>
		<defs>
			<path id="SVGID_44_" d="M506,465c-6.7-3.2-12-7.7-16.1-13.4c-4.1-5.7-6.3-12.2-6.7-19.5l15.6-3.6c0.3,5.3,1.8,10,4.4,14.1
				c2.7,4.1,6.2,7.1,10.7,9.3c4.5,2.1,9.5,3.2,14.9,3.2c4.8,0,9-0.7,12.8-2.1c3.8-1.4,6.8-3.5,9.1-6.2c2.3-2.7,3.5-5.7,3.5-8.9
				c0-3.6-1.3-6.6-3.8-8.9c-2.5-2.3-5.6-4.1-9.3-5.5c-3.6-1.3-8.4-2.8-14.3-4.3c-8.1-2.1-14.8-4.2-19.9-6.3
				c-5.1-2.1-9.4-5.2-12.9-9.4c-3.5-4.1-5.3-9.6-5.3-16.3c0-5.9,1.6-11.3,4.7-16.1c3.2-4.8,7.4-8.6,12.8-11.4
				c5.4-2.7,11.5-4.1,18.2-4.1c6.6,0,12.7,1.4,18.3,4.1c5.6,2.7,10.2,6.5,13.7,11.3c3.5,4.8,5.5,10.1,6.1,16l-15.6,4
				c-0.3-6.4-2.6-11.5-6.8-15.2c-4.3-3.7-9.6-5.6-16.1-5.6c-3.6,0-7,0.7-10,2.1c-3,1.4-5.4,3.4-7.1,5.9c-1.8,2.5-2.6,5.3-2.6,8.4
				c0,3.6,1.3,6.6,3.8,8.9c2.5,2.3,5.1,4,7.7,5c2.6,1.1,8,2.5,16.1,4.3c7.7,2.1,14.2,4.3,19.5,6.7c5.3,2.4,9.6,5.6,13.1,9.7
				c3.5,4.1,5.3,9.1,5.3,15.1c0,6.3-1.8,12-5.5,17.1c-3.6,5.1-8.6,9.1-14.8,12c-6.2,2.9-13.3,4.3-21.1,4.3
				C520.2,469.8,512.7,468.2,506,465z"/>
		</defs>
		<defs>
			<path id="SVGID_45_" d="M597,514c-6.6-2.8-12.4-6.8-17.3-12c-5-5.2-8.8-11.1-11.5-17.9l13.5-9c2.4,8.5,6.8,15.5,13.2,20.7
				c6.4,5.3,13.9,7.9,22.5,7.9c6.6,0,12.4-1.6,17.3-4.9c5-3.3,8.9-7.8,11.8-13.5c2.9-5.7,4.3-12.1,4.3-19.2l-0.2-14.3
				c-2,3.5-4.6,6.6-7.8,9.4c-3.2,2.7-6.8,4.9-10.7,6.4c-3.9,1.5-7.9,2.3-12,2.3c-7.3,0-13.8-1.8-19.5-5.4
				c-5.7-3.6-10.1-8.5-13.1-14.7c-3.1-6.2-4.6-13.4-4.6-21.6v-68.6h16v68.6c0,5.3,1,10,2.9,14c2,4,4.8,7.2,8.4,9.6
				c3.6,2.4,7.9,3.6,12.6,3.6c5.2,0,9.9-1.3,14.1-3.8c4.2-2.5,7.5-6,10-10.4c2.5-4.4,3.7-9.4,3.7-15v-66.5h16l0.2,106.4
				c0,10-2.1,18.9-6.3,26.8c-4.2,7.9-10,14.1-17.5,18.6c-7.4,4.5-15.8,6.7-25,6.7C610.6,518.2,603.6,516.8,597,514z"/>
		</defs>
		<defs>
			<path id="SVGID_46_" d="M687.9,359.6h14.5l1.5,14.1c2.9-5.5,7.2-9.8,12.8-13.1c5.6-3.3,11.5-4.9,17.7-4.9
				c7.3,0,13.8,1.8,19.5,5.5c5.7,3.6,10.1,8.6,13.2,14.8c3.2,6.2,4.7,13.4,4.7,21.4v68.6h-16.2v-68.6c0-5.2-0.9-9.8-2.8-13.9
				c-1.9-4.1-4.7-7.3-8.4-9.6c-3.7-2.3-8-3.5-12.7-3.5c-5,0-9.7,1.3-13.9,3.8c-4.2,2.5-7.6,6-10.1,10.4c-2.5,4.4-3.8,9.4-3.8,15
				v66.2h-16L687.9,359.6L687.9,359.6z"/>
		</defs>
		<defs>
			<path id="SVGID_47_" d="M811.3,462.4c-7.6-4.9-13.5-11.7-17.7-20.3c-4.2-8.6-6.2-18.4-6.1-29.3c0-11.1,1.9-20.9,5.8-29.6
				c3.9-8.6,9.3-15.4,16.3-20.3c7-4.9,15.1-7.4,24.2-7.4c7,0,13.5,1.5,19.3,4.6c5.9,3.1,10.8,7.3,14.8,12.5c4,5.3,6.8,11.4,8.3,18.4
				l-15.4,4.2c-2-7.7-5.4-13.9-10.2-18.5c-4.8-4.6-10.6-6.9-17.1-6.9c-5.6,0-10.7,1.8-15.4,5.5c-4.6,3.6-8.2,8.7-10.8,15.2
				c-2.6,6.5-3.9,13.9-3.9,22.2c0,8.3,1.4,15.6,4.3,22.1c2.9,6.5,6.9,11.5,12,15.2c5.1,3.7,10.9,5.6,17.3,5.6c5.6,0,10.7-1.3,15.2-4
				c4.6-2.7,8.3-6.4,11.1-11.1c2.9-4.8,4.7-10.2,5.6-16.2l15.4,3.4c-1.1,8.1-3.9,15.4-8.3,21.8c-4.4,6.4-10,11.4-16.7,14.9
				c-6.7,3.6-14.2,5.4-22.3,5.4C827.5,469.8,818.9,467.3,811.3,462.4z"/>
		</defs>
		<defs>
			<path id="SVGID_48_" d="M941.1,316.9h31.1l50.7,148.9h-26.3l-10.3-33h-58.9l-10.9,33h-25.9L941.1,316.9z M980.6,412.4l-23.8-73.2
				l-24.2,73.2H980.6z"/>
		</defs>
		<clipPath id="SVGID_49_">
			<use xlink:href="#SVGID_43_"  style="overflow:visible;"/>
		</clipPath>
		<clipPath id="SVGID_50_" class="st13">
			<use xlink:href="#SVGID_44_"  style="overflow:visible;"/>
		</clipPath>
		<clipPath id="SVGID_51_" class="st14">
			<use xlink:href="#SVGID_45_"  style="overflow:visible;"/>
		</clipPath>
		<clipPath id="SVGID_52_" class="st15">
			<use xlink:href="#SVGID_46_"  style="overflow:visible;"/>
		</clipPath>
		<clipPath id="SVGID_53_" class="st16">
			<use xlink:href="#SVGID_47_"  style="overflow:visible;"/>
		</clipPath>
		<clipPath id="SVGID_54_" class="st17">
			<use xlink:href="#SVGID_48_"  style="overflow:visible;"/>
		</clipPath>
	</g>
	<g>
		<defs>
			<path id="SVGID_55_" d="M406.5,317.5h21.9L479,465.8h-18.1l-11.8-35.5h-63.1l-11.8,35.5H356L406.5,317.5z M444.5,414.7
				l-26.7-80.8l-27.3,80.8H444.5z"/>
		</defs>
		<defs>
			<path id="SVGID_56_" d="M506,465c-6.7-3.2-12-7.7-16.1-13.4c-4.1-5.7-6.3-12.2-6.7-19.5l15.6-3.6c0.3,5.3,1.8,10,4.4,14.1
				c2.7,4.1,6.2,7.1,10.7,9.3c4.5,2.1,9.5,3.2,14.9,3.2c4.8,0,9-0.7,12.8-2.1c3.8-1.4,6.8-3.5,9.1-6.2c2.3-2.7,3.5-5.7,3.5-8.9
				c0-3.6-1.3-6.6-3.8-8.9c-2.5-2.3-5.6-4.1-9.3-5.5c-3.6-1.3-8.4-2.8-14.3-4.3c-8.1-2.1-14.8-4.2-19.9-6.3
				c-5.1-2.1-9.4-5.2-12.9-9.4c-3.5-4.1-5.3-9.6-5.3-16.3c0-5.9,1.6-11.3,4.7-16.1c3.2-4.8,7.4-8.6,12.8-11.4
				c5.4-2.7,11.5-4.1,18.2-4.1c6.6,0,12.7,1.4,18.3,4.1c5.6,2.7,10.2,6.5,13.7,11.3c3.5,4.8,5.5,10.1,6.1,16l-15.6,4
				c-0.3-6.4-2.6-11.5-6.8-15.2c-4.3-3.7-9.6-5.6-16.1-5.6c-3.6,0-7,0.7-10,2.1c-3,1.4-5.4,3.4-7.1,5.9c-1.8,2.5-2.6,5.3-2.6,8.4
				c0,3.6,1.3,6.6,3.8,8.9c2.5,2.3,5.1,4,7.7,5c2.6,1.1,8,2.5,16.1,4.3c7.7,2.1,14.2,4.3,19.5,6.7c5.3,2.4,9.6,5.6,13.1,9.7
				c3.5,4.1,5.3,9.1,5.3,15.1c0,6.3-1.8,12-5.5,17.1c-3.6,5.1-8.6,9.1-14.8,12c-6.2,2.9-13.3,4.3-21.1,4.3
				C520.2,469.8,512.7,468.2,506,465z"/>
		</defs>
		<defs>
			<path id="SVGID_57_" d="M597,514c-6.6-2.8-12.4-6.8-17.3-12c-5-5.2-8.8-11.1-11.5-17.9l13.5-9c2.4,8.5,6.8,15.5,13.2,20.7
				c6.4,5.3,13.9,7.9,22.5,7.9c6.6,0,12.4-1.6,17.3-4.9c5-3.3,8.9-7.8,11.8-13.5c2.9-5.7,4.3-12.1,4.3-19.2l-0.2-14.3
				c-2,3.5-4.6,6.6-7.8,9.4c-3.2,2.7-6.8,4.9-10.7,6.4c-3.9,1.5-7.9,2.3-12,2.3c-7.3,0-13.8-1.8-19.5-5.4
				c-5.7-3.6-10.1-8.5-13.1-14.7c-3.1-6.2-4.6-13.4-4.6-21.6v-68.6h16v68.6c0,5.3,1,10,2.9,14c2,4,4.8,7.2,8.4,9.6
				c3.6,2.4,7.9,3.6,12.6,3.6c5.2,0,9.9-1.3,14.1-3.8c4.2-2.5,7.5-6,10-10.4c2.5-4.4,3.7-9.4,3.7-15v-66.5h16l0.2,106.4
				c0,10-2.1,18.9-6.3,26.8c-4.2,7.9-10,14.1-17.5,18.6c-7.4,4.5-15.8,6.7-25,6.7C610.6,518.2,603.6,516.8,597,514z"/>
		</defs>
		<defs>
			<path id="SVGID_58_" d="M687.9,359.6h14.5l1.5,14.1c2.9-5.5,7.2-9.8,12.8-13.1c5.6-3.3,11.5-4.9,17.7-4.9
				c7.3,0,13.8,1.8,19.5,5.5c5.7,3.6,10.1,8.6,13.2,14.8c3.2,6.2,4.7,13.4,4.7,21.4v68.6h-16.2v-68.6c0-5.2-0.9-9.8-2.8-13.9
				c-1.9-4.1-4.7-7.3-8.4-9.6c-3.7-2.3-8-3.5-12.7-3.5c-5,0-9.7,1.3-13.9,3.8c-4.2,2.5-7.6,6-10.1,10.4c-2.5,4.4-3.8,9.4-3.8,15
				v66.2h-16L687.9,359.6L687.9,359.6z"/>
		</defs>
		<defs>
			<path id="SVGID_59_" d="M811.3,462.4c-7.6-4.9-13.5-11.7-17.7-20.3c-4.2-8.6-6.2-18.4-6.1-29.3c0-11.1,1.9-20.9,5.8-29.6
				c3.9-8.6,9.3-15.4,16.3-20.3c7-4.9,15.1-7.4,24.2-7.4c7,0,13.5,1.5,19.3,4.6c5.9,3.1,10.8,7.3,14.8,12.5c4,5.3,6.8,11.4,8.3,18.4
				l-15.4,4.2c-2-7.7-5.4-13.9-10.2-18.5c-4.8-4.6-10.6-6.9-17.1-6.9c-5.6,0-10.7,1.8-15.4,5.5c-4.6,3.6-8.2,8.7-10.8,15.2
				c-2.6,6.5-3.9,13.9-3.9,22.2c0,8.3,1.4,15.6,4.3,22.1c2.9,6.5,6.9,11.5,12,15.2c5.1,3.7,10.9,5.6,17.3,5.6c5.6,0,10.7-1.3,15.2-4
				c4.6-2.7,8.3-6.4,11.1-11.1c2.9-4.8,4.7-10.2,5.6-16.2l15.4,3.4c-1.1,8.1-3.9,15.4-8.3,21.8c-4.4,6.4-10,11.4-16.7,14.9
				c-6.7,3.6-14.2,5.4-22.3,5.4C827.5,469.8,818.9,467.3,811.3,462.4z"/>
		</defs>
		<defs>
			<path id="SVGID_60_" d="M941.1,316.9h31.1l50.7,148.9h-26.3l-10.3-33h-58.9l-10.9,33h-25.9L941.1,316.9z M980.6,412.4l-23.8-73.2
				l-24.2,73.2H980.6z"/>
		</defs>
		<defs>
			<path id="SVGID_61_" d="M1037,316.9h58.5c10,0,18.9,2,26.7,5.9c7.8,3.9,14.1,9.4,18.6,16.4c4.6,7,6.8,15,6.8,24
				c0,9-2.2,16.9-6.7,23.9c-4.5,6.9-10.7,12.4-18.6,16.5c-7.9,4.1-16.8,6.1-26.6,6.1h-34.1v56.2H1037L1037,316.9L1037,316.9z
				 M1092.7,388.6c5.5,0,10.5-1.1,15-3.3c4.6-2.2,8.1-5.2,10.7-9c2.6-3.9,3.9-8.2,3.9-13.1s-1.3-9.3-3.8-13.1c-2.5-3.9-6-6.9-10.5-9
				c-4.5-2.2-9.6-3.3-15.3-3.3h-31.1v50.9L1092.7,388.6L1092.7,388.6z"/>
		</defs>
		<clipPath id="SVGID_62_">
			<use xlink:href="#SVGID_55_"  style="overflow:visible;"/>
		</clipPath>
		<clipPath id="SVGID_63_" class="st18">
			<use xlink:href="#SVGID_56_"  style="overflow:visible;"/>
		</clipPath>
		<clipPath id="SVGID_64_" class="st19">
			<use xlink:href="#SVGID_57_"  style="overflow:visible;"/>
		</clipPath>
		<clipPath id="SVGID_65_" class="st20">
			<use xlink:href="#SVGID_58_"  style="overflow:visible;"/>
		</clipPath>
		<clipPath id="SVGID_66_" class="st21">
			<use xlink:href="#SVGID_59_"  style="overflow:visible;"/>
		</clipPath>
		<clipPath id="SVGID_67_" class="st22">
			<use xlink:href="#SVGID_60_"  style="overflow:visible;"/>
		</clipPath>
		<clipPath id="SVGID_68_" class="st23">
			<use xlink:href="#SVGID_61_"  style="overflow:visible;"/>
		</clipPath>
	</g>
	<g>
		<defs>
			<path id="SVGID_69_" d="M406.5,317.5h21.9L479,465.8h-18.1l-11.8-35.5h-63.1l-11.8,35.5H356L406.5,317.5z M444.5,414.7
				l-26.7-80.8l-27.3,80.8H444.5z"/>
		</defs>
		<defs>
			<path id="SVGID_70_" d="M506,465c-6.7-3.2-12-7.7-16.1-13.4c-4.1-5.7-6.3-12.2-6.7-19.5l15.6-3.6c0.3,5.3,1.8,10,4.4,14.1
				c2.7,4.1,6.2,7.1,10.7,9.3c4.5,2.1,9.5,3.2,14.9,3.2c4.8,0,9-0.7,12.8-2.1c3.8-1.4,6.8-3.5,9.1-6.2c2.3-2.7,3.5-5.7,3.5-8.9
				c0-3.6-1.3-6.6-3.8-8.9c-2.5-2.3-5.6-4.1-9.3-5.5c-3.6-1.3-8.4-2.8-14.3-4.3c-8.1-2.1-14.8-4.2-19.9-6.3
				c-5.1-2.1-9.4-5.2-12.9-9.4c-3.5-4.1-5.3-9.6-5.3-16.3c0-5.9,1.6-11.3,4.7-16.1c3.2-4.8,7.4-8.6,12.8-11.4
				c5.4-2.7,11.5-4.1,18.2-4.1c6.6,0,12.7,1.4,18.3,4.1c5.6,2.7,10.2,6.5,13.7,11.3c3.5,4.8,5.5,10.1,6.1,16l-15.6,4
				c-0.3-6.4-2.6-11.5-6.8-15.2c-4.3-3.7-9.6-5.6-16.1-5.6c-3.6,0-7,0.7-10,2.1c-3,1.4-5.4,3.4-7.1,5.9c-1.8,2.5-2.6,5.3-2.6,8.4
				c0,3.6,1.3,6.6,3.8,8.9c2.5,2.3,5.1,4,7.7,5c2.6,1.1,8,2.5,16.1,4.3c7.7,2.1,14.2,4.3,19.5,6.7c5.3,2.4,9.6,5.6,13.1,9.7
				c3.5,4.1,5.3,9.1,5.3,15.1c0,6.3-1.8,12-5.5,17.1c-3.6,5.1-8.6,9.1-14.8,12c-6.2,2.9-13.3,4.3-21.1,4.3
				C520.2,469.8,512.7,468.2,506,465z"/>
		</defs>
		<defs>
			<path id="SVGID_71_" d="M597,514c-6.6-2.8-12.4-6.8-17.3-12c-5-5.2-8.8-11.1-11.5-17.9l13.5-9c2.4,8.5,6.8,15.5,13.2,20.7
				c6.4,5.3,13.9,7.9,22.5,7.9c6.6,0,12.4-1.6,17.3-4.9c5-3.3,8.9-7.8,11.8-13.5c2.9-5.7,4.3-12.1,4.3-19.2l-0.2-14.3
				c-2,3.5-4.6,6.6-7.8,9.4c-3.2,2.7-6.8,4.9-10.7,6.4c-3.9,1.5-7.9,2.3-12,2.3c-7.3,0-13.8-1.8-19.5-5.4
				c-5.7-3.6-10.1-8.5-13.1-14.7c-3.1-6.2-4.6-13.4-4.6-21.6v-68.6h16v68.6c0,5.3,1,10,2.9,14c2,4,4.8,7.2,8.4,9.6
				c3.6,2.4,7.9,3.6,12.6,3.6c5.2,0,9.9-1.3,14.1-3.8c4.2-2.5,7.5-6,10-10.4c2.5-4.4,3.7-9.4,3.7-15v-66.5h16l0.2,106.4
				c0,10-2.1,18.9-6.3,26.8c-4.2,7.9-10,14.1-17.5,18.6c-7.4,4.5-15.8,6.7-25,6.7C610.6,518.2,603.6,516.8,597,514z"/>
		</defs>
		<defs>
			<path id="SVGID_72_" d="M687.9,359.6h14.5l1.5,14.1c2.9-5.5,7.2-9.8,12.8-13.1c5.6-3.3,11.5-4.9,17.7-4.9
				c7.3,0,13.8,1.8,19.5,5.5c5.7,3.6,10.1,8.6,13.2,14.8c3.2,6.2,4.7,13.4,4.7,21.4v68.6h-16.2v-68.6c0-5.2-0.9-9.8-2.8-13.9
				c-1.9-4.1-4.7-7.3-8.4-9.6c-3.7-2.3-8-3.5-12.7-3.5c-5,0-9.7,1.3-13.9,3.8c-4.2,2.5-7.6,6-10.1,10.4c-2.5,4.4-3.8,9.4-3.8,15
				v66.2h-16L687.9,359.6L687.9,359.6z"/>
		</defs>
		<defs>
			<path id="SVGID_73_" d="M811.3,462.4c-7.6-4.9-13.5-11.7-17.7-20.3c-4.2-8.6-6.2-18.4-6.1-29.3c0-11.1,1.9-20.9,5.8-29.6
				c3.9-8.6,9.3-15.4,16.3-20.3c7-4.9,15.1-7.4,24.2-7.4c7,0,13.5,1.5,19.3,4.6c5.9,3.1,10.8,7.3,14.8,12.5c4,5.3,6.8,11.4,8.3,18.4
				l-15.4,4.2c-2-7.7-5.4-13.9-10.2-18.5c-4.8-4.6-10.6-6.9-17.1-6.9c-5.6,0-10.7,1.8-15.4,5.5c-4.6,3.6-8.2,8.7-10.8,15.2
				c-2.6,6.5-3.9,13.9-3.9,22.2c0,8.3,1.4,15.6,4.3,22.1c2.9,6.5,6.9,11.5,12,15.2c5.1,3.7,10.9,5.6,17.3,5.6c5.6,0,10.7-1.3,15.2-4
				c4.6-2.7,8.3-6.4,11.1-11.1c2.9-4.8,4.7-10.2,5.6-16.2l15.4,3.4c-1.1,8.1-3.9,15.4-8.3,21.8c-4.4,6.4-10,11.4-16.7,14.9
				c-6.7,3.6-14.2,5.4-22.3,5.4C827.5,469.8,818.9,467.3,811.3,462.4z"/>
		</defs>
		<defs>
			<path id="SVGID_74_" d="M941.1,316.9h31.1l50.7,148.9h-26.3l-10.3-33h-58.9l-10.9,33h-25.9L941.1,316.9z M980.6,412.4l-23.8-73.2
				l-24.2,73.2H980.6z"/>
		</defs>
		<defs>
			<path id="SVGID_75_" d="M1037,316.9h58.5c10,0,18.9,2,26.7,5.9c7.8,3.9,14.1,9.4,18.6,16.4c4.6,7,6.8,15,6.8,24
				c0,9-2.2,16.9-6.7,23.9c-4.5,6.9-10.7,12.4-18.6,16.5c-7.9,4.1-16.8,6.1-26.6,6.1h-34.1v56.2H1037L1037,316.9L1037,316.9z
				 M1092.7,388.6c5.5,0,10.5-1.1,15-3.3c4.6-2.2,8.1-5.2,10.7-9c2.6-3.9,3.9-8.2,3.9-13.1s-1.3-9.3-3.8-13.1c-2.5-3.9-6-6.9-10.5-9
				c-4.5-2.2-9.6-3.3-15.3-3.3h-31.1v50.9L1092.7,388.6L1092.7,388.6z"/>
		</defs>
		<defs>
			<rect id="SVGID_76_" x="1163.8" y="316.9" width="25.2" height="148.9"/>
		</defs>
		<clipPath id="SVGID_77_">
			<use xlink:href="#SVGID_69_"  style="overflow:visible;"/>
		</clipPath>
		<clipPath id="SVGID_78_" class="st24">
			<use xlink:href="#SVGID_70_"  style="overflow:visible;"/>
		</clipPath>
		<clipPath id="SVGID_79_" class="st25">
			<use xlink:href="#SVGID_71_"  style="overflow:visible;"/>
		</clipPath>
		<clipPath id="SVGID_80_" class="st26">
			<use xlink:href="#SVGID_72_"  style="overflow:visible;"/>
		</clipPath>
		<clipPath id="SVGID_81_" class="st27">
			<use xlink:href="#SVGID_73_"  style="overflow:visible;"/>
		</clipPath>
		<clipPath id="SVGID_82_" class="st28">
			<use xlink:href="#SVGID_74_"  style="overflow:visible;"/>
		</clipPath>
		<clipPath id="SVGID_83_" class="st29">
			<use xlink:href="#SVGID_75_"  style="overflow:visible;"/>
		</clipPath>
		<clipPath id="SVGID_84_" class="st30">
			<use xlink:href="#SVGID_76_"  style="overflow:visible;"/>
		</clipPath>
	</g>
	<g>
		<defs>
			<path id="SVGID_85_" d="M406.5,317.5h21.9L479,465.8h-18.1l-11.8-35.5h-63.1l-11.8,35.5H356L406.5,317.5z M444.5,414.7
				l-26.7-80.8l-27.3,80.8H444.5z"/>
		</defs>
		<defs>
			<path id="SVGID_86_" d="M506,465c-6.7-3.2-12-7.7-16.1-13.4c-4.1-5.7-6.3-12.2-6.7-19.5l15.6-3.6c0.3,5.3,1.8,10,4.4,14.1
				c2.7,4.1,6.2,7.1,10.7,9.3c4.5,2.1,9.5,3.2,14.9,3.2c4.8,0,9-0.7,12.8-2.1c3.8-1.4,6.8-3.5,9.1-6.2c2.3-2.7,3.5-5.7,3.5-8.9
				c0-3.6-1.3-6.6-3.8-8.9c-2.5-2.3-5.6-4.1-9.3-5.5c-3.6-1.3-8.4-2.8-14.3-4.3c-8.1-2.1-14.8-4.2-19.9-6.3
				c-5.1-2.1-9.4-5.2-12.9-9.4c-3.5-4.1-5.3-9.6-5.3-16.3c0-5.9,1.6-11.3,4.7-16.1c3.2-4.8,7.4-8.6,12.8-11.4
				c5.4-2.7,11.5-4.1,18.2-4.1c6.6,0,12.7,1.4,18.3,4.1c5.6,2.7,10.2,6.5,13.7,11.3c3.5,4.8,5.5,10.1,6.1,16l-15.6,4
				c-0.3-6.4-2.6-11.5-6.8-15.2c-4.3-3.7-9.6-5.6-16.1-5.6c-3.6,0-7,0.7-10,2.1c-3,1.4-5.4,3.4-7.1,5.9c-1.8,2.5-2.6,5.3-2.6,8.4
				c0,3.6,1.3,6.6,3.8,8.9c2.5,2.3,5.1,4,7.7,5c2.6,1.1,8,2.5,16.1,4.3c7.7,2.1,14.2,4.3,19.5,6.7c5.3,2.4,9.6,5.6,13.1,9.7
				c3.5,4.1,5.3,9.1,5.3,15.1c0,6.3-1.8,12-5.5,17.1c-3.6,5.1-8.6,9.1-14.8,12c-6.2,2.9-13.3,4.3-21.1,4.3
				C520.2,469.8,512.7,468.2,506,465z"/>
		</defs>
		<defs>
			<path id="SVGID_87_" d="M597,514c-6.6-2.8-12.4-6.8-17.3-12c-5-5.2-8.8-11.1-11.5-17.9l13.5-9c2.4,8.5,6.8,15.5,13.2,20.7
				c6.4,5.3,13.9,7.9,22.5,7.9c6.6,0,12.4-1.6,17.3-4.9c5-3.3,8.9-7.8,11.8-13.5c2.9-5.7,4.3-12.1,4.3-19.2l-0.2-14.3
				c-2,3.5-4.6,6.6-7.8,9.4c-3.2,2.7-6.8,4.9-10.7,6.4c-3.9,1.5-7.9,2.3-12,2.3c-7.3,0-13.8-1.8-19.5-5.4
				c-5.7-3.6-10.1-8.5-13.1-14.7c-3.1-6.2-4.6-13.4-4.6-21.6v-68.6h16v68.6c0,5.3,1,10,2.9,14c2,4,4.8,7.2,8.4,9.6
				c3.6,2.4,7.9,3.6,12.6,3.6c5.2,0,9.9-1.3,14.1-3.8c4.2-2.5,7.5-6,10-10.4c2.5-4.4,3.7-9.4,3.7-15v-66.5h16l0.2,106.4
				c0,10-2.1,18.9-6.3,26.8c-4.2,7.9-10,14.1-17.5,18.6c-7.4,4.5-15.8,6.7-25,6.7C610.6,518.2,603.6,516.8,597,514z"/>
		</defs>
		<defs>
			<path id="SVGID_88_" d="M687.9,359.6h14.5l1.5,14.1c2.9-5.5,7.2-9.8,12.8-13.1c5.6-3.3,11.5-4.9,17.7-4.9
				c7.3,0,13.8,1.8,19.5,5.5c5.7,3.6,10.1,8.6,13.2,14.8c3.2,6.2,4.7,13.4,4.7,21.4v68.6h-16.2v-68.6c0-5.2-0.9-9.8-2.8-13.9
				c-1.9-4.1-4.7-7.3-8.4-9.6c-3.7-2.3-8-3.5-12.7-3.5c-5,0-9.7,1.3-13.9,3.8c-4.2,2.5-7.6,6-10.1,10.4c-2.5,4.4-3.8,9.4-3.8,15
				v66.2h-16L687.9,359.6L687.9,359.6z"/>
		</defs>
		<defs>
			<path id="SVGID_89_" d="M811.3,462.4c-7.6-4.9-13.5-11.7-17.7-20.3c-4.2-8.6-6.2-18.4-6.1-29.3c0-11.1,1.9-20.9,5.8-29.6
				c3.9-8.6,9.3-15.4,16.3-20.3c7-4.9,15.1-7.4,24.2-7.4c7,0,13.5,1.5,19.3,4.6c5.9,3.1,10.8,7.3,14.8,12.5c4,5.3,6.8,11.4,8.3,18.4
				l-15.4,4.2c-2-7.7-5.4-13.9-10.2-18.5c-4.8-4.6-10.6-6.9-17.1-6.9c-5.6,0-10.7,1.8-15.4,5.5c-4.6,3.6-8.2,8.7-10.8,15.2
				c-2.6,6.5-3.9,13.9-3.9,22.2c0,8.3,1.4,15.6,4.3,22.1c2.9,6.5,6.9,11.5,12,15.2c5.1,3.7,10.9,5.6,17.3,5.6c5.6,0,10.7-1.3,15.2-4
				c4.6-2.7,8.3-6.4,11.1-11.1c2.9-4.8,4.7-10.2,5.6-16.2l15.4,3.4c-1.1,8.1-3.9,15.4-8.3,21.8c-4.4,6.4-10,11.4-16.7,14.9
				c-6.7,3.6-14.2,5.4-22.3,5.4C827.5,469.8,818.9,467.3,811.3,462.4z"/>
		</defs>
		<defs>
			<path id="SVGID_90_" d="M941.1,316.9h31.1l50.7,148.9h-26.3l-10.3-33h-58.9l-10.9,33h-25.9L941.1,316.9z M980.6,412.4l-23.8-73.2
				l-24.2,73.2H980.6z"/>
		</defs>
		<defs>
			<path id="SVGID_91_" d="M1037,316.9h58.5c10,0,18.9,2,26.7,5.9c7.8,3.9,14.1,9.4,18.6,16.4c4.6,7,6.8,15,6.8,24
				c0,9-2.2,16.9-6.7,23.9c-4.5,6.9-10.7,12.4-18.6,16.5c-7.9,4.1-16.8,6.1-26.6,6.1h-34.1v56.2H1037L1037,316.9L1037,316.9z
				 M1092.7,388.6c5.5,0,10.5-1.1,15-3.3c4.6-2.2,8.1-5.2,10.7-9c2.6-3.9,3.9-8.2,3.9-13.1s-1.3-9.3-3.8-13.1c-2.5-3.9-6-6.9-10.5-9
				c-4.5-2.2-9.6-3.3-15.3-3.3h-31.1v50.9L1092.7,388.6L1092.7,388.6z"/>
		</defs>
		<defs>
			<rect id="SVGID_92_" x="1163.8" y="316.9" width="25.2" height="148.9"/>
		</defs>
		<defs>
			<path id="SVGID_93_" d="M181.5,524.5c-48.9,0-88.8-29.7-88.8-66.2h17.6c0,26.8,31.9,48.6,71.2,48.6s71.2-21.8,71.2-48.6h17.6
				C270.2,494.8,230.4,524.5,181.5,524.5z"/>
		</defs>
		<clipPath id="SVGID_94_">
			<use xlink:href="#SVGID_85_"  style="overflow:visible;"/>
		</clipPath>
		<clipPath id="SVGID_95_" class="st31">
			<use xlink:href="#SVGID_86_"  style="overflow:visible;"/>
		</clipPath>
		<clipPath id="SVGID_96_" class="st32">
			<use xlink:href="#SVGID_87_"  style="overflow:visible;"/>
		</clipPath>
		<clipPath id="SVGID_97_" class="st33">
			<use xlink:href="#SVGID_88_"  style="overflow:visible;"/>
		</clipPath>
		<clipPath id="SVGID_98_" class="st34">
			<use xlink:href="#SVGID_89_"  style="overflow:visible;"/>
		</clipPath>
		<clipPath id="SVGID_99_" class="st35">
			<use xlink:href="#SVGID_90_"  style="overflow:visible;"/>
		</clipPath>
		<clipPath id="SVGID_100_" class="st36">
			<use xlink:href="#SVGID_91_"  style="overflow:visible;"/>
		</clipPath>
		<clipPath id="SVGID_101_" class="st37">
			<use xlink:href="#SVGID_92_"  style="overflow:visible;"/>
		</clipPath>
		<clipPath id="SVGID_102_" class="st38">
			<use xlink:href="#SVGID_93_"  style="overflow:visible;"/>
		</clipPath>
	</g>
	<g>
		<defs>
			<path id="SVGID_103_" d="M406.5,317.5h21.9L479,465.8h-18.1l-11.8-35.5h-63.1l-11.8,35.5H356L406.5,317.5z M444.5,414.7
				l-26.7-80.8l-27.3,80.8H444.5z"/>
		</defs>
		<defs>
			<path id="SVGID_104_" d="M506,465c-6.7-3.2-12-7.7-16.1-13.4c-4.1-5.7-6.3-12.2-6.7-19.5l15.6-3.6c0.3,5.3,1.8,10,4.4,14.1
				c2.7,4.1,6.2,7.1,10.7,9.3c4.5,2.1,9.5,3.2,14.9,3.2c4.8,0,9-0.7,12.8-2.1c3.8-1.4,6.8-3.5,9.1-6.2c2.3-2.7,3.5-5.7,3.5-8.9
				c0-3.6-1.3-6.6-3.8-8.9c-2.5-2.3-5.6-4.1-9.3-5.5c-3.6-1.3-8.4-2.8-14.3-4.3c-8.1-2.1-14.8-4.2-19.9-6.3
				c-5.1-2.1-9.4-5.2-12.9-9.4c-3.5-4.1-5.3-9.6-5.3-16.3c0-5.9,1.6-11.3,4.7-16.1c3.2-4.8,7.4-8.6,12.8-11.4
				c5.4-2.7,11.5-4.1,18.2-4.1c6.6,0,12.7,1.4,18.3,4.1c5.6,2.7,10.2,6.5,13.7,11.3c3.5,4.8,5.5,10.1,6.1,16l-15.6,4
				c-0.3-6.4-2.6-11.5-6.8-15.2c-4.3-3.7-9.6-5.6-16.1-5.6c-3.6,0-7,0.7-10,2.1c-3,1.4-5.4,3.4-7.1,5.9c-1.8,2.5-2.6,5.3-2.6,8.4
				c0,3.6,1.3,6.6,3.8,8.9c2.5,2.3,5.1,4,7.7,5c2.6,1.1,8,2.5,16.1,4.3c7.7,2.1,14.2,4.3,19.5,6.7c5.3,2.4,9.6,5.6,13.1,9.7
				c3.5,4.1,5.3,9.1,5.3,15.1c0,6.3-1.8,12-5.5,17.1c-3.6,5.1-8.6,9.1-14.8,12c-6.2,2.9-13.3,4.3-21.1,4.3
				C520.2,469.8,512.7,468.2,506,465z"/>
		</defs>
		<defs>
			<path id="SVGID_105_" d="M597,514c-6.6-2.8-12.4-6.8-17.3-12c-5-5.2-8.8-11.1-11.5-17.9l13.5-9c2.4,8.5,6.8,15.5,13.2,20.7
				c6.4,5.3,13.9,7.9,22.5,7.9c6.6,0,12.4-1.6,17.3-4.9c5-3.3,8.9-7.8,11.8-13.5c2.9-5.7,4.3-12.1,4.3-19.2l-0.2-14.3
				c-2,3.5-4.6,6.6-7.8,9.4c-3.2,2.7-6.8,4.9-10.7,6.4c-3.9,1.5-7.9,2.3-12,2.3c-7.3,0-13.8-1.8-19.5-5.4
				c-5.7-3.6-10.1-8.5-13.1-14.7c-3.1-6.2-4.6-13.4-4.6-21.6v-68.6h16v68.6c0,5.3,1,10,2.9,14c2,4,4.8,7.2,8.4,9.6
				c3.6,2.4,7.9,3.6,12.6,3.6c5.2,0,9.9-1.3,14.1-3.8c4.2-2.5,7.5-6,10-10.4c2.5-4.4,3.7-9.4,3.7-15v-66.5h16l0.2,106.4
				c0,10-2.1,18.9-6.3,26.8c-4.2,7.9-10,14.1-17.5,18.6c-7.4,4.5-15.8,6.7-25,6.7C610.6,518.2,603.6,516.8,597,514z"/>
		</defs>
		<defs>
			<path id="SVGID_106_" d="M687.9,359.6h14.5l1.5,14.1c2.9-5.5,7.2-9.8,12.8-13.1c5.6-3.3,11.5-4.9,17.7-4.9
				c7.3,0,13.8,1.8,19.5,5.5c5.7,3.6,10.1,8.6,13.2,14.8c3.2,6.2,4.7,13.4,4.7,21.4v68.6h-16.2v-68.6c0-5.2-0.9-9.8-2.8-13.9
				c-1.9-4.1-4.7-7.3-8.4-9.6c-3.7-2.3-8-3.5-12.7-3.5c-5,0-9.7,1.3-13.9,3.8c-4.2,2.5-7.6,6-10.1,10.4c-2.5,4.4-3.8,9.4-3.8,15
				v66.2h-16L687.9,359.6L687.9,359.6z"/>
		</defs>
		<defs>
			<path id="SVGID_107_" d="M811.3,462.4c-7.6-4.9-13.5-11.7-17.7-20.3c-4.2-8.6-6.2-18.4-6.1-29.3c0-11.1,1.9-20.9,5.8-29.6
				c3.9-8.6,9.3-15.4,16.3-20.3c7-4.9,15.1-7.4,24.2-7.4c7,0,13.5,1.5,19.3,4.6c5.9,3.1,10.8,7.3,14.8,12.5c4,5.3,6.8,11.4,8.3,18.4
				l-15.4,4.2c-2-7.7-5.4-13.9-10.2-18.5c-4.8-4.6-10.6-6.9-17.1-6.9c-5.6,0-10.7,1.8-15.4,5.5c-4.6,3.6-8.2,8.7-10.8,15.2
				c-2.6,6.5-3.9,13.9-3.9,22.2c0,8.3,1.4,15.6,4.3,22.1c2.9,6.5,6.9,11.5,12,15.2c5.1,3.7,10.9,5.6,17.3,5.6c5.6,0,10.7-1.3,15.2-4
				c4.6-2.7,8.3-6.4,11.1-11.1c2.9-4.8,4.7-10.2,5.6-16.2l15.4,3.4c-1.1,8.1-3.9,15.4-8.3,21.8c-4.4,6.4-10,11.4-16.7,14.9
				c-6.7,3.6-14.2,5.4-22.3,5.4C827.5,469.8,818.9,467.3,811.3,462.4z"/>
		</defs>
		<defs>
			<path id="SVGID_108_" d="M941.1,316.9h31.1l50.7,148.9h-26.3l-10.3-33h-58.9l-10.9,33h-25.9L941.1,316.9z M980.6,412.4
				l-23.8-73.2l-24.2,73.2H980.6z"/>
		</defs>
		<defs>
			<path id="SVGID_109_" d="M1037,316.9h58.5c10,0,18.9,2,26.7,5.9c7.8,3.9,14.1,9.4,18.6,16.4c4.6,7,6.8,15,6.8,24
				c0,9-2.2,16.9-6.7,23.9c-4.5,6.9-10.7,12.4-18.6,16.5c-7.9,4.1-16.8,6.1-26.6,6.1h-34.1v56.2H1037L1037,316.9L1037,316.9z
				 M1092.7,388.6c5.5,0,10.5-1.1,15-3.3c4.6-2.2,8.1-5.2,10.7-9c2.6-3.9,3.9-8.2,3.9-13.1s-1.3-9.3-3.8-13.1c-2.5-3.9-6-6.9-10.5-9
				c-4.5-2.2-9.6-3.3-15.3-3.3h-31.1v50.9L1092.7,388.6L1092.7,388.6z"/>
		</defs>
		<defs>
			<rect id="SVGID_110_" x="1163.8" y="316.9" width="25.2" height="148.9"/>
		</defs>
		<defs>
			<path id="SVGID_111_" d="M181.5,524.5c-48.9,0-88.8-29.7-88.8-66.2h17.6c0,26.8,31.9,48.6,71.2,48.6s71.2-21.8,71.2-48.6h17.6
				C270.2,494.8,230.4,524.5,181.5,524.5z"/>
		</defs>
		<defs>
			<path id="SVGID_112_" d="M270.2,342.9h-17.6c0-26.8-31.9-48.6-71.2-48.6s-71.2,21.8-71.2,48.6H92.7c0-36.5,39.8-66.2,88.8-66.2
				C230.4,276.7,270.2,306.4,270.2,342.9z"/>
		</defs>
		<clipPath id="SVGID_113_">
			<use xlink:href="#SVGID_103_"  style="overflow:visible;"/>
		</clipPath>
		<clipPath id="SVGID_114_" class="st39">
			<use xlink:href="#SVGID_104_"  style="overflow:visible;"/>
		</clipPath>
		<clipPath id="SVGID_115_" class="st40">
			<use xlink:href="#SVGID_105_"  style="overflow:visible;"/>
		</clipPath>
		<clipPath id="SVGID_116_" class="st41">
			<use xlink:href="#SVGID_106_"  style="overflow:visible;"/>
		</clipPath>
		<clipPath id="SVGID_117_" class="st42">
			<use xlink:href="#SVGID_107_"  style="overflow:visible;"/>
		</clipPath>
		<clipPath id="SVGID_118_" class="st43">
			<use xlink:href="#SVGID_108_"  style="overflow:visible;"/>
		</clipPath>
		<clipPath id="SVGID_119_" class="st44">
			<use xlink:href="#SVGID_109_"  style="overflow:visible;"/>
		</clipPath>
		<clipPath id="SVGID_120_" class="st45">
			<use xlink:href="#SVGID_110_"  style="overflow:visible;"/>
		</clipPath>
		<clipPath id="SVGID_121_" class="st46">
			<use xlink:href="#SVGID_111_"  style="overflow:visible;"/>
		</clipPath>
		<clipPath id="SVGID_122_" class="st47">
			<use xlink:href="#SVGID_112_"  style="overflow:visible;"/>
		</clipPath>
	</g>
	<g>
		<defs>
			<path id="SVGID_123_" d="M406.5,317.5h21.9L479,465.8h-18.1l-11.8-35.5h-63.1l-11.8,35.5H356L406.5,317.5z M444.5,414.7
				l-26.7-80.8l-27.3,80.8H444.5z"/>
		</defs>
		<defs>
			<path id="SVGID_124_" d="M506,465c-6.7-3.2-12-7.7-16.1-13.4c-4.1-5.7-6.3-12.2-6.7-19.5l15.6-3.6c0.3,5.3,1.8,10,4.4,14.1
				c2.7,4.1,6.2,7.1,10.7,9.3c4.5,2.1,9.5,3.2,14.9,3.2c4.8,0,9-0.7,12.8-2.1c3.8-1.4,6.8-3.5,9.1-6.2c2.3-2.7,3.5-5.7,3.5-8.9
				c0-3.6-1.3-6.6-3.8-8.9c-2.5-2.3-5.6-4.1-9.3-5.5c-3.6-1.3-8.4-2.8-14.3-4.3c-8.1-2.1-14.8-4.2-19.9-6.3
				c-5.1-2.1-9.4-5.2-12.9-9.4c-3.5-4.1-5.3-9.6-5.3-16.3c0-5.9,1.6-11.3,4.7-16.1c3.2-4.8,7.4-8.6,12.8-11.4
				c5.4-2.7,11.5-4.1,18.2-4.1c6.6,0,12.7,1.4,18.3,4.1c5.6,2.7,10.2,6.5,13.7,11.3c3.5,4.8,5.5,10.1,6.1,16l-15.6,4
				c-0.3-6.4-2.6-11.5-6.8-15.2c-4.3-3.7-9.6-5.6-16.1-5.6c-3.6,0-7,0.7-10,2.1c-3,1.4-5.4,3.4-7.1,5.9c-1.8,2.5-2.6,5.3-2.6,8.4
				c0,3.6,1.3,6.6,3.8,8.9c2.5,2.3,5.1,4,7.7,5c2.6,1.1,8,2.5,16.1,4.3c7.7,2.1,14.2,4.3,19.5,6.7c5.3,2.4,9.6,5.6,13.1,9.7
				c3.5,4.1,5.3,9.1,5.3,15.1c0,6.3-1.8,12-5.5,17.1c-3.6,5.1-8.6,9.1-14.8,12c-6.2,2.9-13.3,4.3-21.1,4.3
				C520.2,469.8,512.7,468.2,506,465z"/>
		</defs>
		<defs>
			<path id="SVGID_125_" d="M597,514c-6.6-2.8-12.4-6.8-17.3-12c-5-5.2-8.8-11.1-11.5-17.9l13.5-9c2.4,8.5,6.8,15.5,13.2,20.7
				c6.4,5.3,13.9,7.9,22.5,7.9c6.6,0,12.4-1.6,17.3-4.9c5-3.3,8.9-7.8,11.8-13.5c2.9-5.7,4.3-12.1,4.3-19.2l-0.2-14.3
				c-2,3.5-4.6,6.6-7.8,9.4c-3.2,2.7-6.8,4.9-10.7,6.4c-3.9,1.5-7.9,2.3-12,2.3c-7.3,0-13.8-1.8-19.5-5.4
				c-5.7-3.6-10.1-8.5-13.1-14.7c-3.1-6.2-4.6-13.4-4.6-21.6v-68.6h16v68.6c0,5.3,1,10,2.9,14c2,4,4.8,7.2,8.4,9.6
				c3.6,2.4,7.9,3.6,12.6,3.6c5.2,0,9.9-1.3,14.1-3.8c4.2-2.5,7.5-6,10-10.4c2.5-4.4,3.7-9.4,3.7-15v-66.5h16l0.2,106.4
				c0,10-2.1,18.9-6.3,26.8c-4.2,7.9-10,14.1-17.5,18.6c-7.4,4.5-15.8,6.7-25,6.7C610.6,518.2,603.6,516.8,597,514z"/>
		</defs>
		<defs>
			<path id="SVGID_126_" d="M687.9,359.6h14.5l1.5,14.1c2.9-5.5,7.2-9.8,12.8-13.1c5.6-3.3,11.5-4.9,17.7-4.9
				c7.3,0,13.8,1.8,19.5,5.5c5.7,3.6,10.1,8.6,13.2,14.8c3.2,6.2,4.7,13.4,4.7,21.4v68.6h-16.2v-68.6c0-5.2-0.9-9.8-2.8-13.9
				c-1.9-4.1-4.7-7.3-8.4-9.6c-3.7-2.3-8-3.5-12.7-3.5c-5,0-9.7,1.3-13.9,3.8c-4.2,2.5-7.6,6-10.1,10.4c-2.5,4.4-3.8,9.4-3.8,15
				v66.2h-16L687.9,359.6L687.9,359.6z"/>
		</defs>
		<defs>
			<path id="SVGID_127_" d="M811.3,462.4c-7.6-4.9-13.5-11.7-17.7-20.3c-4.2-8.6-6.2-18.4-6.1-29.3c0-11.1,1.9-20.9,5.8-29.6
				c3.9-8.6,9.3-15.4,16.3-20.3c7-4.9,15.1-7.4,24.2-7.4c7,0,13.5,1.5,19.3,4.6c5.9,3.1,10.8,7.3,14.8,12.5c4,5.3,6.8,11.4,8.3,18.4
				l-15.4,4.2c-2-7.7-5.4-13.9-10.2-18.5c-4.8-4.6-10.6-6.9-17.1-6.9c-5.6,0-10.7,1.8-15.4,5.5c-4.6,3.6-8.2,8.7-10.8,15.2
				c-2.6,6.5-3.9,13.9-3.9,22.2c0,8.3,1.4,15.6,4.3,22.1c2.9,6.5,6.9,11.5,12,15.2c5.1,3.7,10.9,5.6,17.3,5.6c5.6,0,10.7-1.3,15.2-4
				c4.6-2.7,8.3-6.4,11.1-11.1c2.9-4.8,4.7-10.2,5.6-16.2l15.4,3.4c-1.1,8.1-3.9,15.4-8.3,21.8c-4.4,6.4-10,11.4-16.7,14.9
				c-6.7,3.6-14.2,5.4-22.3,5.4C827.5,469.8,818.9,467.3,811.3,462.4z"/>
		</defs>
		<defs>
			<path id="SVGID_128_" d="M941.1,316.9h31.1l50.7,148.9h-26.3l-10.3-33h-58.9l-10.9,33h-25.9L941.1,316.9z M980.6,412.4
				l-23.8-73.2l-24.2,73.2H980.6z"/>
		</defs>
		<defs>
			<path id="SVGID_129_" d="M1037,316.9h58.5c10,0,18.9,2,26.7,5.9c7.8,3.9,14.1,9.4,18.6,16.4c4.6,7,6.8,15,6.8,24
				c0,9-2.2,16.9-6.7,23.9c-4.5,6.9-10.7,12.4-18.6,16.5c-7.9,4.1-16.8,6.1-26.6,6.1h-34.1v56.2H1037L1037,316.9L1037,316.9z
				 M1092.7,388.6c5.5,0,10.5-1.1,15-3.3c4.6-2.2,8.1-5.2,10.7-9c2.6-3.9,3.9-8.2,3.9-13.1s-1.3-9.3-3.8-13.1c-2.5-3.9-6-6.9-10.5-9
				c-4.5-2.2-9.6-3.3-15.3-3.3h-31.1v50.9L1092.7,388.6L1092.7,388.6z"/>
		</defs>
		<defs>
			<rect id="SVGID_130_" x="1163.8" y="316.9" width="25.2" height="148.9"/>
		</defs>
		<defs>
			<path id="SVGID_131_" d="M181.5,524.5c-48.9,0-88.8-29.7-88.8-66.2h17.6c0,26.8,31.9,48.6,71.2,48.6s71.2-21.8,71.2-48.6h17.6
				C270.2,494.8,230.4,524.5,181.5,524.5z"/>
		</defs>
		<defs>
			<path id="SVGID_132_" d="M270.2,342.9h-17.6c0-26.8-31.9-48.6-71.2-48.6s-71.2,21.8-71.2,48.6H92.7c0-36.5,39.8-66.2,88.8-66.2
				C230.4,276.7,270.2,306.4,270.2,342.9z"/>
		</defs>
		<defs>
			
				<rect id="SVGID_133_" x="146.6" y="344.2" transform="matrix(0.5866 -0.8099 0.8099 0.5866 -260.2504 291.4493)" width="17.6" height="112.9"/>
		</defs>
		<clipPath id="SVGID_134_">
			<use xlink:href="#SVGID_123_"  style="overflow:visible;"/>
		</clipPath>
		<clipPath id="SVGID_135_" class="st48">
			<use xlink:href="#SVGID_124_"  style="overflow:visible;"/>
		</clipPath>
		<clipPath id="SVGID_136_" class="st49">
			<use xlink:href="#SVGID_125_"  style="overflow:visible;"/>
		</clipPath>
		<clipPath id="SVGID_137_" class="st50">
			<use xlink:href="#SVGID_126_"  style="overflow:visible;"/>
		</clipPath>
		<clipPath id="SVGID_138_" class="st51">
			<use xlink:href="#SVGID_127_"  style="overflow:visible;"/>
		</clipPath>
		<clipPath id="SVGID_139_" class="st52">
			<use xlink:href="#SVGID_128_"  style="overflow:visible;"/>
		</clipPath>
		<clipPath id="SVGID_140_" class="st53">
			<use xlink:href="#SVGID_129_"  style="overflow:visible;"/>
		</clipPath>
		<clipPath id="SVGID_141_" class="st54">
			<use xlink:href="#SVGID_130_"  style="overflow:visible;"/>
		</clipPath>
		<clipPath id="SVGID_142_" class="st55">
			<use xlink:href="#SVGID_131_"  style="overflow:visible;"/>
		</clipPath>
		<clipPath id="SVGID_143_" class="st56">
			<use xlink:href="#SVGID_132_"  style="overflow:visible;"/>
		</clipPath>
		<clipPath id="SVGID_144_" class="st57">
			<use xlink:href="#SVGID_133_"  style="overflow:visible;"/>
		</clipPath>
	</g>
</g>
</svg>
