<svg width="545" height="146" viewBox="0 0 545 146" fill="none" xmlns="http://www.w3.org/2000/svg">
<path d="M109.17 145.74H36.5699C26.875 145.727 17.581 141.87 10.7257 135.014C3.87037 128.159 0.0132282 118.865 0 109.17V36.57C0.0132282 26.8751 3.87037 17.581 10.7257 10.7257C17.581 3.87037 26.875 0.0132282 36.5699 0H109.17C118.866 0.0105877 128.161 3.8669 135.017 10.7228C141.873 17.5787 145.729 26.8743 145.74 36.57V109.17C145.729 118.866 141.873 128.161 135.017 135.017C128.161 141.873 118.866 145.729 109.17 145.74ZM36.5699 8C28.996 8.01058 21.7353 11.024 16.3796 16.3796C11.024 21.7353 8.01058 28.996 8 36.57V109.17C8.01058 116.744 11.024 124.005 16.3796 129.36C21.7353 134.716 28.996 137.729 36.5699 137.74H109.17C116.744 137.729 124.005 134.716 129.36 129.36C134.716 124.005 137.729 116.744 137.74 109.17V36.57C137.729 28.996 134.716 21.7353 129.36 16.3796C124.005 11.024 116.744 8.01058 109.17 8H36.5699Z" fill="url(#paint0_linear_450_1277)"/>
<path d="M48.47 58.33L44.37 63.98L60.38 75.6L76.39 87.22L76.6 87.38L80.7 81.73L48.47 58.33Z" fill="url(#paint1_linear_450_1277)"/>
<path d="M69.17 58.33L65.07 63.98L97.31 87.38L101.41 81.73L69.17 58.33Z" fill="url(#paint2_linear_450_1277)"/>
<path d="M72.9 29.41C55.54 29.41 41.42 40.2001 41.42 53.4601V53.73H48.42V53.4601C48.42 44.0501 59.42 36.39 72.92 36.39C86.42 36.39 97.42 44.0501 97.42 53.4601V53.73H104.42V53.4601C104.38 40.2001 90.26 29.41 72.9 29.41Z" fill="url(#paint3_linear_450_1277)"/>
<path d="M97.35 92.28C97.35 101.69 86.35 109.35 72.84 109.35C59.33 109.35 48.34 101.69 48.34 92.28V92.01H41.34V92.28C41.34 105.54 55.4599 116.33 72.8199 116.33C90.1799 116.33 104.3 105.54 104.3 92.28V92.01H97.3L97.35 92.28Z" fill="url(#paint4_linear_450_1277)"/>
<path d="M222.68 31.92C229.872 31.92 236.072 33.408 241.28 36.384C246.488 39.2773 250.828 43.576 254.3 49.28L245.992 55.728C242.933 50.4373 239.461 46.7173 235.576 44.568C231.773 42.336 227.144 41.22 221.688 41.22C217.307 41.22 213.669 41.84 210.776 43.08C207.965 44.32 205.899 45.9733 204.576 48.04C203.253 50.024 202.592 52.2973 202.592 54.86C202.592 57.7533 203.501 60.316 205.32 62.548C207.139 64.6973 210.776 66.392 216.232 67.632L233.964 71.6C241.817 73.336 247.273 75.9813 250.332 79.536C253.473 83.008 255.044 87.348 255.044 92.556C255.044 97.1853 253.721 101.319 251.076 104.956C248.513 108.511 244.876 111.28 240.164 113.264C235.452 115.248 229.913 116.24 223.548 116.24C217.596 116.24 212.347 115.455 207.8 113.884C203.336 112.231 199.492 110.04 196.268 107.312C193.044 104.584 190.399 101.525 188.332 98.136L197.012 91.068C198.583 94.2093 200.608 96.9787 203.088 99.376C205.568 101.773 208.544 103.633 212.016 104.956C215.571 106.279 219.621 106.94 224.168 106.94C228.384 106.94 232.021 106.444 235.08 105.452C238.221 104.377 240.619 102.848 242.272 100.864C243.925 98.7973 244.752 96.3173 244.752 93.424C244.752 90.7786 243.884 88.4227 242.148 86.356C240.412 84.2067 237.147 82.5946 232.352 81.52L213.132 77.18C208.089 76.0227 203.997 74.452 200.856 72.468C197.797 70.4013 195.565 68.004 194.16 65.276C192.837 62.4653 192.176 59.448 192.176 56.224C192.176 51.8426 193.375 47.8333 195.772 44.196C198.252 40.476 201.765 37.5 206.312 35.268C210.941 33.036 216.397 31.92 222.68 31.92Z" fill="white"/>
<path d="M282.402 35.392V97.888C282.402 100.947 283.27 103.22 285.006 104.708C286.742 106.196 288.974 106.94 291.702 106.94C294.099 106.94 296.166 106.527 297.902 105.7C299.638 104.873 301.208 103.757 302.614 102.352L306.086 110.66C304.184 112.396 301.911 113.76 299.266 114.752C296.703 115.744 293.727 116.24 290.338 116.24C287.196 116.24 284.262 115.703 281.534 114.628C278.806 113.471 276.615 111.693 274.962 109.296C273.391 106.816 272.564 103.592 272.482 99.624V38.12L282.402 35.392ZM304.97 53V61.556H282.526H260.082V53H304.97Z" fill="white"/>
<path d="M335.963 116.24C331.995 116.24 328.233 115.496 324.679 114.008C321.207 112.52 318.355 110.123 316.123 106.816C313.973 103.427 312.899 99.0453 312.899 93.672V53H322.819V91.068C322.819 97.3507 324.183 101.691 326.911 104.088C329.639 106.403 333.483 107.56 338.443 107.56C340.757 107.56 343.031 107.188 345.263 106.444C347.495 105.617 349.479 104.377 351.215 102.724C353.033 100.988 354.439 98.7973 355.431 96.152C356.505 93.5067 357.043 90.3653 357.043 86.728V53H366.963V115H358.283L357.663 105.576C355.513 109.296 352.579 112.024 348.859 113.76C345.221 115.413 340.923 116.24 335.963 116.24Z" fill="white"/>
<path d="M408.03 116.24C402.905 116.24 398.193 114.959 393.894 112.396C389.595 109.833 386.165 106.155 383.602 101.36C381.039 96.4827 379.758 90.696 379.758 84C379.758 77.1387 381.122 71.3107 383.85 66.516C386.578 61.7213 390.174 58.084 394.638 55.604C399.102 53.0413 403.897 51.76 409.022 51.76C414.147 51.76 418.57 53.0826 422.29 55.728C426.093 58.3733 428.614 61.8866 429.854 66.268L428.614 67.136V24.48H438.534V115H429.854L428.986 99.996L430.35 99.252C429.771 102.889 428.366 105.989 426.134 108.552C423.985 111.032 421.298 112.933 418.074 114.256C414.933 115.579 411.585 116.24 408.03 116.24ZM409.022 107.56C412.99 107.56 416.421 106.568 419.314 104.584C422.29 102.6 424.563 99.7893 426.134 96.152C427.787 92.432 428.614 88.092 428.614 83.132C428.614 78.42 427.787 74.3693 426.134 70.98C424.563 67.5906 422.331 64.9866 419.438 63.168C416.627 61.3493 413.321 60.44 409.518 60.44C403.235 60.44 398.358 62.5893 394.886 66.888C391.414 71.1867 389.678 76.8906 389.678 84C389.678 91.1093 391.373 96.8133 394.762 101.112C398.151 105.411 402.905 107.56 409.022 107.56Z" fill="white"/>
<path d="M460.352 41.096C458.12 41.096 456.302 40.4346 454.896 39.112C453.574 37.7066 452.912 35.888 452.912 33.656C452.912 31.424 453.574 29.6466 454.896 28.324C456.302 26.9186 458.12 26.216 460.352 26.216C462.584 26.216 464.362 26.9186 465.684 28.324C467.09 29.6466 467.792 31.424 467.792 33.656C467.792 35.888 467.09 37.7066 465.684 39.112C464.362 40.4346 462.584 41.096 460.352 41.096ZM465.312 53V115H455.392V53H465.312Z" fill="white"/>
<path d="M507.798 51.76C513.667 51.76 518.834 53.0413 523.298 55.604C527.844 58.1666 531.399 61.8867 533.962 66.764C536.524 71.5587 537.806 77.304 537.806 84C537.806 90.696 536.524 96.4827 533.962 101.36C531.399 106.155 527.844 109.833 523.298 112.396C518.834 114.959 513.667 116.24 507.798 116.24C502.011 116.24 496.844 114.959 492.298 112.396C487.751 109.833 484.196 106.155 481.634 101.36C479.071 96.4827 477.79 90.696 477.79 84C477.79 77.304 479.071 71.5587 481.634 66.764C484.196 61.8867 487.751 58.1666 492.298 55.604C496.844 53.0413 502.011 51.76 507.798 51.76ZM507.798 60.316C503.582 60.316 499.986 61.2667 497.01 63.168C494.034 65.0693 491.719 67.7973 490.066 71.352C488.495 74.824 487.71 79.04 487.71 84C487.71 88.8773 488.495 93.0933 490.066 96.648C491.719 100.203 494.034 102.931 497.01 104.832C499.986 106.733 503.582 107.684 507.798 107.684C512.014 107.684 515.61 106.733 518.586 104.832C521.562 102.931 523.835 100.203 525.406 96.648C527.059 93.0933 527.886 88.8773 527.886 84C527.886 79.04 527.059 74.824 525.406 71.352C523.835 67.7973 521.562 65.0693 518.586 63.168C515.61 61.2667 512.014 60.316 507.798 60.316Z" fill="white"/>
<defs>
<linearGradient id="paint0_linear_450_1277" x1="146" y1="0" x2="0" y2="146" gradientUnits="userSpaceOnUse">
<stop stop-color="#FFD2EF"/>
<stop offset="1" stop-color="#E50E99"/>
</linearGradient>
<linearGradient id="paint1_linear_450_1277" x1="146" y1="0" x2="0" y2="146" gradientUnits="userSpaceOnUse">
<stop stop-color="#FFD2EF"/>
<stop offset="1" stop-color="#E50E99"/>
</linearGradient>
<linearGradient id="paint2_linear_450_1277" x1="146" y1="0" x2="0" y2="146" gradientUnits="userSpaceOnUse">
<stop stop-color="#FFD2EF"/>
<stop offset="1" stop-color="#E50E99"/>
</linearGradient>
<linearGradient id="paint3_linear_450_1277" x1="146" y1="0" x2="0" y2="146" gradientUnits="userSpaceOnUse">
<stop stop-color="#FFD2EF"/>
<stop offset="1" stop-color="#E50E99"/>
</linearGradient>
<linearGradient id="paint4_linear_450_1277" x1="146" y1="0" x2="0" y2="146" gradientUnits="userSpaceOnUse">
<stop stop-color="#FFD2EF"/>
<stop offset="1" stop-color="#E50E99"/>
</linearGradient>
</defs>
</svg>
