<svg width="375" height="937" viewBox="0 0 375 937" fill="none" xmlns="http://www.w3.org/2000/svg">
<path d="M297.765 4.16849C184.969 78.1135 210.226 194.805 236.954 243.908C317.806 291.712 348.36 183.291 344.453 144.059C341.049 109.872 311.909 36.5542 297.765 4.16849Z" fill="#84BCEE"/>
<path d="M297.618 3.40489C245.661 48.2341 288.122 162.014 274.122 239.534C316.265 273.4 343.289 156.912 344.453 144.059C346.863 117.465 314.16 44.8317 297.618 3.40489Z" fill="#FFD4F0"/>
<path d="M344.453 144.059C348.36 183.291 317.806 291.712 236.954 243.908C210.226 194.805 184.969 78.1135 297.765 4.16849C311.909 36.5542 341.049 109.872 344.453 144.059ZM344.453 144.059C343.289 156.912 316.265 273.4 274.122 239.534C288.122 162.014 245.661 48.2341 297.618 3.40489C314.16 44.8317 346.863 117.465 344.453 144.059Z" stroke="#242929" stroke-width="4.05"/>
<path d="M76.9089 4.16849C189.704 78.1135 164.447 194.805 137.719 243.908C56.8683 291.712 26.3133 183.291 30.2205 144.059C33.6251 109.872 62.7647 36.5542 76.9089 4.16849Z" fill="#84BCEE"/>
<path d="M77.0555 3.40489C129.013 48.2341 86.5522 162.014 100.552 239.534C58.4088 273.4 31.3853 156.912 30.2205 144.059C27.8105 117.465 60.5134 44.8317 77.0555 3.40489Z" fill="#FFD4F0"/>
<path d="M30.2205 144.059C26.3133 183.291 56.8683 291.712 137.719 243.908C164.447 194.805 189.704 78.1135 76.9089 4.16849C62.7647 36.5542 33.6251 109.872 30.2205 144.059ZM30.2205 144.059C31.3853 156.912 58.4088 273.4 100.552 239.534C86.5522 162.014 129.013 48.2341 77.0555 3.40489C60.5134 44.8317 27.8105 117.465 30.2205 144.059Z" stroke="#242929" stroke-width="4.05"/>
<path d="M207.732 444H164.042L158.8 461.904C153.276 459.406 129.78 452.156 114.439 456.688C-86.6268 516.076 33.4088 597.156 91.4245 622.531H244.433L70.3262 533.719L243.474 596.78L263.073 577.683L304.307 535.984L272.613 568.156L283.691 647C374.31 579.484 417.941 481.609 255.881 456.688C237.078 453.796 207.732 461.904 207.732 461.904V444Z" fill="#84BCEE" stroke="#242929" stroke-width="5" stroke-linejoin="round"/>
<path d="M83.0142 630.114C109.078 566 114.567 514.5 114.567 459.495H259.808C264.633 511 273.633 557 291.36 630.114C304.759 685.376 348.081 758.764 342.212 791.475C341.531 795.274 337.883 797.495 334.023 797.495H292.163C289.069 797.495 286.15 796.063 284.256 793.617L206.715 693.483C202.927 688.591 197.088 685.728 190.902 685.728H183.07C177.113 685.728 171.466 688.383 167.666 692.971L84.1051 793.873C82.2054 796.167 79.3819 797.495 76.4033 797.495H42.384C39.0434 797.495 35.7878 795.843 34.8553 792.635C26.6153 764.29 61.4044 683.272 83.0142 630.114Z" fill="#84BCEE" stroke="#242929" stroke-width="5" stroke-linejoin="round"/>
<ellipse cx="187.133" cy="337.297" rx="184.5" ry="132" fill="#84BCEE" stroke="#242929" stroke-width="5"/>
<path d="M20.6328 317.926C20.6328 301.629 33.2118 288.096 49.4652 286.905L110.586 282.43C120.27 281.721 129.681 285.825 135.75 293.404C141.345 300.39 149.811 304.457 158.762 304.457H212.586C220.344 304.457 227.821 301.558 233.552 296.328L241.117 289.425C246.847 284.196 254.325 281.297 262.083 281.297H322.518C338.862 281.297 352.418 293.946 353.547 310.251L354.661 326.324C356.806 357.3 336.347 385.604 305.905 391.723C219.571 409.079 155.579 409.981 68.4267 391.409C40.1013 385.373 20.6328 359.757 20.6328 330.795V317.926Z" fill="#EDFAFF" stroke="#242929"/>
<path d="M274.984 363.78C270.696 344.588 271.124 307.924 307.15 314.798C313.583 327.402 316.157 354.843 274.984 363.78Z" fill="#242929"/>
<ellipse cx="285.828" cy="337.814" rx="5.62903" ry="6.01529" fill="white"/>
<path d="M93.4727 363.78C97.7615 344.588 97.3327 307.924 61.3068 314.798C54.8736 327.402 52.3004 354.843 93.4727 363.78Z" fill="#242929"/>
<ellipse cx="5.62903" cy="6.01529" rx="5.62903" ry="6.01529" transform="matrix(-1 0 0 1 88.2559 331.799)" fill="white"/>
<path d="M161.752 557.33L157.652 563.008L189.672 586.364L189.892 586.525L193.992 580.847L161.972 557.48L161.752 557.33Z" fill="white"/>
<path d="M182.674 557.48L182.464 557.33L178.354 563.008L210.374 586.364L210.594 586.525L214.694 580.847L182.674 557.48Z" fill="white"/>
<path d="M186.193 528.265C168.833 528.265 154.713 539.109 154.713 552.435V552.707H161.713V552.435C161.713 542.978 172.713 535.28 186.223 535.28C199.733 535.28 210.723 542.978 210.723 552.435V552.707H217.723V552.435C217.673 539.109 203.553 528.265 186.193 528.265Z" fill="white"/>
<path d="M210.633 591.43C210.633 600.887 199.633 608.585 186.133 608.585C172.633 608.585 161.633 600.887 161.633 591.43V591.158H154.633V591.43C154.633 604.756 168.753 615.55 186.113 615.55C203.473 615.55 217.593 604.706 217.593 591.43V591.158H210.593L210.633 591.43Z" fill="white"/>
<path d="M169.486 928.588C167.338 930.222 165.042 931.902 162.581 933.64C122.581 924.68 64.341 902.6 52.1806 878.92C40.0202 855.24 36.2436 813.64 118.421 836.68V786.76H237.462V825.16C279.062 827.4 340.759 846.856 254.743 906.76L169.486 928.588Z" fill="#A574CB"/>
<path d="M118.421 851.08L176.021 878.92M176.021 878.92H206.741M176.021 878.92L237.462 856.84M206.741 878.92C197.406 901.248 190.936 913.617 162.581 933.64C122.581 924.68 64.341 902.6 52.1806 878.92C40.0202 855.24 36.2436 813.64 118.421 836.68V786.76H237.462V825.16C279.062 827.4 340.759 846.856 254.743 906.76L165.922 929.5C188.395 916.295 195.816 903.702 206.741 878.92Z" stroke="#242929" stroke-width="5" stroke-linecap="round" stroke-linejoin="round"/>
<path d="M146.762 780.064L142.662 785.743L174.682 809.099L174.902 809.26L179.002 803.581L146.982 780.225L146.762 780.064Z" fill="white"/>
<path d="M167.683 780.225L167.463 780.064L163.363 785.743L195.383 809.099L195.603 809.26L199.703 803.581L167.683 780.225Z" fill="white"/>
<path d="M171.193 751C153.843 751 139.713 761.844 139.713 775.18V775.452H146.713V775.18C146.713 765.713 157.713 758.015 171.213 758.015C184.713 758.015 195.723 765.713 195.723 775.18V775.452H202.723V775.18C202.683 761.844 188.553 751 171.193 751Z" fill="white"/>
<path d="M195.643 814.184C195.643 823.652 184.643 831.35 171.133 831.35C157.623 831.35 146.633 823.652 146.633 814.184V813.913H139.633V814.184C139.633 827.511 153.763 838.304 171.113 838.304C188.463 838.304 202.603 827.46 202.603 814.184V813.913H195.603L195.643 814.184Z" fill="white"/>
<path d="M117.659 715.44H241.499C265.819 742.64 302.486 807.32 252.059 818.16C201.633 829 154.133 813.543 154.133 813.543C141.43 816.945 122.429 820.453 103.259 818.16C69.8855 814.167 51.6114 756.144 117.659 715.44Z" fill="#A574CB"/>
<path d="M169.499 808.56L154.133 813.543C154.133 813.543 201.633 829 252.059 818.16C302.486 807.32 265.819 742.64 241.499 715.44H117.659C51.6114 756.144 69.8855 814.167 103.259 818.16C136.633 822.153 169.499 808.56 169.499 808.56ZM169.499 808.56L241.499 768.24C215.26 757.68 160.669 742.32 152.221 765.36M152.221 765.36C137.821 768.56 109.021 776.112 109.021 780.72C109.021 786.48 88.8594 752.88 103.259 750.96C117.659 749.04 152.221 750 152.221 765.36Z" stroke="#242929" stroke-width="5" stroke-linejoin="round"/>
<path d="M103.821 464C-7.81094 591.5 55.689 696 139.82 726C167.549 734.794 183.46 735.714 212.82 726C356.689 680 309.689 539.5 269.606 464L250.821 483.5L215.106 400C175.106 415.5 126.106 468.5 111.106 483.5L103.821 464Z" fill="#A574CB" stroke="#242929" stroke-width="5" stroke-linejoin="round"/>
<ellipse cx="237.748" cy="587.755" rx="44.9064" ry="48.7555" fill="white"/>
<ellipse cx="233.899" cy="586.472" rx="41.0573" ry="44.9064" fill="#461E96"/>
<ellipse cx="228.767" cy="582.623" rx="35.9251" ry="35.9251" fill="#242929"/>
<ellipse cx="230.051" cy="573.642" rx="14.1134" ry="14.1134" fill="white"/>
<ellipse cx="44.9064" cy="48.7555" rx="44.9064" ry="48.7555" transform="matrix(-1 0 0 1 155.508 539)" fill="white"/>
<ellipse cx="41.0573" cy="44.9064" rx="41.0573" ry="44.9064" transform="matrix(-1 0 0 1 155.508 541.566)" fill="#461E96"/>
<ellipse cx="35.9251" cy="35.9251" rx="35.9251" ry="35.9251" transform="matrix(-1 0 0 1 155.508 546.698)" fill="#242929"/>
<ellipse cx="14.1134" cy="14.1134" rx="14.1134" ry="14.1134" transform="matrix(-1 0 0 1 132.412 559.528)" fill="white"/>
<path d="M138.432 667.511C168.357 682.964 184.794 686.659 212.352 667.511" stroke="#242929" stroke-width="5" stroke-linecap="round"/>
</svg>
