<svg width="1153" height="594" viewBox="0 0 1153 594" fill="none" xmlns="http://www.w3.org/2000/svg">
<rect y="507" width="1153" height="37" fill="#242929"/>
<path d="M783.585 414V424C882 449 883.5 504.5 888.5 527.5C863.575 542.65 759.605 546.336 765.2 528.751C762.055 535.27 756.088 540.79 745.708 543C687.436 555.407 691.932 464.697 692.694 449.332L692.71 449V414C599.21 393.498 560.709 261.499 661.706 152L681.871 171.5C696.871 156.5 745.871 103.5 785.871 88L821.586 171.5L840.371 152C880.454 227.5 927.454 368 783.585 414Z" fill="#A574CB"/>
<path d="M692.71 449L692.712 414C599.21 393.5 560.708 261.5 661.706 152L681.871 171.5C696.871 156.5 745.871 103.5 785.871 88L821.586 171.5L840.371 152C880.454 227.5 927.454 368 783.585 414V424C882 449 883.5 504.5 888.5 527.5C863 543 754.765 546.5 765.765 527.5C783.908 496.161 827.704 500.667 840.371 499L820.371 466.5M692.71 449C692.003 463.333 687 555.5 745.708 543C772.948 537.2 769.799 508.6 765 499C760.201 489.4 754.041 404.833 745.708 393.5C739.748 385.5 697.959 358.4 692.71 368V449Z" stroke="#242929" stroke-width="5" stroke-linecap="round" stroke-linejoin="round"/>
<ellipse cx="811.756" cy="263.755" rx="44.9064" ry="48.7555" fill="white"/>
<ellipse cx="807.907" cy="262.473" rx="41.0573" ry="44.9064" fill="#461E96"/>
<ellipse cx="802.775" cy="258.623" rx="35.9251" ry="35.9251" fill="#242929"/>
<ellipse cx="787.059" cy="249.642" rx="14.1134" ry="14.1134" fill="white"/>
<ellipse cx="44.9064" cy="48.7555" rx="44.9064" ry="48.7555" transform="matrix(-1 0 0 1 729.518 215)" fill="white"/>
<ellipse cx="41.0573" cy="44.9064" rx="41.0573" ry="44.9064" transform="matrix(-1 0 0 1 721.518 217.566)" fill="#461E96"/>
<ellipse cx="35.9251" cy="35.9251" rx="35.9251" ry="35.9251" transform="matrix(-1 0 0 1 712.518 222.698)" fill="#242929"/>
<ellipse cx="14.1134" cy="14.1134" rx="14.1134" ry="14.1134" transform="matrix(-1 0 0 1 674.422 235.528)" fill="white"/>
<ellipse cx="733.705" cy="353" rx="18" ry="21" fill="#242929"/>
<path d="M283.575 4.16849C396.371 78.1135 371.113 194.805 344.386 243.908C263.534 291.712 232.979 183.291 236.887 144.059C240.291 109.872 269.431 36.5542 283.575 4.16849Z" fill="#84BCEE"/>
<path d="M283.722 3.40489C335.679 48.2341 293.218 162.014 307.218 239.534C265.075 273.4 238.051 156.912 236.887 144.059C234.476 117.465 267.179 44.8317 283.722 3.40489Z" fill="#FFD4F0"/>
<path d="M236.887 144.059C232.979 183.291 263.534 291.712 344.386 243.908C371.113 194.805 396.371 78.1135 283.575 4.16849C269.431 36.5542 240.291 109.872 236.887 144.059ZM236.887 144.059C238.051 156.912 265.075 273.4 307.218 239.534C293.218 162.014 335.679 48.2341 283.722 3.40489C267.179 44.8317 234.476 117.465 236.887 144.059Z" stroke="#242929" stroke-width="4.05"/>
<path d="M504.431 4.16849C391.635 78.1135 416.892 194.805 443.62 243.908C524.472 291.712 555.027 183.291 551.119 144.059C547.715 109.872 518.575 36.5542 504.431 4.16849Z" fill="#84BCEE"/>
<path d="M504.284 3.40489C452.327 48.2341 494.788 162.014 480.788 239.534C522.931 273.4 549.955 156.912 551.119 144.059C553.529 117.465 520.826 44.8317 504.284 3.40489Z" fill="#FFD4F0"/>
<path d="M551.119 144.059C555.027 183.291 524.472 291.712 443.62 243.908C416.892 194.805 391.635 78.1135 504.431 4.16849C518.575 36.5542 547.715 109.872 551.119 144.059ZM551.119 144.059C549.955 156.912 522.931 273.4 480.788 239.534C494.788 162.014 452.327 48.2341 504.284 3.40489C520.826 44.8317 553.529 117.465 551.119 144.059Z" stroke="#242929" stroke-width="4.05"/>
<ellipse cx="184.5" cy="132" rx="184.5" ry="132" transform="matrix(-1 0 0 1 576.805 216)" fill="#84BCEE" stroke="#242929" stroke-width="5"/>
<path d="M558.805 328.341C558.805 312.164 546.404 298.687 530.282 297.345L480.431 293.193C471.553 292.454 462.949 296.474 457.819 303.758C452.826 310.849 444.526 314.861 435.867 314.369L391.575 311.852C383.75 311.407 376.382 308.024 370.943 302.381L366.26 297.521C360.397 291.437 352.312 288 343.863 288H297.245C280.734 288 267.1 300.901 266.188 317.386L264.913 340.443C263.137 372.55 285.532 401.225 317.311 406.14C388.023 417.076 441.479 419.068 512.905 402.83C540.374 396.585 558.805 371.348 558.805 343.178V328.341Z" fill="#EDFAFF" stroke="#242929"/>
<path d="M337.453 370.483C341.742 351.291 341.313 314.627 305.287 321.501C298.854 334.105 296.281 361.546 337.453 370.483Z" fill="#242929" stroke="#242929" stroke-width="1.2"/>
<ellipse cx="5.62903" cy="6.01529" rx="5.62903" ry="6.01529" transform="matrix(-1 0 0 1 322.238 338.502)" fill="white" stroke="#242929" stroke-width="1.2"/>
<path d="M496.965 370.483C492.676 351.291 493.105 314.627 529.131 321.501C535.564 334.105 538.137 361.546 496.965 370.483Z" fill="#242929" stroke="#242929" stroke-width="1.2"/>
<ellipse cx="507.811" cy="344.517" rx="5.62903" ry="6.01529" fill="white" stroke="#242929" stroke-width="1.2"/>
<path d="M394.502 526.969C441.888 566 572.348 508.561 572.346 480.061C572.344 466 561.02 439.193 537.004 431.5C537.004 431.5 468.388 472.929 424.893 472.929C381.399 472.929 370.574 507.259 394.502 526.969Z" fill="#84BCEE" stroke="#242929" stroke-width="5" stroke-linejoin="round"/>
<path d="M376.74 518.408C314.884 553.198 198.9 504.001 198.897 471.5C208.803 442.5 236.505 432.501 255.5 436.5C255.5 436.5 299.364 478.747 346.349 464.369C393.333 449.991 403.76 503.212 376.74 518.408Z" fill="#84BCEE" stroke="#242929" stroke-width="5" stroke-linejoin="round"/>
</svg>
