<svg width="690" height="817" viewBox="0 0 690 817" fill="none" xmlns="http://www.w3.org/2000/svg">
<path d="M594.753 480.344L592.482 470.605C722.149 393.142 644.477 266.982 588.298 202.555L574.431 225.811L520.691 152.6C485.255 176.777 449.568 239.519 438.365 257.533L426.843 240.196C347.075 389.712 432.643 477.065 521.389 487.18L523.659 496.919L594.753 480.344Z" fill="#A574CB" stroke="#242929" stroke-width="5" stroke-linejoin="round"/>
<ellipse cx="585.362" cy="330.314" rx="44.9064" ry="48.7555" transform="rotate(-13.1233 585.362 330.314)" fill="white"/>
<ellipse cx="581.322" cy="329.938" rx="41.0573" ry="44.9064" transform="rotate(-13.1233 581.322 329.938)" fill="#461E96"/>
<ellipse cx="575.45" cy="327.355" rx="35.9251" ry="35.9251" transform="rotate(-13.1233 575.45 327.355)" fill="#242929"/>
<ellipse cx="574.662" cy="318.317" rx="14.1134" ry="14.1134" transform="rotate(-13.1233 574.662 318.317)" fill="white"/>
<ellipse cx="44.9064" cy="48.7555" rx="44.9064" ry="48.7555" transform="matrix(-0.973884 0.227047 0.227047 0.973884 494.201 301.503)" fill="white"/>
<ellipse cx="41.0573" cy="44.9064" rx="41.0573" ry="44.9064" transform="matrix(-0.973884 0.227047 0.227047 0.973884 494.783 304.002)" fill="#461E96"/>
<ellipse cx="35.9251" cy="35.9251" rx="35.9251" ry="35.9251" transform="matrix(-0.973884 0.227047 0.227047 0.973884 495.947 309)" fill="#242929"/>
<ellipse cx="14.1134" cy="14.1134" rx="14.1134" ry="14.1134" transform="matrix(-0.973884 0.227047 0.227047 0.973884 476.369 326.74)" fill="white"/>
<path d="M502.797 422.387L570.969 406.497C583.685 445.633 510.884 470.302 502.797 422.387Z" fill="#242929"/>
<path d="M518.086 421.903L557.042 412.824C549.612 422.249 526.709 428.613 518.086 421.903Z" fill="white"/>
<path d="M635.501 643.999C644.998 541.999 616.5 477 587.014 460.499C557.528 443.998 491.001 501.499 491.001 501.499C491.001 501.499 459.54 447 419.5 487C409.392 497.097 441 524 441 524C441 524 404.979 546.591 414.001 559C423 571.376 437.5 575 487.501 569.672L467.001 625.999C467.001 625.999 413.997 623.458 419.5 644C425.003 664.541 441 666.999 467.001 666.999V705.999C467.001 720.141 443.667 737.832 453.501 773.499H484.57C488.736 752.165 540.801 676.199 550.001 666.999C559.201 657.799 537.236 763.499 522.07 813.499H569.07C575.236 814.832 626.992 735.386 635.501 643.999Z" fill="#A574CB"/>
<path d="M487.501 569.672C498.756 558.072 560.024 527.665 579.001 514.499L487.501 569.672ZM487.501 569.672L467.001 625.999C467.001 625.999 413.997 623.458 419.5 644C425.003 664.541 441 666.999 467.001 666.999M487.501 569.672C437.5 575 423 571.376 414.001 559C404.979 546.591 441 524 441 524C441 524 409.392 497.097 419.5 487C459.54 447 491.001 501.499 491.001 501.499C491.001 501.499 557.528 443.998 587.014 460.499C616.5 477 644.998 541.999 635.501 643.999C626.992 735.386 575.236 814.832 569.07 813.499H522.07C537.236 763.499 559.201 657.799 550.001 666.999C540.801 676.199 488.736 752.165 484.57 773.499H453.501C443.667 737.832 467.001 720.141 467.001 705.999C467.001 705.999 467.001 682.229 467.001 666.999M467.001 666.999C474.436 631.894 495.879 563.824 499 562.738" stroke="#242929" stroke-width="5" stroke-linecap="round" stroke-linejoin="round"/>
<path d="M97.3897 628.773C112.293 508.979 126.992 486.013 160.844 462.514C162.487 461.373 164.452 460.773 166.452 460.773H215.41C217.355 460.773 219.257 461.34 220.885 462.405L271.891 495.773C291.678 465.763 323.248 469.037 343.622 477.183C349.603 479.574 350.56 487.157 346.034 491.738L319.585 518.51C316.265 521.87 315.749 527.095 318.348 531.039L333.05 553.355C337.125 559.54 333.272 567.776 325.866 567.911C299.585 568.392 273.684 562.291 250.348 553.543C266.64 560.905 276.802 567.459 283.391 585.273C294.949 616.524 271.322 715.947 264.286 743.899C263.18 748.293 259.237 751.273 254.706 751.273H240.118C235.335 751.273 231.231 747.896 230.233 743.217C225.33 720.23 216.042 683.933 207.883 675.773C199.421 667.312 222.454 749.273 238.006 801.387C239.926 807.818 235.111 814.273 228.399 814.273H195.951C195.241 814.273 194.539 814.339 193.868 814.103C181.477 809.75 84.8495 729.574 97.3897 628.773Z" fill="#84BCEE" stroke="#242929" stroke-width="5" stroke-linejoin="round"/>
<path d="M323.612 26.4777C205.551 91.6859 221.916 209.953 244.856 260.935C321.863 314.714 360.525 208.912 359.594 169.497C358.783 135.151 335.268 59.8398 323.612 26.4777Z" fill="#84BCEE"/>
<path d="M323.524 25.7052C268.327 66.4791 302.066 183.143 282.248 259.383C321.711 296.338 357.461 182.225 359.594 169.497C364.007 143.161 336.888 68.2638 323.524 25.7052Z" fill="#FFD4F0"/>
<path d="M359.594 169.497C360.525 208.912 321.863 314.714 244.856 260.935C221.916 209.953 205.551 91.6859 323.612 26.4777C335.268 59.8398 358.783 135.151 359.594 169.497ZM359.594 169.497C357.461 182.225 321.711 296.338 282.248 259.383C302.066 183.143 268.327 66.4791 323.524 25.7052C336.888 68.2638 364.007 143.161 359.594 169.497Z" stroke="#242929" stroke-width="4.05"/>
<path d="M97.7525 14.3085C211.712 86.4464 188.318 203.526 162.376 253.048C82.2975 302.135 50.0183 194.215 53.2997 154.925C56.159 120.689 84.1263 46.9156 97.7525 14.3085Z" fill="#84BCEE"/>
<path d="M97.8869 13.5427C150.552 57.538 109.91 171.981 125.144 249.268C83.5459 283.801 54.6692 167.758 53.2997 154.925C50.4661 128.373 82.0072 55.2279 97.8869 13.5427Z" fill="#FFD4F0"/>
<path d="M53.2997 154.925C50.0183 194.215 82.2975 302.135 162.376 253.048C188.318 203.526 211.712 86.4464 97.7525 14.3085C84.1263 46.9156 56.159 120.689 53.2997 154.925ZM53.2997 154.925C54.6692 167.758 83.5459 283.801 125.144 249.268C109.91 171.981 150.552 57.538 97.8869 13.5427C82.0072 55.2279 50.4661 128.373 53.2997 154.925Z" stroke="#242929" stroke-width="4.05"/>
<ellipse cx="184.5" cy="132" rx="184.5" ry="132" transform="matrix(-0.99714 -0.0755821 -0.0755821 0.99714 387.898 235.303)" fill="#84BCEE" stroke="#242929" stroke-width="5"/>
<path d="M361.459 345.963C362.681 329.831 351.334 315.456 335.36 312.899L285.965 304.991C277.169 303.583 268.285 306.942 262.62 313.817C257.105 320.51 248.526 323.883 239.929 322.738L195.954 316.88C188.185 315.846 181.093 311.916 176.097 305.877L171.794 300.677C166.408 294.168 158.606 290.129 150.181 289.491L103.696 285.967C87.2322 284.719 72.6624 296.553 70.5072 312.922L67.493 335.817C63.2956 367.698 83.4592 397.983 114.775 405.286C184.459 421.536 237.612 427.562 310.06 416.769C337.922 412.618 358.208 388.846 360.337 360.757L361.459 345.963Z" fill="#EDFAFF" stroke="#242929"/>
<path d="M137.556 371.254C143.283 352.441 145.626 315.849 109.184 319.981C101.816 332.062 97.1765 359.23 137.556 371.254Z" fill="#242929"/>
<ellipse cx="5.62903" cy="6.01529" rx="5.62903" ry="6.01529" transform="matrix(-0.99714 -0.0755821 -0.0755821 0.99714 124.803 338.214)" fill="white"/>
<path d="M296.611 383.31C293.785 363.849 296.984 327.321 332.387 336.899C337.85 349.953 338.341 377.51 296.611 383.31Z" fill="#242929"/>
<ellipse cx="309.389" cy="358.238" rx="5.62903" ry="6.01529" transform="rotate(4.33467 309.389 358.238)" fill="white"/>
<path d="M515.075 580.419L510.19 585.828L538.916 610.632L539.113 610.803L543.998 605.395L515.272 580.59L515.075 580.419Z" fill="white"/>
<path d="M535.944 581.673L535.747 581.503L530.862 586.911L559.588 611.716L559.785 611.887L564.67 606.478L535.944 581.673Z" fill="white"/>
<path d="M543.517 552.917C526.191 552.009 510.571 562.007 508.715 575.214L508.677 575.483L515.667 575.849L515.705 575.58C517.023 566.205 529.079 559.158 542.561 559.864C556.042 560.571 565.966 568.77 564.648 578.145L564.61 578.414L571.601 578.78L571.638 578.512C573.455 565.303 560.853 553.825 543.517 552.917Z" fill="white"/>
<path d="M559.14 616.765C557.822 626.14 545.766 633.188 532.274 632.481C518.783 631.774 508.879 623.575 510.197 614.2L510.235 613.932L503.244 613.565L503.206 613.834C501.352 627.031 513.96 638.459 531.286 639.367C548.613 640.275 564.242 630.277 566.09 617.13L566.128 616.861L559.137 616.495L559.14 616.765Z" fill="white"/>
<path d="M179.489 578.401L176.185 584.239L211.411 605.692L211.654 605.84L214.958 600.002L179.731 578.549L179.489 578.401Z" fill="white"/>
<path d="M200.403 577.465L200.161 577.318L196.857 583.155L232.083 604.608L232.325 604.756L235.63 598.918L200.403 577.465Z" fill="white"/>
<path d="M199.841 548.341C182.515 549.249 169.913 560.727 171.77 573.933L171.807 574.202L178.798 573.836L178.76 573.567C177.442 564.192 187.356 555.993 200.837 555.286C214.319 554.58 226.385 561.627 227.703 571.002L227.741 571.271L234.731 570.904L234.693 570.636C232.797 557.431 217.177 547.432 199.841 548.341Z" fill="white"/>
<path d="M233.051 609.631C234.369 619.006 224.455 627.205 210.964 627.912C197.472 628.619 185.426 621.571 184.108 612.196L184.07 611.927L177.08 612.293L177.118 612.562C178.973 625.759 194.585 635.708 211.912 634.8C229.238 633.892 241.849 622.413 240.002 609.267L239.964 608.998L232.973 609.364L233.051 609.631Z" fill="white"/>
</svg>
