<svg width="326" height="661" viewBox="0 0 326 661" fill="none" xmlns="http://www.w3.org/2000/svg">
<path d="M201.593 339V329C345.461 283 298.461 142.5 258.379 67L239.593 86.5L203.879 3C163.879 18.5 114.878 71.5 99.8784 86.5L92.5929 67C-19.0386 194.5 44.4614 299 128.593 329V339C77.4614 369.5 31.7077 446.359 7.46184 490.5C-12.0379 526 36.9614 577.5 73.9613 513.5C69.9616 529 84.6896 616.193 100.593 658H148.093C162.379 573.5 170.461 521 190.879 658H237.593C252.093 609 252.461 529 252.461 513.5C288.961 577.5 336.962 531 318.461 490.5C301.217 452.749 242.961 365 201.593 339Z" fill="white" stroke="#242929" stroke-width="5" stroke-linejoin="round"/>
<ellipse cx="226.512" cy="190.755" rx="44.9064" ry="48.7555" fill="white"/>
<ellipse cx="222.663" cy="189.472" rx="41.0573" ry="44.9064" fill="#373737"/>
<ellipse cx="217.531" cy="185.623" rx="35.9251" ry="35.9251" fill="#242929"/>
<ellipse cx="218.815" cy="176.642" rx="14.1134" ry="14.1134" fill="white"/>
<ellipse cx="44.9064" cy="48.7555" rx="44.9064" ry="48.7555" transform="matrix(-1 0 0 1 144.273 142)" fill="white"/>
<ellipse cx="41.0573" cy="44.9064" rx="41.0573" ry="44.9064" transform="matrix(-1 0 0 1 144.273 144.566)" fill="#373737"/>
<ellipse cx="35.9251" cy="35.9251" rx="35.9251" ry="35.9251" transform="matrix(-1 0 0 1 144.273 149.698)" fill="#242929"/>
<ellipse cx="14.1134" cy="14.1134" rx="14.1134" ry="14.1134" transform="matrix(-1 0 0 1 121.178 162.529)" fill="white"/>
<path d="M126.461 270.511C156.387 285.965 172.823 289.66 200.381 270.511" stroke="#242929" stroke-width="5" stroke-linecap="round"/>
<path d="M138.161 418.33L134.061 424.008L166.081 447.364L166.301 447.525L170.401 441.847L138.381 418.491L138.161 418.33Z" fill="#242929"/>
<path d="M159.082 418.491L158.862 418.33L154.762 424.008L186.782 447.364L187.002 447.525L191.102 441.847L159.082 418.491Z" fill="#242929"/>
<path d="M162.591 389.265C145.241 389.265 131.111 400.109 131.111 413.445V413.717H138.111V413.445C138.111 403.978 149.111 396.28 162.611 396.28C176.111 396.28 187.121 403.978 187.121 413.445V413.717H194.121V413.445C194.081 400.109 179.951 389.265 162.591 389.265Z" fill="#242929"/>
<path d="M187.041 452.449C187.041 461.917 176.041 469.615 162.531 469.615C149.021 469.615 138.031 461.917 138.031 452.449V452.178H131.031V452.449C131.031 465.776 145.161 476.569 162.511 476.569C179.861 476.569 194.001 465.726 194.001 452.449V452.178H187.001L187.041 452.449Z" fill="#242929"/>
</svg>
