<svg width="523" height="754" viewBox="0 0 523 754" fill="none" xmlns="http://www.w3.org/2000/svg">
<path d="M398.567 432V422C542.435 376 495.435 235.5 455.352 160L436.567 179.5L400.852 96C360.852 111.5 311.852 164.5 296.852 179.5L289.567 160C177.935 287.5 241.435 392 325.567 422V432C266.499 432 202.001 325 187.502 334C165.018 347.956 146.503 391.5 199 414.5C332.5 516.5 229.998 540 297.567 751H345.067C359.352 666.5 367.435 614 387.852 751H434.566C449.067 702 449.435 622 449.435 606.5C485.935 670.5 533.936 624 515.435 583.5C498.19 545.749 439.935 458 398.567 432Z" fill="#A574CB" stroke="#242929" stroke-width="5" stroke-linejoin="round"/>
<ellipse cx="423.488" cy="283.755" rx="44.9064" ry="48.7555" fill="white"/>
<ellipse cx="419.639" cy="282.473" rx="41.0573" ry="44.9064" fill="#461E96"/>
<ellipse cx="414.507" cy="278.623" rx="35.9251" ry="35.9251" fill="#242929"/>
<ellipse cx="415.791" cy="269.642" rx="14.1134" ry="14.1134" fill="white"/>
<ellipse cx="44.9064" cy="48.7555" rx="44.9064" ry="48.7555" transform="matrix(-1 0 0 1 341.248 235)" fill="white"/>
<ellipse cx="41.0573" cy="44.9064" rx="41.0573" ry="44.9064" transform="matrix(-1 0 0 1 341.248 237.566)" fill="#461E96"/>
<ellipse cx="35.9251" cy="35.9251" rx="35.9251" ry="35.9251" transform="matrix(-1 0 0 1 341.248 242.698)" fill="#242929"/>
<ellipse cx="14.1134" cy="14.1134" rx="14.1134" ry="14.1134" transform="matrix(-1 0 0 1 318.152 255.529)" fill="white"/>
<path d="M335 352H405C408.5 393 332 400.5 335 352Z" fill="#242929"/>
<path d="M350 355H390C380.625 362.493 356.875 363.492 350 355Z" fill="white"/>
<path d="M335.135 511.33L331.035 517.008L363.055 540.364L363.275 540.525L367.375 534.847L335.355 511.49L335.135 511.33Z" fill="white"/>
<path d="M356.056 511.49L355.836 511.33L351.736 517.008L383.756 540.364L383.976 540.525L388.076 534.847L356.056 511.49Z" fill="white"/>
<path d="M359.566 482.265C342.216 482.265 328.086 493.109 328.086 506.445V506.717H335.086V506.445C335.086 496.978 346.086 489.28 359.586 489.28C373.086 489.28 384.096 496.978 384.096 506.445V506.717H391.096V506.445C391.056 493.109 376.926 482.265 359.566 482.265Z" fill="white"/>
<path d="M384.016 545.45C384.016 554.917 373.016 562.615 359.506 562.615C345.996 562.615 335.006 554.917 335.006 545.45V545.178H328.006V545.45C328.006 558.776 342.136 569.57 359.486 569.57C376.836 569.57 390.976 558.726 390.976 545.45V545.178H383.976L384.016 545.45Z" fill="white"/>
<rect x="168.5" y="2.5" width="27" height="466" fill="#A46A68" stroke="#242929" stroke-width="5" stroke-linejoin="round"/>
<rect x="2.5" y="31.5" width="358" height="185" fill="white" stroke="#242929" stroke-width="5" stroke-linejoin="round"/>
<g clip-path="url(#clip0_135_1097)">
<mask id="mask0_135_1097" style="mask-type:luminance" maskUnits="userSpaceOnUse" x="32" y="96" width="300" height="67">
<path d="M331.376 96H32V162.12H331.376V96Z" fill="white"/>
</mask>
<g mask="url(#mask0_135_1097)">
<path d="M148.089 146.87H143.5L139.722 136.992H123.609L119.831 146.87H115.295L129.167 111.245H134.293L148.089 146.87ZM125.149 132.95H138.157L131.625 115.402L125.149 132.95Z" fill="#1B1130"/>
<path d="M162.098 147.413C159.581 147.436 157.093 146.862 154.841 145.738C152.705 144.697 150.928 143.042 149.738 140.986L153.41 138.341C154.159 139.953 155.371 141.307 156.89 142.229C158.566 143.203 160.482 143.688 162.42 143.63C164.34 143.63 165.823 143.266 166.903 142.526C167.312 142.28 167.663 141.948 167.934 141.555C168.205 141.161 168.389 140.715 168.473 140.244C168.558 139.774 168.541 139.292 168.424 138.828C168.308 138.365 168.093 137.932 167.796 137.558C167.306 136.918 166.38 136.459 165.017 136.181L158.537 134.818C155.906 134.28 154.026 133.381 152.897 132.12C151.75 130.83 151.14 129.151 151.193 127.426C151.184 125.976 151.628 124.559 152.465 123.374C153.385 122.089 154.633 121.073 156.079 120.432C157.82 119.66 159.71 119.283 161.613 119.328C163.961 119.255 166.288 119.796 168.362 120.898C170.162 121.904 171.598 123.453 172.466 125.323L168.847 127.723C168.32 126.236 167.262 124.997 165.876 124.243C164.571 123.52 163.105 123.139 161.613 123.134C160.483 123.109 159.357 123.291 158.292 123.672C157.469 123.967 156.741 124.482 156.189 125.16C155.702 125.779 155.443 126.547 155.458 127.335C155.473 128.122 155.76 128.88 156.271 129.48C156.809 130.146 157.815 130.626 159.29 130.92L166.039 132.326C168.561 132.829 170.321 133.656 171.319 134.808C172.332 135.973 172.871 137.475 172.831 139.018C172.862 140.608 172.39 142.166 171.482 143.472C170.529 144.793 169.219 145.814 167.705 146.414C165.921 147.117 164.015 147.457 162.098 147.413Z" fill="#1B1130"/>
<path d="M195.969 119.88H200.611L187.929 151.407C187.39 152.902 186.635 154.311 185.688 155.587C184.98 156.532 184.055 157.291 182.99 157.8C181.91 158.27 180.741 158.5 179.563 158.477C178.422 158.487 177.288 158.314 176.203 157.963C175.229 157.648 174.308 157.183 173.477 156.586L174.662 152.808C175.33 153.427 176.108 153.916 176.957 154.248C177.72 154.554 178.534 154.717 179.357 154.728C180.306 154.722 181.231 154.42 182.001 153.864C182.827 153.288 183.582 152.118 184.267 150.355L185.669 146.847L182.971 140.424L174.389 119.909H179.289L187.709 140.472L195.969 119.88Z" fill="#1B1130"/>
<path d="M204.32 146.87V119.88H208.088L208.463 125.928L207.762 125.333C208.258 124.009 209.053 122.818 210.085 121.853C211.05 120.973 212.197 120.317 213.445 119.933C214.732 119.538 216.069 119.339 217.415 119.342C219.234 119.319 221.037 119.696 222.695 120.446C224.264 121.171 225.588 122.339 226.501 123.806C227.461 125.32 227.941 127.24 227.941 129.566V146.846H223.621V131.107C223.621 128.122 222.981 126.042 221.701 124.867C220.412 123.695 218.719 123.067 216.978 123.115C215.63 123.128 214.302 123.441 213.09 124.032C211.752 124.686 210.635 125.719 209.879 127.003C209.034 128.373 208.612 130.208 208.612 132.509V146.866L204.32 146.87Z" fill="#1B1130"/>
<path d="M244.742 119.343C246.429 119.31 248.106 119.603 249.681 120.207C251.074 120.764 252.333 121.61 253.377 122.688C254.445 123.806 255.304 125.107 255.911 126.528L251.812 128.448C251.353 126.896 250.442 125.516 249.196 124.483C247.875 123.519 246.265 123.033 244.631 123.106C243 123.06 241.389 123.481 239.99 124.32C238.667 125.162 237.631 126.385 237.019 127.829C235.655 131.383 235.655 135.315 237.019 138.869C237.625 140.322 238.662 141.555 239.99 142.402C241.389 143.241 243 143.662 244.631 143.616C245.877 143.645 247.115 143.425 248.275 142.968C249.266 142.562 250.139 141.914 250.814 141.082C251.505 140.196 251.977 139.16 252.191 138.058L256.185 139.459C255.623 141.027 254.772 142.474 253.675 143.727C252.615 144.912 251.302 145.843 249.835 146.453C248.217 147.111 246.483 147.438 244.737 147.413C242.38 147.452 240.053 146.875 237.988 145.738C236.001 144.617 234.386 142.936 233.347 140.904C232.244 138.548 231.672 135.977 231.672 133.375C231.672 130.773 232.244 128.203 233.347 125.847C234.387 123.816 236.001 122.135 237.988 121.013C240.055 119.876 242.384 119.301 244.742 119.343Z" fill="#1B1130"/>
<path d="M292.655 146.87H286.554L283.156 137.534H268.204L264.801 146.87H258.863L272.303 111.245H279.215L292.655 146.87ZM269.822 132.835H281.529L275.697 116.213L269.822 132.835Z" fill="#1B1130"/>
<path d="M309.589 111.245C311.867 111.188 314.129 111.649 316.203 112.593C317.978 113.439 319.476 114.77 320.523 116.433C321.55 118.259 322.088 120.318 322.088 122.412C322.088 124.506 321.55 126.565 320.523 128.39C319.48 130.057 317.981 131.389 316.203 132.23C314.13 133.179 311.868 133.641 309.589 133.584H301.655V146.861H295.895V111.245H309.589ZM308.672 128.625C311.232 128.625 313.112 128.094 314.312 127.032C315.512 125.969 316.115 124.432 316.122 122.419C316.122 120.371 315.518 118.814 314.312 117.749C313.106 116.683 311.226 116.152 308.672 116.155H301.655V128.635L308.672 128.625Z" fill="#1B1130"/>
<path d="M331.375 111.245V146.87H325.615V111.245H331.375Z" fill="#1B1130"/>
<path d="M82.4816 96H47.6384C39.0016 96 32 103.002 32 111.638V146.482C32 155.118 39.0016 162.12 47.6384 162.12H82.4816C91.1182 162.12 98.12 155.118 98.12 146.482V111.638C98.12 103.002 91.1182 96 82.4816 96Z" fill="url(#paint0_linear_135_1097)"/>
<path d="M82.4816 96H47.6384C39.0016 96 32 103.002 32 111.638V146.482C32 155.118 39.0016 162.12 47.6384 162.12H82.4816C91.1182 162.12 98.12 155.118 98.12 146.482V111.638C98.12 103.002 91.1182 96 82.4816 96Z" fill="url(#paint1_linear_135_1097)"/>
<path d="M82.4816 96H47.6384C39.0016 96 32 103.002 32 111.638V146.482C32 155.118 39.0016 162.12 47.6384 162.12H82.4816C91.1182 162.12 98.12 155.118 98.12 146.482V111.638C98.12 103.002 91.1182 96 82.4816 96Z" fill="url(#paint2_linear_135_1097)"/>
<path d="M82.4816 96H47.6384C39.0016 96 32 103.002 32 111.638V146.482C32 155.118 39.0016 162.12 47.6384 162.12H82.4816C91.1182 162.12 98.12 155.118 98.12 146.482V111.638C98.12 103.002 91.1182 96 82.4816 96Z" fill="url(#paint3_linear_135_1097)"/>
<path d="M53.345 122.078L51.377 124.79L66.7466 135.946L66.8522 136.022L68.8202 133.31L53.4506 122.155L53.345 122.078Z" fill="white"/>
<path d="M63.3861 122.155L63.2805 122.078L61.3125 124.79L76.6821 135.946L76.7877 136.022L78.7557 133.31L63.3861 122.155Z" fill="white"/>
<path d="M65.0713 108.197C56.7385 108.197 49.9609 113.376 49.9609 119.741V119.87H53.3209V119.741C53.3209 115.224 58.6009 111.547 65.0809 111.547C71.5609 111.547 76.8409 115.224 76.8409 119.741V119.87H80.2009V119.741C80.1817 113.376 73.4041 108.197 65.0713 108.197Z" fill="white"/>
<path d="M76.8067 138.374C76.8067 142.891 71.5267 146.568 65.0419 146.568C58.5571 146.568 53.2819 142.891 53.2819 138.374V138.245H49.9219V138.374C49.9219 144.739 56.6994 149.918 65.0322 149.918C73.365 149.918 80.1427 144.739 80.1427 138.374V138.245H76.7827L76.8067 138.374Z" fill="white"/>
</g>
</g>
<path d="M165.996 404.995L167.808 407.425L169.849 405.182L168 403.5C169.849 405.182 169.849 405.182 169.85 405.182L169.851 405.18L169.855 405.176L169.869 405.161L169.919 405.105C169.963 405.056 170.027 404.985 170.109 404.893C170.274 404.708 170.513 404.438 170.815 404.092C171.419 403.399 172.276 402.399 173.297 401.161C175.338 398.689 178.047 395.25 180.707 391.4C183.36 387.562 186.008 383.252 187.889 379.043C189.736 374.91 191.007 370.521 190.475 366.659C188.426 351.8 183.92 342.176 179.807 336.207C177.754 333.227 175.812 331.177 174.348 329.85C173.616 329.187 173.005 328.706 172.56 328.382C172.337 328.219 172.157 328.096 172.023 328.008C171.957 327.964 171.902 327.929 171.86 327.903C171.839 327.89 171.821 327.879 171.806 327.87L171.786 327.858L171.778 327.853L171.775 327.851C171.773 327.85 171.771 327.849 170.497 330L171.771 327.849L170.007 326.804L168.637 328.33C166.47 330.743 164.166 335.26 162.186 340.765C160.174 346.358 158.398 353.251 157.42 360.634C155.478 375.295 156.621 392.424 165.996 404.995Z" fill="#A574CB" stroke="#242929" stroke-width="5"/>
<defs>
<linearGradient id="paint0_linear_135_1097" x1="91.9328" y1="102.182" x2="39.6608" y2="154.459" gradientUnits="userSpaceOnUse">
<stop stop-color="#2DCCFD"/>
<stop offset="1" stop-color="#AD20E2"/>
</linearGradient>
<linearGradient id="paint1_linear_135_1097" x1="91.9328" y1="155.933" x2="39.656" y2="103.656" gradientUnits="userSpaceOnUse">
<stop stop-color="#A829E2"/>
<stop offset="0.05" stop-color="#A829E2" stop-opacity="0.84"/>
<stop offset="0.11" stop-color="#A829E2" stop-opacity="0.67"/>
<stop offset="0.18" stop-color="#A829E2" stop-opacity="0.51"/>
<stop offset="0.25" stop-color="#A829E2" stop-opacity="0.38"/>
<stop offset="0.33" stop-color="#A829E2" stop-opacity="0.28"/>
<stop offset="0.43" stop-color="#A829E2" stop-opacity="0.2"/>
<stop offset="0.54" stop-color="#A829E2" stop-opacity="0.14"/>
<stop offset="0.68" stop-color="#A829E2" stop-opacity="0.11"/>
<stop offset="1" stop-color="#A829E2" stop-opacity="0.1"/>
</linearGradient>
<linearGradient id="paint2_linear_135_1097" x1="38.1872" y1="155.933" x2="90.4592" y2="103.656" gradientUnits="userSpaceOnUse">
<stop stop-color="#E50E99"/>
<stop offset="1" stop-color="#A829E2" stop-opacity="0.1"/>
</linearGradient>
<linearGradient id="paint3_linear_135_1097" x1="91.9328" y1="102.187" x2="39.656" y2="154.459" gradientUnits="userSpaceOnUse">
<stop stop-color="#21D4FD"/>
<stop offset="0.03" stop-color="#27CDFC" stop-opacity="0.96"/>
<stop offset="0.23" stop-color="#4E9CF4" stop-opacity="0.7"/>
<stop offset="0.43" stop-color="#6E73EE" stop-opacity="0.49"/>
<stop offset="0.61" stop-color="#8753E9" stop-opacity="0.32"/>
<stop offset="0.77" stop-color="#993CE5" stop-opacity="0.2"/>
<stop offset="0.9" stop-color="#A42EE3" stop-opacity="0.13"/>
<stop offset="1" stop-color="#A829E2" stop-opacity="0.1"/>
</linearGradient>
<clipPath id="clip0_135_1097">
<rect width="299.52" height="66.24" fill="white" transform="translate(32 96)"/>
</clipPath>
</defs>
</svg>
