<svg width="368" height="662" viewBox="0 0 368 662" fill="none" xmlns="http://www.w3.org/2000/svg">
<path d="M158.32 659C133.82 572 117.823 479.5 137.323 417.5C-14.1764 340 -7.72276 293.521 14.3223 275C39.3184 254 28.8173 316.5 186.32 340V330.5C25.8201 249.5 111.82 108.333 150.82 67.5L158.82 87C199.907 43.875 223.32 21.5 260.82 3L297.32 87L317.32 67.5C377.82 177.5 377.82 295 260.82 330.5V340L310.52 389L324.02 343.5C338.82 320.7 357.187 334 364.52 343.5C366.187 375.833 364.32 444.7 343.52 461.5C322.72 478.3 293.187 444.833 281.02 426C301.223 473.226 310.475 495.749 305.822 495.5C301.17 495.251 236.32 521.5 236.32 521.5L207.521 659H158.32Z" fill="#A574CB" stroke="#242929" stroke-width="5" stroke-linejoin="round"/>
<ellipse cx="285.303" cy="191.755" rx="44.9064" ry="48.7555" fill="white"/>
<ellipse cx="281.454" cy="190.473" rx="41.0573" ry="44.9064" fill="#461E96"/>
<ellipse cx="276.322" cy="186.623" rx="35.9251" ry="35.9251" fill="#242929"/>
<ellipse cx="277.606" cy="177.642" rx="14.1134" ry="14.1134" fill="white"/>
<ellipse cx="44.9064" cy="48.7555" rx="44.9064" ry="48.7555" transform="matrix(-1 0 0 1 203.064 143)" fill="white"/>
<ellipse cx="41.0573" cy="44.9064" rx="41.0573" ry="44.9064" transform="matrix(-1 0 0 1 203.064 145.566)" fill="#461E96"/>
<ellipse cx="35.9251" cy="35.9251" rx="35.9251" ry="35.9251" transform="matrix(-1 0 0 1 203.064 150.698)" fill="#242929"/>
<ellipse cx="14.1134" cy="14.1134" rx="14.1134" ry="14.1134" transform="matrix(-1 0 0 1 179.969 163.529)" fill="white"/>
<path d="M185.522 272H255.522C259.022 313 182.521 320.5 185.522 272Z" fill="#242929"/>
<path d="M200.521 275H240.521C231.146 282.493 207.396 283.492 200.521 275Z" fill="white"/>
<path d="M197.151 431.163L193.051 436.906L225.071 460.53L225.291 460.692L229.391 454.949L197.371 431.325L197.151 431.163Z" fill="white"/>
<path d="M218.072 431.325L217.852 431.163L213.752 436.906L245.772 460.53L245.992 460.692L250.092 454.949L218.072 431.325Z" fill="white"/>
<path d="M221.582 401.765C204.232 401.765 190.102 412.733 190.102 426.222V426.497H197.102V426.222C197.102 416.647 208.102 408.86 221.602 408.86C235.102 408.86 246.112 416.647 246.112 426.222V426.497H253.112V426.222C253.072 412.733 238.942 401.765 221.582 401.765Z" fill="white"/>
<path d="M246.031 465.673C246.031 475.249 235.031 483.035 221.521 483.035C208.011 483.035 197.021 475.249 197.021 465.673V465.399H190.021V465.673C190.021 479.152 204.151 490.07 221.501 490.07C238.851 490.07 252.991 479.102 252.991 465.673V465.399H245.991L246.031 465.673Z" fill="white"/>
<path d="M325.257 570.526L304.055 627.526C271.722 608.359 196.393 577.792 187.822 549.775C170.914 494.5 280.291 452.81 298.258 476.526C323.258 509.526 295.257 532.692 277.257 549.776L325.257 570.526Z" fill="#A574CB"/>
<path d="M244.555 536.026L277.257 549.776M277.257 549.776L325.257 570.526L304.055 627.526C271.722 608.359 196.393 577.792 187.822 549.775C170.914 494.5 280.291 452.81 298.258 476.526C323.258 509.526 295.257 532.692 277.257 549.776Z" stroke="#242929" stroke-width="5" stroke-linecap="round" stroke-linejoin="round"/>
</svg>
