<svg width="325" height="661" viewBox="0 0 325 661" fill="none" xmlns="http://www.w3.org/2000/svg">
<path d="M201.124 339V329C344.993 283 297.993 142.5 257.91 67L239.125 86.5L203.41 3C163.41 18.5 114.41 71.5 99.4097 86.5L92.1242 67C-19.5073 194.5 43.9927 299 128.124 329V339C76.9927 369.5 31.239 446.359 6.99309 490.5C-12.5066 526 36.4927 577.5 73.4926 513.5C69.4929 529 84.2209 616.193 100.124 658H147.625C161.91 573.5 169.993 521 190.41 658H237.124C251.625 609 251.993 529 251.993 513.5C288.493 577.5 336.493 531 317.993 490.5C300.748 452.749 242.493 365 201.124 339Z" fill="#8C8C8C" stroke="#242929" stroke-width="5" stroke-linejoin="round"/>
<ellipse cx="226.043" cy="190.755" rx="44.9064" ry="48.7555" fill="white"/>
<ellipse cx="222.194" cy="189.472" rx="41.0573" ry="44.9064" fill="#373737"/>
<ellipse cx="217.062" cy="185.623" rx="35.9251" ry="35.9251" fill="#242929"/>
<ellipse cx="218.346" cy="176.642" rx="14.1134" ry="14.1134" fill="white"/>
<ellipse cx="44.9064" cy="48.7555" rx="44.9064" ry="48.7555" transform="matrix(-1 0 0 1 143.805 142)" fill="white"/>
<ellipse cx="41.0573" cy="44.9064" rx="41.0573" ry="44.9064" transform="matrix(-1 0 0 1 143.805 144.566)" fill="#373737"/>
<ellipse cx="35.9251" cy="35.9251" rx="35.9251" ry="35.9251" transform="matrix(-1 0 0 1 143.805 149.698)" fill="#242929"/>
<ellipse cx="14.1134" cy="14.1134" rx="14.1134" ry="14.1134" transform="matrix(-1 0 0 1 120.709 162.529)" fill="white"/>
<path d="M125.992 270.511C155.918 285.965 172.354 289.66 199.912 270.511" stroke="#242929" stroke-width="5" stroke-linecap="round"/>
<path d="M137.692 418.33L133.592 424.008L165.612 447.364L165.832 447.525L169.932 441.847L137.912 418.491L137.692 418.33Z" fill="white"/>
<path d="M158.613 418.491L158.393 418.33L154.293 424.008L186.313 447.364L186.533 447.525L190.633 441.847L158.613 418.491Z" fill="white"/>
<path d="M162.123 389.265C144.773 389.265 130.643 400.109 130.643 413.445V413.717H137.643V413.445C137.643 403.978 148.643 396.28 162.143 396.28C175.643 396.28 186.653 403.978 186.653 413.445V413.717H193.653V413.445C193.613 400.109 179.483 389.265 162.123 389.265Z" fill="white"/>
<path d="M186.573 452.449C186.573 461.917 175.573 469.615 162.062 469.615C148.552 469.615 137.562 461.917 137.562 452.449V452.178H130.562V452.449C130.562 465.776 144.692 476.569 162.042 476.569C179.392 476.569 193.533 465.726 193.533 452.449V452.178H186.533L186.573 452.449Z" fill="white"/>
</svg>
