<svg width="326" height="661" viewBox="0 0 326 661" fill="none" xmlns="http://www.w3.org/2000/svg">
<path d="M201.562 339V329C345.43 283 298.43 142.5 258.347 67L239.562 86.5L203.847 3C163.847 18.5 114.847 71.5 99.8472 86.5L92.5617 67C-19.0698 194.5 44.4302 299 128.562 329V339C77.4302 369.5 31.6765 446.359 7.43059 490.5C-12.0691 526 36.9302 577.5 73.9301 513.5C69.9304 529 84.6584 616.193 100.562 658H148.062C162.347 573.5 170.43 521 190.847 658H237.562C252.062 609 252.43 529 252.43 513.5C288.93 577.5 336.931 531 318.43 490.5C301.185 452.749 242.93 365 201.562 339Z" fill="#A574CB" stroke="#242929" stroke-width="5" stroke-linejoin="round"/>
<ellipse cx="226.481" cy="190.755" rx="44.9064" ry="48.7555" fill="white"/>
<ellipse cx="222.632" cy="189.472" rx="41.0573" ry="44.9064" fill="#461E96"/>
<ellipse cx="217.499" cy="185.623" rx="35.9251" ry="35.9251" fill="#242929"/>
<ellipse cx="218.783" cy="176.642" rx="14.1134" ry="14.1134" fill="white"/>
<ellipse cx="44.9064" cy="48.7555" rx="44.9064" ry="48.7555" transform="matrix(-1 0 0 1 144.242 142)" fill="white"/>
<ellipse cx="41.0573" cy="44.9064" rx="41.0573" ry="44.9064" transform="matrix(-1 0 0 1 144.242 144.566)" fill="#461E96"/>
<ellipse cx="35.9251" cy="35.9251" rx="35.9251" ry="35.9251" transform="matrix(-1 0 0 1 144.242 149.698)" fill="#242929"/>
<ellipse cx="14.1134" cy="14.1134" rx="14.1134" ry="14.1134" transform="matrix(-1 0 0 1 121.146 162.529)" fill="white"/>
<path d="M126.43 270.511C156.355 285.965 172.792 289.66 200.35 270.511" stroke="#242929" stroke-width="5" stroke-linecap="round"/>
<path d="M138.129 418.33L134.029 424.008L166.049 447.364L166.269 447.525L170.369 441.847L138.349 418.491L138.129 418.33Z" fill="white"/>
<path d="M159.05 418.491L158.83 418.33L154.73 424.008L186.75 447.364L186.97 447.525L191.07 441.847L159.05 418.491Z" fill="white"/>
<path d="M162.56 389.265C145.21 389.265 131.08 400.109 131.08 413.445V413.717H138.08V413.445C138.08 403.978 149.08 396.28 162.58 396.28C176.08 396.28 187.09 403.978 187.09 413.445V413.717H194.09V413.445C194.05 400.109 179.92 389.265 162.56 389.265Z" fill="white"/>
<path d="M187.01 452.449C187.01 461.917 176.01 469.615 162.5 469.615C148.99 469.615 138 461.917 138 452.449V452.178H131V452.449C131 465.776 145.13 476.569 162.48 476.569C179.83 476.569 193.97 465.726 193.97 452.449V452.178H186.97L187.01 452.449Z" fill="white"/>
</svg>
