<svg width="566" height="513" viewBox="0 0 566 513" fill="none" xmlns="http://www.w3.org/2000/svg">
<path d="M252.827 488C67.6267 543.2 91.9931 465 127.326 419C114.009 410.182 120.481 332.144 119.989 321.5C35.9863 285 2.98828 198 2.98828 126L35.9863 141C24.9863 116 48.3635 31 58.4852 3L152.826 45.5L163.988 21C313.488 85 332.772 186.5 301.489 264C377.889 207.2 410.66 254 414.326 285C429.526 302.6 484.326 397.667 484.826 413L508.326 440.5C606.727 432.1 549.326 477.667 508.326 501.5C392.326 522.3 289.66 501.167 252.827 488Z" fill="#A574CB"/>
<path d="M508.326 440.5C606.726 432.1 549.326 477.667 508.326 501.5C392.326 522.3 289.66 501.167 252.827 488C67.6267 543.2 91.9931 465 127.326 419C114.009 410.182 120.481 332.144 119.989 321.5M508.326 440.5L484.826 413C484.326 397.667 429.526 302.6 414.326 285M508.326 440.5C463.926 482.1 423.827 452.833 409.327 433L381.827 356.5M414.326 285C410.66 254 377.889 207.2 301.489 264M414.326 285L365.827 295L345.827 315H293.827M301.489 264C332.772 186.5 313.488 85 163.988 21L152.826 45.5L58.4852 3C48.3635 31 24.9863 116 35.9863 141L2.98828 126C2.98828 198 35.9863 285 119.989 321.5M301.489 264C280.499 316 219.827 331 177.827 327.5M119.989 321.5C119.387 308.485 124.009 313.06 129.326 306L152.826 327.5C173.993 334.167 205.027 401.8 199.827 419C194.627 436.2 182.994 466.5 177.827 479.5" stroke="#242929" stroke-width="5" stroke-linecap="round" stroke-linejoin="round"/>
<path d="M259.816 392.529L261.52 399.323L300.008 389.865L300.273 389.8L298.569 383.007L260.081 392.465L259.816 392.529Z" fill="white"/>
<path d="M273.411 376.628L273.146 376.693L274.85 383.486L313.338 374.028L313.603 373.964L311.899 367.17L273.411 376.628Z" fill="white"/>
<path d="M253.31 355.123C242.138 368.397 241.335 386.19 251.539 394.778L251.746 394.953L256.254 389.597L256.046 389.423C248.803 383.326 249.997 369.953 258.69 359.625C267.383 349.296 280.363 345.83 287.606 351.926L287.814 352.101L292.321 346.746L292.114 346.571C281.885 338.014 264.489 341.841 253.31 355.123Z" fill="white"/>
<path d="M317.396 377.104C324.639 383.2 323.445 396.573 314.746 406.91C306.046 417.246 293.079 420.697 285.836 414.6L285.629 414.426L281.121 419.781L281.329 419.956C291.524 428.537 308.881 424.677 320.054 411.403C331.226 398.129 332.035 380.328 321.878 371.779L321.67 371.604L317.163 376.96L317.396 377.104Z" fill="white"/>
<ellipse cx="218.539" cy="140.241" rx="44.9064" ry="48.7555" transform="rotate(-44.725 218.539 140.241)" fill="white"/>
<ellipse cx="214.903" cy="142.038" rx="41.0573" ry="44.9064" transform="rotate(-44.725 214.903 142.038)" fill="#461E96"/>
<ellipse cx="208.547" cy="142.915" rx="35.9251" ry="35.9251" transform="rotate(-44.725 208.547 142.915)" fill="#242929"/>
<ellipse cx="203.139" cy="135.631" rx="14.1134" ry="14.1134" transform="rotate(-44.725 203.139 135.631)" fill="white"/>
<ellipse cx="44.9064" cy="48.7555" rx="44.9064" ry="48.7555" transform="matrix(-0.710493 0.703705 0.703705 0.710493 125.803 163.473)" fill="white"/>
<ellipse cx="41.0573" cy="44.9064" rx="41.0573" ry="44.9064" transform="matrix(-0.710493 0.703705 0.703705 0.710493 127.609 165.296)" fill="#461E96"/>
<ellipse cx="35.9251" cy="35.9251" rx="35.9251" ry="35.9251" transform="matrix(-0.710493 0.703705 0.703705 0.710493 131.221 168.942)" fill="#242929"/>
<ellipse cx="14.1134" cy="14.1134" rx="14.1134" ry="14.1134" transform="matrix(-0.710493 0.703705 0.703705 0.710493 123.84 194.31)" fill="white"/>
<path d="M191.05 251.907L241.21 203.081C272.316 230.02 222.729 288.754 191.05 251.907Z" fill="#242929"/>
<path d="M203.891 243.594L232.554 215.694C231.062 227.602 214.74 244.884 203.891 243.594Z" fill="white"/>
</svg>
