<svg id="Layer_1" data-name="Layer 1" xmlns="http://www.w3.org/2000/svg" viewBox="0 0 161.22 161.22"><defs><style>.cls-1{fill:#fff;}</style></defs><path class="cls-1" d="M116.9,153.48H44.31A36.61,36.61,0,0,1,7.74,116.91V44.31A36.6,36.6,0,0,1,44.31,7.74H116.9a36.61,36.61,0,0,1,36.58,36.57v72.6A36.62,36.62,0,0,1,116.9,153.48ZM44.31,15.74A28.61,28.61,0,0,0,15.74,44.31v72.6a28.61,28.61,0,0,0,28.57,28.57H116.9a28.61,28.61,0,0,0,28.58-28.57V44.31A28.61,28.61,0,0,0,116.9,15.74Z"/><g id="New_lines" data-name="New lines"><polygon class="cls-1" points="56.2 66.07 52.1 71.72 84.12 94.96 84.34 95.12 88.44 89.47 56.42 66.22 56.2 66.07"/><polygon class="cls-1" points="77.12 66.22 76.91 66.07 72.8 71.72 104.82 94.96 105.04 95.12 109.14 89.47 77.12 66.22"/><path class="cls-1" d="M80.64,37.15c-17.36,0-31.48,10.79-31.48,24.05v.27h7V61.2c0-9.41,11-17.07,24.51-17.07s24.5,7.66,24.5,17.07v.27h7V61.2C112.12,47.94,98,37.15,80.64,37.15Z"/><path class="cls-1" d="M105.08,100c0,9.41-11,17.07-24.5,17.07s-24.5-7.66-24.5-17.07v-.27h-7V100c0,13.26,14.12,24,31.48,24s31.48-10.79,31.48-24v-.27h-7Z"/></g></svg>