<svg width="737" height="146" viewBox="0 0 737 146" fill="none" xmlns="http://www.w3.org/2000/svg">
<path d="M109.17 145.74H36.5699C26.875 145.727 17.581 141.87 10.7257 135.014C3.87037 128.159 0.0132282 118.865 0 109.17V36.57C0.0132282 26.8751 3.87037 17.581 10.7257 10.7257C17.581 3.87037 26.875 0.0132282 36.5699 0H109.17C118.866 0.0105877 128.161 3.8669 135.017 10.7228C141.873 17.5787 145.729 26.8743 145.74 36.57V109.17C145.729 118.866 141.873 128.161 135.017 135.017C128.161 141.873 118.866 145.729 109.17 145.74ZM36.5699 8C28.996 8.01058 21.7353 11.024 16.3796 16.3796C11.024 21.7353 8.01058 28.996 8 36.57V109.17C8.01058 116.744 11.024 124.005 16.3796 129.36C21.7353 134.716 28.996 137.729 36.5699 137.74H109.17C116.744 137.729 124.005 134.716 129.36 129.36C134.716 124.005 137.729 116.744 137.74 109.17V36.57C137.729 28.996 134.716 21.7353 129.36 16.3796C124.005 11.024 116.744 8.01058 109.17 8H36.5699Z" fill="url(#paint0_linear_450_1354)"/>
<path d="M48.47 58.33L44.37 63.98L76.39 87.22L76.6 87.38L80.7 81.73L48.47 58.33Z" fill="url(#paint1_linear_450_1354)"/>
<path d="M69.17 58.33L65.07 63.98L97.31 87.38L101.41 81.73L69.17 58.33Z" fill="url(#paint2_linear_450_1354)"/>
<path d="M72.9 29.41C55.54 29.41 41.42 40.2001 41.42 53.4601V53.73H48.42V53.4601C48.42 44.0501 59.42 36.39 72.92 36.39C86.42 36.39 97.42 44.0501 97.42 53.4601V53.73H104.42V53.4601C104.38 40.2001 90.26 29.41 72.9 29.41Z" fill="url(#paint3_linear_450_1354)"/>
<path d="M97.35 92.28C97.35 101.69 86.35 109.35 72.84 109.35C59.33 109.35 48.34 101.69 48.34 92.28V92.01H41.34V92.28C41.34 105.54 55.4599 116.33 72.8199 116.33C90.1799 116.33 104.3 105.54 104.3 92.28V92.01H97.3L97.35 92.28Z" fill="url(#paint4_linear_450_1354)"/>
<path d="M229.376 116.24C221.605 116.24 214.868 114.545 209.164 111.156C203.543 107.684 199.161 102.807 196.02 96.5239C192.961 90.2413 191.432 82.7599 191.432 74.0799C191.432 65.3999 193.044 57.9186 196.268 51.6359C199.575 45.3533 204.163 40.5173 210.032 37.1279C215.901 33.6559 222.639 31.9199 230.244 31.9199C238.345 31.9199 244.917 33.4493 249.96 36.5079C255.085 39.5666 259.219 44.2786 262.36 50.6439L253.308 55.6039C251.489 50.8919 248.596 47.3373 244.628 44.9399C240.743 42.4599 235.948 41.2199 230.244 41.2199C224.705 41.2199 219.787 42.5426 215.488 45.1879C211.272 47.7506 207.924 51.5119 205.444 56.4719C203.047 61.3493 201.848 67.2186 201.848 74.0799C201.848 80.9413 202.881 86.8519 204.948 91.8119C207.097 96.6893 210.239 100.451 214.372 103.096C218.588 105.659 223.713 106.94 229.748 106.94C233.137 106.94 236.279 106.527 239.172 105.7C242.148 104.791 244.711 103.468 246.86 101.732C249.092 99.9959 250.828 97.8053 252.068 95.1599C253.308 92.5146 253.928 89.4146 253.928 85.8599V83.0079H227.888V73.7079H262.98V115H255.168L254.672 99.7479L256.78 100.12C254.631 105.245 251.241 109.213 246.612 112.024C241.983 114.835 236.237 116.24 229.376 116.24Z" fill="black"/>
<path d="M303.979 116.24C298.109 116.24 292.86 114.959 288.231 112.396C283.684 109.833 280.129 106.155 277.567 101.36C275.004 96.4826 273.723 90.6959 273.723 83.9999C273.723 77.3039 275.004 71.5586 277.567 66.7639C280.129 61.8866 283.643 58.1666 288.107 55.6039C292.571 53.0413 297.655 51.7599 303.359 51.7599C309.145 51.7599 314.064 52.9999 318.115 55.4799C322.248 57.9599 325.389 61.3493 327.539 65.6479C329.688 69.8639 330.763 74.6173 330.763 79.9079C330.763 81.3133 330.721 82.5946 330.639 83.7519C330.556 84.9093 330.432 85.9426 330.267 86.8519H280.171V78.0479H325.927L320.843 79.0399C320.843 73.0879 319.189 68.4999 315.883 65.2759C312.659 62.0519 308.401 60.4399 303.111 60.4399C299.06 60.4399 295.547 61.3906 292.571 63.2919C289.677 65.1106 287.404 67.7973 285.751 71.3519C284.18 74.8239 283.395 79.0399 283.395 83.9999C283.395 88.8773 284.221 93.0933 285.875 96.6479C287.528 100.203 289.843 102.931 292.819 104.832C295.877 106.651 299.515 107.56 303.731 107.56C308.277 107.56 311.956 106.692 314.767 104.956C317.66 103.22 319.975 100.864 321.711 97.8879L329.523 102.476C327.952 105.287 325.927 107.725 323.447 109.792C321.049 111.859 318.197 113.471 314.891 114.628C311.667 115.703 308.029 116.24 303.979 116.24Z" fill="black"/>
<path d="M343.429 115V52.9999H352.109L352.977 66.8879L351.365 65.5239C352.688 62.2173 354.465 59.5719 356.697 57.5879C358.929 55.5213 361.492 54.0333 364.385 53.1239C367.361 52.2146 370.42 51.7599 373.561 51.7599C378.025 51.7599 382.076 52.6279 385.713 54.3639C389.35 56.0173 392.244 58.5799 394.393 62.0519C396.625 65.5239 397.741 69.9466 397.741 75.3199V115H387.821V78.7919C387.821 71.9306 386.333 67.1773 383.357 64.5319C380.464 61.8039 376.868 60.4399 372.569 60.4399C369.593 60.4399 366.617 61.1426 363.641 62.5479C360.665 63.9533 358.185 66.2266 356.201 69.3679C354.3 72.5093 353.349 76.7253 353.349 82.0159V115H343.429Z" fill="black"/>
<path d="M439.918 116.24C434.049 116.24 428.8 114.959 424.17 112.396C419.624 109.833 416.069 106.155 413.506 101.36C410.944 96.4826 409.662 90.6959 409.662 83.9999C409.662 77.3039 410.944 71.5586 413.506 66.7639C416.069 61.8866 419.582 58.1666 424.046 55.6039C428.51 53.0413 433.594 51.7599 439.298 51.7599C445.085 51.7599 450.004 52.9999 454.054 55.4799C458.188 57.9599 461.329 61.3493 463.478 65.6479C465.628 69.8639 466.702 74.6173 466.702 79.9079C466.702 81.3133 466.661 82.5946 466.578 83.7519C466.496 84.9093 466.372 85.9426 466.206 86.8519H416.11V78.0479H461.866L456.782 79.0399C456.782 73.0879 455.129 68.4999 451.822 65.2759C448.598 62.0519 444.341 60.4399 439.05 60.4399C435 60.4399 431.486 61.3906 428.51 63.2919C425.617 65.1106 423.344 67.7973 421.69 71.3519C420.12 74.8239 419.334 79.0399 419.334 83.9999C419.334 88.8773 420.161 93.0933 421.814 96.6479C423.468 100.203 425.782 102.931 428.758 104.832C431.817 106.651 435.454 107.56 439.67 107.56C444.217 107.56 447.896 106.692 450.706 104.956C453.6 103.22 455.914 100.864 457.65 97.8879L465.462 102.476C463.892 105.287 461.866 107.725 459.386 109.792C456.989 111.859 454.137 113.471 450.83 114.628C447.606 115.703 443.969 116.24 439.918 116.24Z" fill="black"/>
<path d="M479.369 115V52.9999H487.429L488.793 63.1679C490.529 59.3653 493.05 56.5133 496.357 54.6119C499.746 52.7106 503.838 51.7599 508.633 51.7599C509.708 51.7599 510.865 51.8426 512.105 52.0079C513.428 52.1733 514.544 52.5039 515.453 52.9999L513.717 62.0519C512.808 61.7213 511.816 61.4733 510.741 61.3079C509.666 61.1426 508.137 61.0599 506.153 61.0599C503.59 61.0599 500.986 61.8039 498.341 63.2919C495.778 64.7799 493.629 67.0533 491.893 70.1119C490.157 73.0879 489.289 76.8906 489.289 81.5199V115H479.369Z" fill="black"/>
<path d="M558.299 74.9479C558.299 70.3186 557.059 66.7639 554.579 64.2839C552.099 61.7213 548.585 60.4399 544.039 60.4399C539.74 60.4399 536.103 61.3906 533.127 63.2919C530.151 65.1106 527.96 68.0866 526.555 72.2199L518.495 67.2599C520.148 62.6306 523.207 58.9106 527.671 56.0999C532.135 53.2066 537.673 51.7599 544.287 51.7599C548.751 51.7599 552.801 52.5453 556.439 54.1159C560.076 55.6039 562.928 57.9186 564.995 61.0599C567.144 64.1186 568.219 68.0866 568.219 72.9639V102.972C568.219 105.948 569.789 107.436 572.931 107.436C574.501 107.436 576.031 107.229 577.519 106.816L577.023 114.628C575.369 115.455 573.22 115.868 570.575 115.868C568.177 115.868 566.028 115.413 564.127 114.504C562.225 113.595 560.737 112.231 559.663 110.412C558.588 108.511 558.051 106.155 558.051 103.344V102.104L560.531 102.476C559.539 105.7 557.844 108.345 555.447 110.412C553.049 112.396 550.363 113.884 547.387 114.876C544.411 115.785 541.476 116.24 538.583 116.24C534.945 116.24 531.556 115.62 528.415 114.38C525.273 113.14 522.752 111.28 520.851 108.8C519.032 106.237 518.123 103.096 518.123 99.3759C518.123 94.7466 519.652 90.9439 522.711 87.9679C525.852 84.9093 530.192 82.8426 535.731 81.7679L560.283 76.9319V85.1159L540.319 89.2079C536.268 90.0346 533.251 91.1919 531.267 92.6799C529.283 94.1679 528.291 96.2346 528.291 98.8799C528.291 101.443 529.283 103.551 531.267 105.204C533.333 106.775 536.227 107.56 539.947 107.56C542.344 107.56 544.617 107.271 546.767 106.692C548.999 106.031 550.983 105.08 552.719 103.84C554.455 102.517 555.819 100.905 556.811 99.0039C557.803 97.0199 558.299 94.7053 558.299 92.0599V74.9479Z" fill="black"/>
<path d="M598.335 35.3919V97.8879C598.335 100.947 599.203 103.22 600.939 104.708C602.675 106.196 604.907 106.94 607.635 106.94C610.033 106.94 612.099 106.527 613.835 105.7C615.571 104.873 617.142 103.757 618.547 102.352L622.019 110.66C620.118 112.396 617.845 113.76 615.199 114.752C612.637 115.744 609.661 116.24 606.271 116.24C603.13 116.24 600.195 115.703 597.467 114.628C594.739 113.471 592.549 111.693 590.895 109.296C589.325 106.816 588.498 103.592 588.415 99.6239V38.1199L598.335 35.3919ZM620.903 52.9999V61.5559H576.015V52.9999H620.903Z" fill="black"/>
<path d="M655.12 51.7599C660.99 51.7599 666.156 53.0413 670.62 55.6039C675.167 58.1666 678.722 61.8866 681.284 66.7639C683.847 71.5586 685.128 77.3039 685.128 83.9999C685.128 90.6959 683.847 96.4826 681.284 101.36C678.722 106.155 675.167 109.833 670.62 112.396C666.156 114.959 660.99 116.24 655.12 116.24C649.334 116.24 644.167 114.959 639.62 112.396C635.074 109.833 631.519 106.155 628.956 101.36C626.394 96.4826 625.112 90.6959 625.112 83.9999C625.112 77.3039 626.394 71.5586 628.956 66.7639C631.519 61.8866 635.074 58.1666 639.62 55.6039C644.167 53.0413 649.334 51.7599 655.12 51.7599ZM655.12 60.3159C650.904 60.3159 647.308 61.2666 644.332 63.1679C641.356 65.0693 639.042 67.7973 637.388 71.3519C635.818 74.8239 635.032 79.0399 635.032 83.9999C635.032 88.8773 635.818 93.0933 637.388 96.6479C639.042 100.203 641.356 102.931 644.332 104.832C647.308 106.733 650.904 107.684 655.12 107.684C659.336 107.684 662.932 106.733 665.908 104.832C668.884 102.931 671.158 100.203 672.728 96.6479C674.382 93.0933 675.208 88.8773 675.208 83.9999C675.208 79.0399 674.382 74.8239 672.728 71.3519C671.158 67.7973 668.884 65.0693 665.908 63.1679C662.932 61.2666 659.336 60.3159 655.12 60.3159Z" fill="black"/>
<path d="M697.604 115V52.9999H705.664L707.028 63.1679C708.764 59.3653 711.285 56.5133 714.592 54.6119C717.981 52.7106 722.073 51.7599 726.868 51.7599C727.943 51.7599 729.1 51.8426 730.34 52.0079C731.663 52.1733 732.779 52.5039 733.688 52.9999L731.952 62.0519C731.043 61.7213 730.051 61.4733 728.976 61.3079C727.901 61.1426 726.372 61.0599 724.388 61.0599C721.825 61.0599 719.221 61.8039 716.576 63.2919C714.013 64.7799 711.864 67.0533 710.128 70.1119C708.392 73.0879 707.524 76.8906 707.524 81.5199V115H697.604Z" fill="black"/>
<defs>
<linearGradient id="paint0_linear_450_1354" x1="146" y1="0" x2="0" y2="146" gradientUnits="userSpaceOnUse">
<stop stop-color="#FDA57F"/>
<stop offset="1" stop-color="#F84D04"/>
</linearGradient>
<linearGradient id="paint1_linear_450_1354" x1="146" y1="0" x2="0" y2="146" gradientUnits="userSpaceOnUse">
<stop stop-color="#FDA57F"/>
<stop offset="1" stop-color="#F84D04"/>
</linearGradient>
<linearGradient id="paint2_linear_450_1354" x1="146" y1="0" x2="0" y2="146" gradientUnits="userSpaceOnUse">
<stop stop-color="#FDA57F"/>
<stop offset="1" stop-color="#F84D04"/>
</linearGradient>
<linearGradient id="paint3_linear_450_1354" x1="146" y1="0" x2="0" y2="146" gradientUnits="userSpaceOnUse">
<stop stop-color="#FDA57F"/>
<stop offset="1" stop-color="#F84D04"/>
</linearGradient>
<linearGradient id="paint4_linear_450_1354" x1="146" y1="0" x2="0" y2="146" gradientUnits="userSpaceOnUse">
<stop stop-color="#FDA57F"/>
<stop offset="1" stop-color="#F84D04"/>
</linearGradient>
</defs>
</svg>
