<svg width="600" height="159" viewBox="0 0 600 159" fill="none" xmlns="http://www.w3.org/2000/svg">
<rect width="600" height="159" rx="10" fill="#4775B9"/>
<g clip-path="url(#clip0_112_11)" filter="url(#filter0_d_112_11)">
<path d="M259.519 41.915H263.249L271.892 67.0458H268.807L266.834 61.0196H256.039L254.026 67.0458H250.908L259.519 41.915ZM266.011 58.3856L261.433 44.6928L256.769 58.3856H266.011Z" fill="white"/>
<path d="M276.503 66.902C275.411 66.3915 274.467 65.6133 273.76 64.6405C273.07 63.683 272.67 62.5488 272.609 61.3725L275.24 60.7647C275.269 61.6147 275.528 62.4412 275.99 63.1569C276.441 63.8409 277.077 64.3846 277.825 64.7255C278.624 65.0883 279.493 65.2713 280.371 65.2614C281.115 65.2737 281.855 65.1519 282.555 64.902C283.161 64.6936 283.701 64.3307 284.121 63.8497C284.498 63.433 284.708 62.8936 284.713 62.3333C284.72 62.0493 284.664 61.7672 284.551 61.5066C284.437 61.2459 284.268 61.0128 284.055 60.8235C283.594 60.4126 283.055 60.0971 282.47 59.8954C281.851 59.6667 281.035 59.4248 280.036 59.1634C278.881 58.8839 277.747 58.5257 276.641 58.0915C275.789 57.7494 275.033 57.2066 274.438 56.5098C273.81 55.7274 273.489 54.7448 273.537 53.7451C273.527 52.7768 273.809 51.8278 274.346 51.0196C274.884 50.1816 275.641 49.504 276.536 49.0588C277.501 48.5855 278.565 48.348 279.641 48.366C280.72 48.3548 281.787 48.5919 282.759 49.0588C283.681 49.4977 284.483 50.1526 285.094 50.9673C285.681 51.7614 286.04 52.6988 286.133 53.6797L283.502 54.3333C283.508 53.8401 283.407 53.3513 283.207 52.9002C283.006 52.4491 282.709 52.0462 282.338 51.7189C281.721 51.2273 280.981 50.9125 280.197 50.8089C279.413 50.7052 278.616 50.8165 277.891 51.1307C277.399 51.3462 276.976 51.6922 276.668 52.1307C276.373 52.5479 276.217 53.0459 276.22 53.5555C276.212 53.8406 276.267 54.124 276.381 54.3859C276.494 54.6478 276.664 54.8819 276.878 55.0719C277.262 55.4308 277.708 55.7186 278.194 55.9216C279.09 56.2274 280.007 56.472 280.937 56.6536C282.072 56.9486 283.183 57.331 284.259 57.7974C285.119 58.174 285.884 58.7341 286.502 59.4379C287.109 60.1525 287.428 61.0654 287.396 62C287.406 63.0438 287.079 64.0631 286.462 64.9085C285.817 65.7973 284.945 66.499 283.936 66.9412C282.759 67.4348 281.491 67.6814 280.213 67.6657C278.936 67.6499 277.675 67.3721 276.51 66.8497L276.503 66.902Z" fill="white"/>
<path d="M292.021 75.2091C290.906 74.7376 289.899 74.0461 289.061 73.1765C288.209 72.304 287.538 71.2735 287.087 70.1438L289.383 68.6144C289.742 69.9924 290.532 71.2215 291.639 72.1242C292.725 72.9963 294.085 73.4592 295.481 73.4314C296.53 73.455 297.562 73.1634 298.441 72.5948C299.289 72.0202 299.97 71.2333 300.414 70.3137C300.92 69.2988 301.173 68.178 301.151 67.0458L301.112 64.6209C300.771 65.2235 300.326 65.7613 299.796 66.2091C299.249 66.669 298.629 67.0356 297.961 67.2941C297.312 67.552 296.62 67.6851 295.922 67.6863C294.763 67.7105 293.623 67.4029 292.636 66.8002C291.649 66.1975 290.858 65.3252 290.357 64.2876C289.813 63.1467 289.542 61.8961 289.567 60.634V49.0457H292.35V60.6667C292.33 61.4831 292.501 62.293 292.85 63.0327C293.169 63.6937 293.665 64.2545 294.284 64.6536C294.926 65.0642 295.677 65.2758 296.441 65.2614C297.287 65.2667 298.117 65.0406 298.842 64.6078C299.558 64.1803 300.146 63.5712 300.546 62.8431C300.973 62.0616 301.188 61.1832 301.171 60.2941V49.0457H303.901L303.927 67.1046C303.958 68.6944 303.589 70.2668 302.855 71.6797C302.168 72.9913 301.127 74.0874 299.849 74.8456C298.572 75.6038 297.107 75.9945 295.619 75.9739C294.38 75.9642 293.156 75.704 292.021 75.2091V75.2091Z" fill="white"/>
<path d="M307.519 49.0458H309.992L310.242 51.4314C310.748 50.4993 311.507 49.7271 312.432 49.2026C313.342 48.6586 314.383 48.3695 315.445 48.366C316.609 48.3503 317.752 48.6729 318.734 49.2941C319.704 49.9103 320.487 50.7782 320.997 51.8039C321.552 52.9302 321.829 54.1712 321.806 55.4248V67.0458H319.043V55.4248C319.057 54.6145 318.891 53.811 318.557 53.0719C318.25 52.4031 317.751 51.8392 317.123 51.451C316.47 51.0532 315.717 50.8491 314.952 50.8628C314.117 50.8601 313.298 51.0862 312.584 51.5163C311.864 51.9451 311.27 52.5535 310.86 53.2811C310.419 54.0582 310.192 54.9376 310.202 55.8301V67.0588H307.479L307.519 49.0458Z" fill="white"/>
<path d="M328.575 66.451C327.27 65.6006 326.228 64.4086 325.562 63.0065C324.824 61.4538 324.468 59.749 324.523 58.0327C324.492 56.3133 324.828 54.6069 325.51 53.0261C326.099 51.6483 327.059 50.4586 328.285 49.5882C329.37 48.8616 330.63 48.4356 331.935 48.354C333.241 48.2725 334.544 48.5383 335.712 49.1242C336.705 49.6357 337.57 50.3615 338.245 51.2484C338.939 52.1725 339.422 53.2367 339.659 54.366L337.028 55.0784C336.76 53.8889 336.155 52.8004 335.284 51.9412C334.9 51.5624 334.445 51.2633 333.943 51.0613C333.442 50.8593 332.905 50.7585 332.364 50.7647C331.405 50.7602 330.474 51.0884 329.733 51.6928C328.895 52.3733 328.256 53.2649 327.884 54.2745C327.428 55.4746 327.204 56.7499 327.226 58.0327C327.201 59.3189 327.453 60.5956 327.963 61.7778C328.397 62.8157 329.103 63.7187 330.009 64.3922C330.868 65.0146 331.906 65.3447 332.969 65.3333C333.89 65.3605 334.8 65.1343 335.6 64.6797C336.386 64.2224 337.041 63.5719 337.501 62.7908C338.006 61.9509 338.331 61.0163 338.455 60.0457L341.086 60.6209C340.917 61.9451 340.43 63.2093 339.665 64.3072C338.939 65.3693 337.961 66.2379 336.817 66.8366C335.534 67.486 334.104 67.7964 332.665 67.738C331.226 67.6797 329.827 67.2544 328.601 66.5033L328.575 66.451Z" fill="white"/>
<path d="M350.71 41.8105H356.018L364.662 67.0457H360.182L358.419 61.451H348.375L346.513 67.0457H342.099L350.71 41.8105ZM357.472 57.9935L353.42 45.5752L349.296 57.9935H357.472Z" fill="white"/>
<path d="M367.069 41.8105H377.042C378.616 41.7842 380.175 42.1244 381.594 42.8039C382.888 43.4271 383.987 44.3898 384.771 45.5882C385.526 46.8069 385.925 48.2097 385.925 49.6405C385.925 51.0714 385.526 52.4742 384.771 53.6928C383.979 54.8891 382.883 55.8564 381.594 56.4967C380.186 57.1978 378.629 57.5519 377.055 57.5294H371.286V67.0458H367.089L367.069 41.8105ZM376.548 53.9608C377.434 53.9708 378.311 53.7832 379.114 53.4118C379.852 53.0733 380.484 52.5425 380.942 51.8758C381.383 51.2159 381.613 50.4389 381.6 49.6471C381.607 48.858 381.378 48.0846 380.942 47.4248C380.497 46.7591 379.876 46.2278 379.147 45.8889C378.324 45.5069 377.424 45.3169 376.515 45.3333H371.286V53.9608H376.548Z" fill="white"/>
<path d="M388.698 41.8105H392.993V67.0457H388.685L388.698 41.8105Z" fill="white"/>
<path d="M221.143 77C212.795 77 206.013 71.9673 206.013 65.7843H209.013C209.013 70.3595 214.459 74.0196 221.156 74.0196C227.852 74.0196 233.292 70.3268 233.292 65.7843H236.292C236.279 71.9673 229.49 77 221.143 77Z" fill="white"/>
<path d="M236.279 46.1896H233.279C233.279 41.6536 227.832 37.9608 221.143 37.9608C214.453 37.9608 209 41.6536 209 46.1896H206C206 40.0065 212.795 34.9804 221.129 34.9804C229.464 34.9804 236.279 40.0262 236.279 46.1896Z" fill="white"/>
<path d="M209.77 49.1782L208.01 51.5921L223.605 62.8125L225.364 60.3986L209.77 49.1782Z" fill="white"/>
<path d="M218.79 49.1586L217.031 51.5725L232.625 62.7929L234.384 60.379L218.79 49.1586Z" fill="white"/>
</g>
<g filter="url(#filter1_d_112_11)">
<rect x="262" y="94" width="76" height="29" rx="8" fill="#63BA90"/>
<rect x="262.5" y="94.5" width="75" height="28" rx="7.5" stroke="white" stroke-opacity="0.43"/>
<path d="M280.206 112V104.08H283.326C284.278 104.08 284.974 104.272 285.414 104.656C285.854 105.04 286.074 105.572 286.074 106.252C286.074 106.668 285.954 107.04 285.714 107.368C285.474 107.688 285.122 107.892 284.658 107.98V107.992C285.17 108.072 285.566 108.284 285.846 108.628C286.134 108.964 286.278 109.356 286.278 109.804C286.278 110.484 286.03 111.02 285.534 111.412C285.038 111.804 284.318 112 283.374 112H280.206ZM281.466 110.932H283.434C283.938 110.932 284.314 110.828 284.562 110.62C284.818 110.412 284.946 110.12 284.946 109.744C284.946 109.368 284.818 109.076 284.562 108.868C284.314 108.66 283.938 108.556 283.434 108.556H281.466V110.932ZM281.466 107.488H283.23C284.238 107.488 284.742 107.1 284.742 106.324C284.742 105.548 284.238 105.16 283.23 105.16H281.466V107.488ZM291.499 104.08C292.347 104.08 293.019 104.292 293.515 104.716C294.019 105.14 294.271 105.712 294.271 106.432C294.271 107.176 294.019 107.752 293.515 108.16C293.019 108.56 292.347 108.76 291.499 108.76L291.379 108.832H289.543V112H288.271V104.08H291.499ZM291.403 107.764C291.923 107.764 292.307 107.66 292.555 107.452C292.811 107.236 292.939 106.908 292.939 106.468C292.939 106.036 292.811 105.712 292.555 105.496C292.307 105.28 291.923 105.172 291.403 105.172H289.543V107.764H291.403ZM292.159 108.028L294.739 112H293.263L291.055 108.532L292.159 108.028ZM303.029 112H301.673L300.917 109.924H297.593L296.837 112H295.517L298.505 104.08H300.041L303.029 112ZM297.953 108.88H300.557L299.261 105.184L297.953 108.88ZM311.046 104.08V112H309.522L306.462 107.008L305.694 105.604H305.682L305.73 106.888V112H304.554V104.08H306.066L309.114 109.06L309.894 110.488H309.906L309.858 109.192V104.08H311.046ZM316.306 104.08C317.546 104.08 318.51 104.424 319.198 105.112C319.894 105.792 320.242 106.768 320.242 108.04C320.242 109.312 319.894 110.292 319.198 110.98C318.51 111.66 317.546 112 316.306 112H313.51V104.08H316.306ZM316.306 110.908C317.146 110.908 317.786 110.66 318.226 110.164C318.674 109.66 318.898 108.952 318.898 108.04C318.898 107.128 318.674 106.424 318.226 105.928C317.786 105.424 317.146 105.172 316.306 105.172H314.794V110.908H316.306Z" fill="white"/>
</g>
<defs>
<filter id="filter0_d_112_11" x="197" y="26" width="205" height="60" filterUnits="userSpaceOnUse" color-interpolation-filters="sRGB">
<feFlood flood-opacity="0" result="BackgroundImageFix"/>
<feColorMatrix in="SourceAlpha" type="matrix" values="0 0 0 0 0 0 0 0 0 0 0 0 0 0 0 0 0 0 127 0" result="hardAlpha"/>
<feOffset/>
<feGaussianBlur stdDeviation="4.5"/>
<feComposite in2="hardAlpha" operator="out"/>
<feColorMatrix type="matrix" values="0 0 0 0 0.220417 0 0 0 0 0.363494 0 0 0 0 0.575 0 0 0 0.5 0"/>
<feBlend mode="normal" in2="BackgroundImageFix" result="effect1_dropShadow_112_11"/>
<feBlend mode="normal" in="SourceGraphic" in2="effect1_dropShadow_112_11" result="shape"/>
</filter>
<filter id="filter1_d_112_11" x="253" y="85" width="94" height="47" filterUnits="userSpaceOnUse" color-interpolation-filters="sRGB">
<feFlood flood-opacity="0" result="BackgroundImageFix"/>
<feColorMatrix in="SourceAlpha" type="matrix" values="0 0 0 0 0 0 0 0 0 0 0 0 0 0 0 0 0 0 127 0" result="hardAlpha"/>
<feOffset/>
<feGaussianBlur stdDeviation="4.5"/>
<feComposite in2="hardAlpha" operator="out"/>
<feColorMatrix type="matrix" values="0 0 0 0 0.220417 0 0 0 0 0.363494 0 0 0 0 0.575 0 0 0 0.5 0"/>
<feBlend mode="normal" in2="BackgroundImageFix" result="effect1_dropShadow_112_11"/>
<feBlend mode="normal" in="SourceGraphic" in2="effect1_dropShadow_112_11" result="shape"/>
</filter>
<clipPath id="clip0_112_11">
<rect width="187" height="42" fill="white" transform="translate(206 35)"/>
</clipPath>
</defs>
</svg>
