<svg width="870" height="195" viewBox="0 0 870 195" fill="none" xmlns="http://www.w3.org/2000/svg">
<rect width="870" height="195" rx="10" fill="#4775B9"/>
<g clip-path="url(#clip0_112_11)" filter="url(#filter0_d_112_11)">
<path d="M287.927 74.3608H294.055L308.255 115.649H303.187L299.944 105.748H282.21L278.903 115.649H273.78L287.927 74.3608ZM298.594 101.421L291.072 78.9245L283.41 101.421H298.594Z" fill="white"/>
<path d="M315.831 115.412C314.036 114.574 312.485 113.295 311.324 111.697C310.19 110.124 309.534 108.26 309.433 106.328L313.756 105.329C313.803 106.726 314.228 108.084 314.988 109.259C315.729 110.383 316.774 111.276 318.003 111.837C319.315 112.433 320.743 112.733 322.186 112.717C323.408 112.737 324.623 112.537 325.774 112.126C326.769 111.784 327.656 111.188 328.346 110.398C328.965 109.713 329.311 108.827 329.318 107.906C329.33 107.44 329.239 106.976 329.052 106.548C328.866 106.12 328.588 105.737 328.238 105.426C327.48 104.751 326.595 104.233 325.633 103.901C324.617 103.525 323.277 103.128 321.634 102.698C319.737 102.239 317.874 101.651 316.058 100.937C314.657 100.375 313.415 99.4836 312.437 98.3388C311.406 97.0534 310.879 95.4391 310.957 93.7967C310.941 92.2059 311.404 90.6467 312.286 89.3189C313.171 87.9421 314.415 86.829 315.885 86.0975C317.47 85.3199 319.219 84.9297 320.986 84.9593C322.759 84.9408 324.512 85.3304 326.109 86.0975C327.624 86.8185 328.941 87.8946 329.945 89.233C330.91 90.5375 331.5 92.0777 331.653 93.6893L327.33 94.7631C327.34 93.9527 327.174 93.1497 326.844 92.4085C326.514 91.6674 326.027 91.0055 325.417 90.4679C324.404 89.6601 323.187 89.143 321.9 88.9727C320.612 88.8023 319.302 88.9852 318.111 89.5014C317.302 89.8556 316.607 90.4239 316.101 91.1444C315.617 91.8298 315.36 92.648 315.366 93.4853C315.353 93.9536 315.443 94.4191 315.63 94.8494C315.816 95.2797 316.095 95.6643 316.447 95.9765C317.078 96.5661 317.81 97.0389 318.608 97.3724C320.081 97.8749 321.587 98.2767 323.115 98.5751C324.981 99.0597 326.805 99.688 328.573 100.454C329.985 101.073 331.243 101.993 332.258 103.149C333.255 104.323 333.779 105.823 333.728 107.359C333.743 109.074 333.205 110.748 332.193 112.137C331.133 113.597 329.701 114.75 328.043 115.477C326.108 116.288 324.026 116.693 321.927 116.667C319.827 116.641 317.756 116.185 315.842 115.326L315.831 115.412Z" fill="white"/>
<path d="M341.325 129.06C339.493 128.286 337.839 127.149 336.462 125.721C335.063 124.287 333.961 122.594 333.22 120.738L336.991 118.226C337.58 120.49 338.879 122.509 340.698 123.992C342.481 125.425 344.717 126.185 347.01 126.14C348.733 126.178 350.428 125.699 351.873 124.765C353.267 123.821 354.385 122.528 355.115 121.018C355.946 119.35 356.361 117.509 356.325 115.648L356.261 111.665C355.701 112.655 354.969 113.538 354.099 114.274C353.2 115.029 352.181 115.632 351.084 116.057C350.018 116.48 348.881 116.699 347.734 116.701C345.831 116.741 343.957 116.235 342.336 115.245C340.714 114.255 339.414 112.822 338.591 111.117C337.697 109.243 337.253 107.188 337.294 105.115V86.076H341.865V105.168C341.833 106.51 342.114 107.84 342.687 109.055C343.211 110.141 344.026 111.063 345.043 111.718C346.099 112.393 347.332 112.741 348.587 112.717C349.977 112.726 351.341 112.354 352.532 111.643C353.708 110.941 354.674 109.94 355.331 108.744C356.033 107.46 356.387 106.017 356.358 104.556V86.076H360.843L360.886 115.745C360.936 118.357 360.331 120.94 359.124 123.262C357.995 125.417 356.286 127.217 354.187 128.463C352.088 129.709 349.681 130.35 347.237 130.317C345.201 130.301 343.189 129.873 341.325 129.06V129.06Z" fill="white"/>
<path d="M366.787 86.076H370.85L371.261 89.9954C372.092 88.464 373.339 87.1953 374.86 86.3337C376.354 85.4399 378.065 84.965 379.809 84.9592C381.721 84.9335 383.6 85.4634 385.213 86.484C386.807 87.4964 388.092 88.9222 388.93 90.6074C389.842 92.4578 390.297 94.4967 390.26 96.5563V115.649H385.721V96.5563C385.744 95.225 385.471 93.9049 384.921 92.6906C384.417 91.5918 383.597 90.6654 382.565 90.0276C381.493 89.3741 380.256 89.0388 378.999 89.0612C377.627 89.0568 376.281 89.4283 375.108 90.135C373.926 90.8394 372.95 91.8389 372.277 93.0342C371.551 94.311 371.178 95.7558 371.196 97.2221V115.67H366.722L366.787 86.076Z" fill="white"/>
<path d="M401.38 114.671C399.237 113.274 397.524 111.316 396.431 109.012C395.218 106.461 394.633 103.661 394.723 100.841C394.672 98.0159 395.224 95.2125 396.344 92.6155C397.313 90.3517 398.891 88.3973 400.905 86.9673C402.687 85.7736 404.757 85.0736 406.901 84.9396C409.046 84.8056 411.188 85.2424 413.106 86.2049C414.738 87.0453 416.159 88.2377 417.267 89.6947C418.408 91.2131 419.201 92.9614 419.59 94.8168L415.268 95.9872C414.827 94.0329 413.833 92.2446 412.404 90.833C411.773 90.2106 411.024 89.7192 410.2 89.3874C409.376 89.0556 408.494 88.8899 407.605 88.9001C406.03 88.8927 404.501 89.4319 403.282 90.4249C401.906 91.5429 400.857 93.0078 400.246 94.6664C399.495 96.638 399.129 98.7333 399.165 100.841C399.124 102.954 399.536 105.051 400.375 106.994C401.088 108.699 402.249 110.182 403.736 111.289C405.147 112.311 406.853 112.854 408.599 112.835C410.112 112.88 411.608 112.508 412.922 111.761C414.214 111.01 415.289 109.941 416.046 108.658C416.875 107.278 417.409 105.743 417.613 104.148L421.935 105.093C421.657 107.269 420.857 109.346 419.601 111.149C418.407 112.894 416.8 114.321 414.922 115.305C412.813 116.372 410.464 116.882 408.1 116.786C405.737 116.69 403.437 115.991 401.424 114.757L401.38 114.671Z" fill="white"/>
<path d="M437.746 74.189H446.468L460.668 115.649H453.309L450.412 106.457H433.91L430.851 115.649H423.6L437.746 74.189ZM448.856 100.776L442.199 80.3741L435.423 100.776H448.856Z" fill="white"/>
<path d="M464.624 74.189H481.007C483.594 74.1458 486.155 74.7048 488.486 75.8212C490.613 76.8449 492.418 78.4267 493.706 80.3956C494.946 82.3977 495.602 84.7023 495.602 87.0531C495.602 89.4039 494.946 91.7086 493.706 93.7107C492.404 95.6762 490.604 97.2653 488.486 98.3173C486.173 99.469 483.616 100.051 481.029 100.014H471.551V115.648H464.656L464.624 74.189ZM480.197 94.151C481.652 94.1674 483.092 93.8591 484.412 93.249C485.624 92.6929 486.662 91.8209 487.416 90.7255C488.14 89.6414 488.517 88.3649 488.497 87.0639C488.508 85.7675 488.132 84.4968 487.416 83.413C486.684 82.3192 485.663 81.4464 484.466 80.8895C483.113 80.2619 481.635 79.9497 480.143 79.9768H471.551V94.151H480.197Z" fill="white"/>
<path d="M500.158 74.189H507.215V115.649H500.136L500.158 74.189Z" fill="white"/>
<path d="M224.878 132.002C211.164 132.002 200.022 123.734 200.022 113.576H204.95C204.95 121.093 213.898 127.106 224.9 127.106C235.901 127.106 244.839 121.039 244.839 113.576H249.767C249.745 123.734 238.592 132.002 224.878 132.002Z" fill="white"/>
<path d="M249.745 81.3835H244.817C244.817 73.9313 235.869 67.8643 224.878 67.8643C213.887 67.8643 204.928 73.9313 204.928 81.3835H200C200 71.2253 211.164 62.9678 224.856 62.9678C238.549 62.9678 249.745 71.2575 249.745 81.3835Z" fill="white"/>
<path d="M206.193 86.2935L203.303 90.2594L228.923 108.694L231.814 104.728L206.193 86.2935Z" fill="white"/>
<path d="M221.013 86.2614L218.123 90.2273L243.743 108.661L246.633 104.696L221.013 86.2614Z" fill="white"/>
</g>
<g filter="url(#filter1_d_112_11)">
<rect x="545.138" y="70.8441" width="124.862" height="47.6446" rx="8" fill="#63BA90"/>
<rect x="545.638" y="71.3441" width="123.862" height="46.6446" rx="7.5" stroke="white" stroke-opacity="0.43"/>
<path d="M578.373 100V88.12H583.053C584.481 88.12 585.525 88.408 586.185 88.984C586.845 89.56 587.175 90.358 587.175 91.378C587.175 92.002 586.995 92.56 586.635 93.052C586.275 93.532 585.747 93.838 585.051 93.97V93.988C585.819 94.108 586.413 94.426 586.833 94.942C587.265 95.446 587.481 96.034 587.481 96.706C587.481 97.726 587.109 98.53 586.365 99.118C585.621 99.706 584.541 100 583.125 100H578.373ZM580.263 98.398H583.215C583.971 98.398 584.535 98.242 584.907 97.93C585.291 97.618 585.483 97.18 585.483 96.616C585.483 96.052 585.291 95.614 584.907 95.302C584.535 94.99 583.971 94.834 583.215 94.834H580.263V98.398ZM580.263 93.232H582.909C584.421 93.232 585.177 92.65 585.177 91.486C585.177 90.322 584.421 89.74 582.909 89.74H580.263V93.232ZM595.313 88.12C596.585 88.12 597.593 88.438 598.337 89.074C599.093 89.71 599.471 90.568 599.471 91.648C599.471 92.764 599.093 93.628 598.337 94.24C597.593 94.84 596.585 95.14 595.313 95.14L595.133 95.248H592.379V100H590.471V88.12H595.313ZM595.169 93.646C595.949 93.646 596.525 93.49 596.897 93.178C597.281 92.854 597.473 92.362 597.473 91.702C597.473 91.054 597.281 90.568 596.897 90.244C596.525 89.92 595.949 89.758 595.169 89.758H592.379V93.646H595.169ZM596.303 94.042L600.173 100H597.959L594.647 94.798L596.303 94.042ZM612.608 100H610.574L609.44 96.886H604.454L603.32 100H601.34L605.822 88.12H608.126L612.608 100ZM604.994 95.32H608.9L606.956 89.776L604.994 95.32ZM624.633 88.12V100H622.347L617.757 92.512L616.605 90.406H616.587L616.659 92.332V100H614.895V88.12H617.163L621.735 95.59L622.905 97.732H622.923L622.851 95.788V88.12H624.633ZM632.523 88.12C634.383 88.12 635.829 88.636 636.861 89.668C637.905 90.688 638.427 92.152 638.427 94.06C638.427 95.968 637.905 97.438 636.861 98.47C635.829 99.49 634.383 100 632.523 100H628.329V88.12H632.523ZM632.523 98.362C633.783 98.362 634.743 97.99 635.403 97.246C636.075 96.49 636.411 95.428 636.411 94.06C636.411 92.692 636.075 91.636 635.403 90.892C634.743 90.136 633.783 89.758 632.523 89.758H630.255V98.362H632.523Z" fill="white"/>
</g>
<defs>
<filter id="filter0_d_112_11" x="191" y="54" width="325.225" height="87.0025" filterUnits="userSpaceOnUse" color-interpolation-filters="sRGB">
<feFlood flood-opacity="0" result="BackgroundImageFix"/>
<feColorMatrix in="SourceAlpha" type="matrix" values="0 0 0 0 0 0 0 0 0 0 0 0 0 0 0 0 0 0 127 0" result="hardAlpha"/>
<feOffset/>
<feGaussianBlur stdDeviation="4.5"/>
<feComposite in2="hardAlpha" operator="out"/>
<feColorMatrix type="matrix" values="0 0 0 0 0.220417 0 0 0 0 0.363494 0 0 0 0 0.575 0 0 0 0.5 0"/>
<feBlend mode="normal" in2="BackgroundImageFix" result="effect1_dropShadow_112_11"/>
<feBlend mode="normal" in="SourceGraphic" in2="effect1_dropShadow_112_11" result="shape"/>
</filter>
<filter id="filter1_d_112_11" x="536.138" y="61.8441" width="142.862" height="65.6446" filterUnits="userSpaceOnUse" color-interpolation-filters="sRGB">
<feFlood flood-opacity="0" result="BackgroundImageFix"/>
<feColorMatrix in="SourceAlpha" type="matrix" values="0 0 0 0 0 0 0 0 0 0 0 0 0 0 0 0 0 0 127 0" result="hardAlpha"/>
<feOffset/>
<feGaussianBlur stdDeviation="4.5"/>
<feComposite in2="hardAlpha" operator="out"/>
<feColorMatrix type="matrix" values="0 0 0 0 0.220417 0 0 0 0 0.363494 0 0 0 0 0.575 0 0 0 0.5 0"/>
<feBlend mode="normal" in2="BackgroundImageFix" result="effect1_dropShadow_112_11"/>
<feBlend mode="normal" in="SourceGraphic" in2="effect1_dropShadow_112_11" result="shape"/>
</filter>
<clipPath id="clip0_112_11">
<rect width="307.225" height="69.0025" fill="white" transform="translate(200 63)"/>
</clipPath>
</defs>
</svg>
