<svg width="534" height="146" viewBox="0 0 534 146" fill="none" xmlns="http://www.w3.org/2000/svg">
<path d="M109.17 145.74H36.5699C26.875 145.727 17.581 141.87 10.7257 135.014C3.87037 128.159 0.0132282 118.865 0 109.17V36.57C0.0132282 26.8751 3.87037 17.581 10.7257 10.7257C17.581 3.87037 26.875 0.0132282 36.5699 0H109.17C118.866 0.0105877 128.161 3.8669 135.017 10.7228C141.873 17.5787 145.729 26.8743 145.74 36.57V109.17C145.729 118.866 141.873 128.161 135.017 135.017C128.161 141.873 118.866 145.729 109.17 145.74ZM36.5699 8C28.996 8.01058 21.7353 11.024 16.3796 16.3796C11.024 21.7353 8.01058 28.996 8 36.57V109.17C8.01058 116.744 11.024 124.005 16.3796 129.36C21.7353 134.716 28.996 137.729 36.5699 137.74H109.17C116.744 137.729 124.005 134.716 129.36 129.36C134.716 124.005 137.729 116.744 137.74 109.17V36.57C137.729 28.996 134.716 21.7353 129.36 16.3796C124.005 11.024 116.744 8.01058 109.17 8H36.5699Z" fill="url(#paint0_linear_450_1316)"/>
<path d="M48.47 58.33L44.37 63.98L76.39 87.22L76.6 87.38L80.7 81.73L48.47 58.33Z" fill="url(#paint1_linear_450_1316)"/>
<path d="M69.17 58.33L65.07 63.98L97.31 87.38L101.41 81.73L69.17 58.33Z" fill="url(#paint2_linear_450_1316)"/>
<path d="M72.9 29.41C55.54 29.41 41.42 40.2001 41.42 53.4601V53.73H48.42V53.4601C48.42 44.0501 59.42 36.39 72.92 36.39C86.42 36.39 97.42 44.0501 97.42 53.4601V53.73H104.42V53.4601C104.38 40.2001 90.26 29.41 72.9 29.41Z" fill="url(#paint3_linear_450_1316)"/>
<path d="M97.35 92.28C97.35 101.69 86.35 109.35 72.84 109.35C59.33 109.35 48.34 101.69 48.34 92.28V92.01H41.34V92.28C41.34 105.54 55.4599 116.33 72.8199 116.33C90.1799 116.33 104.3 105.54 104.3 92.28V92.01H97.3L97.35 92.28Z" fill="url(#paint4_linear_450_1316)"/>
<path d="M225.284 34.1599C230.823 34.1599 235.617 35.1932 239.668 37.2599C243.801 39.2439 247.025 42.0959 249.34 45.8159C251.655 49.5359 252.812 53.9586 252.812 59.0839C252.812 64.2092 251.655 68.6319 249.34 72.3519C247.025 76.0719 243.801 78.9652 239.668 81.0319C235.617 83.0159 230.823 84.0079 225.284 84.0079H206.312V116H196.392V34.1599H225.284ZM223.796 74.7079C230.244 74.7079 234.956 73.3852 237.932 70.7399C240.908 68.0119 242.396 64.1266 242.396 59.0839C242.396 53.9586 240.908 50.0732 237.932 47.4279C234.956 44.7826 230.244 43.4599 223.796 43.4599H206.312V74.7079H223.796Z" fill="white"/>
<path d="M300.224 75.9479C300.224 71.3186 298.984 67.7639 296.504 65.2839C294.024 62.7212 290.51 61.4399 285.964 61.4399C281.665 61.4399 278.028 62.3906 275.052 64.2919C272.076 66.1106 269.885 69.0866 268.48 73.2199L260.42 68.2599C262.073 63.6306 265.132 59.9106 269.596 57.0999C274.06 54.2066 279.598 52.7599 286.212 52.7599C290.676 52.7599 294.726 53.5452 298.364 55.1159C302.001 56.6039 304.853 58.9186 306.92 62.0599C309.069 65.1186 310.144 69.0866 310.144 73.9639V103.972C310.144 106.948 311.714 108.436 314.856 108.436C316.426 108.436 317.956 108.229 319.444 107.816L318.948 115.628C317.294 116.455 315.145 116.868 312.5 116.868C310.102 116.868 307.953 116.413 306.052 115.504C304.15 114.595 302.662 113.231 301.588 111.412C300.513 109.511 299.976 107.155 299.976 104.344V103.104L302.456 103.476C301.464 106.7 299.769 109.345 297.372 111.412C294.974 113.396 292.288 114.884 289.312 115.876C286.336 116.785 283.401 117.24 280.508 117.24C276.87 117.24 273.481 116.62 270.34 115.38C267.198 114.14 264.677 112.28 262.776 109.8C260.957 107.237 260.048 104.096 260.048 100.376C260.048 95.7466 261.577 91.9439 264.636 88.9679C267.777 85.9093 272.117 83.8426 277.656 82.7679L302.208 77.9319V86.1159L282.244 90.2079C278.193 91.0346 275.176 92.1919 273.192 93.6799C271.208 95.1679 270.216 97.2346 270.216 99.8799C270.216 102.443 271.208 104.551 273.192 106.204C275.258 107.775 278.152 108.56 281.872 108.56C284.269 108.56 286.542 108.271 288.692 107.692C290.924 107.031 292.908 106.08 294.644 104.84C296.38 103.517 297.744 101.905 298.736 100.004C299.728 98.0199 300.224 95.7052 300.224 93.0599V75.9479Z" fill="white"/>
<path d="M328.05 116V53.9999H336.11L337.474 64.1679C339.21 60.3652 341.731 57.5132 345.038 55.6119C348.427 53.7106 352.519 52.7599 357.314 52.7599C358.389 52.7599 359.546 52.8426 360.786 53.0079C362.109 53.1732 363.225 53.5039 364.134 53.9999L362.398 63.0519C361.489 62.7212 360.497 62.4732 359.422 62.3079C358.347 62.1426 356.818 62.0599 354.834 62.0599C352.271 62.0599 349.667 62.8039 347.022 64.2919C344.459 65.7799 342.31 68.0532 340.574 71.1119C338.838 74.0879 337.97 77.8906 337.97 82.5199V116H328.05Z" fill="white"/>
<path d="M392.123 117.24C386.089 117.24 380.509 115.959 375.383 113.396C370.341 110.833 366.455 107.196 363.727 102.484L372.159 96.4079C373.978 100.211 376.623 103.187 380.095 105.336C383.65 107.485 387.907 108.56 392.867 108.56C397.249 108.56 400.679 107.733 403.159 106.08C405.639 104.344 406.879 102.112 406.879 99.3839C406.879 97.6479 406.301 96.0772 405.143 94.6719C404.069 93.1839 401.961 92.1092 398.819 91.4479L383.939 88.3479C377.905 87.1079 373.565 85.0413 370.919 82.1479C368.357 79.2546 367.075 75.6586 367.075 71.3599C367.075 67.9706 368.026 64.8706 369.927 62.0599C371.911 59.2492 374.681 57.0172 378.235 55.3639C381.873 53.6279 386.13 52.7599 391.007 52.7599C397.125 52.7599 402.291 53.9586 406.507 56.3559C410.723 58.7532 413.865 62.1426 415.931 66.5239L407.623 71.9799C406.218 68.3426 403.945 65.6972 400.803 64.0439C397.662 62.3079 394.397 61.4399 391.007 61.4399C388.031 61.4399 385.469 61.8532 383.319 62.6799C381.253 63.5066 379.641 64.6639 378.483 66.1519C377.409 67.5572 376.871 69.1692 376.871 70.9879C376.871 72.8066 377.491 74.5012 378.731 76.0719C379.971 77.5599 382.286 78.6346 385.675 79.2959L401.175 82.5199C406.962 83.6772 411.013 85.5786 413.327 88.2239C415.642 90.8692 416.799 94.0932 416.799 97.8959C416.799 101.781 415.766 105.212 413.699 108.188C411.633 111.081 408.739 113.313 405.019 114.884C401.299 116.455 397.001 117.24 392.123 117.24Z" fill="white"/>
<path d="M454.91 117.24C449.04 117.24 443.791 115.959 439.162 113.396C434.615 110.833 431.06 107.155 428.498 102.36C425.935 97.4826 424.654 91.6959 424.654 84.9999C424.654 78.3039 425.935 72.5586 428.498 67.7639C431.06 62.8866 434.574 59.1666 439.038 56.6039C443.502 54.0412 448.586 52.7599 454.29 52.7599C460.076 52.7599 464.995 53.9999 469.046 56.4799C473.179 58.9599 476.32 62.3492 478.47 66.6479C480.619 70.8639 481.694 75.6172 481.694 80.9079C481.694 82.3132 481.652 83.5946 481.57 84.7519C481.487 85.9092 481.363 86.9426 481.198 87.8519H431.102V79.0479H476.858L471.774 80.0399C471.774 74.0879 470.12 69.4999 466.814 66.2759C463.59 63.0519 459.332 61.4399 454.042 61.4399C449.991 61.4399 446.478 62.3906 443.502 64.2919C440.608 66.1106 438.335 68.7972 436.682 72.3519C435.111 75.8239 434.326 80.0399 434.326 84.9999C434.326 89.8772 435.152 94.0933 436.806 97.6479C438.459 101.203 440.774 103.931 443.75 105.832C446.808 107.651 450.446 108.56 454.662 108.56C459.208 108.56 462.887 107.692 465.698 105.956C468.591 104.22 470.906 101.864 472.642 98.8879L480.454 103.476C478.883 106.287 476.858 108.725 474.378 110.792C471.98 112.859 469.128 114.471 465.822 115.628C462.598 116.703 458.96 117.24 454.91 117.24Z" fill="white"/>
<path d="M494.36 116V53.9999H502.42L503.784 64.1679C505.52 60.3652 508.042 57.5132 511.348 55.6119C514.738 53.7106 518.83 52.7599 523.624 52.7599C524.699 52.7599 525.856 52.8426 527.096 53.0079C528.419 53.1732 529.535 53.5039 530.444 53.9999L528.708 63.0519C527.799 62.7212 526.807 62.4732 525.732 62.3079C524.658 62.1426 523.128 62.0599 521.144 62.0599C518.582 62.0599 515.978 62.8039 513.332 64.2919C510.77 65.7799 508.62 68.0532 506.884 71.1119C505.148 74.0879 504.28 77.8906 504.28 82.5199V116H494.36Z" fill="white"/>
<defs>
<linearGradient id="paint0_linear_450_1316" x1="146" y1="0" x2="0" y2="146" gradientUnits="userSpaceOnUse">
<stop stop-color="#FBEDBF"/>
<stop offset="1" stop-color="#FFD23F"/>
</linearGradient>
<linearGradient id="paint1_linear_450_1316" x1="146" y1="0" x2="0" y2="146" gradientUnits="userSpaceOnUse">
<stop stop-color="#FBEDBF"/>
<stop offset="1" stop-color="#FFD23F"/>
</linearGradient>
<linearGradient id="paint2_linear_450_1316" x1="146" y1="0" x2="0" y2="146" gradientUnits="userSpaceOnUse">
<stop stop-color="#FBEDBF"/>
<stop offset="1" stop-color="#FFD23F"/>
</linearGradient>
<linearGradient id="paint3_linear_450_1316" x1="146" y1="0" x2="0" y2="146" gradientUnits="userSpaceOnUse">
<stop stop-color="#FBEDBF"/>
<stop offset="1" stop-color="#FFD23F"/>
</linearGradient>
<linearGradient id="paint4_linear_450_1316" x1="146" y1="0" x2="0" y2="146" gradientUnits="userSpaceOnUse">
<stop stop-color="#FBEDBF"/>
<stop offset="1" stop-color="#FFD23F"/>
</linearGradient>
</defs>
</svg>
