<svg id="Layer_1" data-name="Layer 1" xmlns="http://www.w3.org/2000/svg" viewBox="0 0 156.36 156.36"><defs><style>.cls-1{fill:#1b1130;}</style></defs><path class="cls-1" d="M114.48,151.05H41.88A36.61,36.61,0,0,1,5.31,114.48V41.88A36.62,36.62,0,0,1,41.88,5.31h72.6a36.61,36.61,0,0,1,36.57,36.57v72.6A36.6,36.6,0,0,1,114.48,151.05ZM41.88,13.31A28.61,28.61,0,0,0,13.31,41.88v72.6a28.6,28.6,0,0,0,28.57,28.57h72.6a28.6,28.6,0,0,0,28.57-28.57V41.88a28.61,28.61,0,0,0-28.57-28.57Z"/><g id="New_lines" data-name="New lines"><polygon class="cls-1" points="53.78 63.64 49.68 69.29 81.7 92.53 81.91 92.69 86.01 87.04 53.99 63.8 53.78 63.64"/><polygon class="cls-1" points="74.7 63.8 74.48 63.64 70.38 69.29 102.4 92.53 102.61 92.69 106.72 87.04 74.7 63.8"/><path class="cls-1" d="M78.21,34.72c-17.36,0-31.48,10.79-31.48,24.05V59h7v-.27c0-9.41,11-17.07,24.5-17.07s24.5,7.66,24.5,17.07V59h7v-.27C109.69,45.51,95.57,34.72,78.21,34.72Z"/><path class="cls-1" d="M102.66,97.59c0,9.41-11,17.07-24.51,17.07S53.65,107,53.65,97.59v-.27h-7v.27c0,13.26,14.12,24,31.48,24s31.48-10.79,31.48-24v-.27h-7Z"/></g></svg>