<svg width="375" height="801" viewBox="0 0 375 801" fill="none" xmlns="http://www.w3.org/2000/svg">
<path d="M298.13 4.92117C185.335 78.8662 210.592 195.558 237.32 244.661C318.171 292.465 348.726 184.044 344.819 144.811C341.414 110.625 312.274 37.3069 298.13 4.92117Z" fill="#84BCEE"/>
<path d="M297.984 4.15758C246.026 48.9868 288.487 162.767 274.487 240.287C316.63 274.153 343.654 157.665 344.819 144.811C347.229 118.217 314.526 45.5844 297.984 4.15758Z" fill="#FFD4F0"/>
<path d="M344.819 144.811C348.726 184.044 318.171 292.465 237.32 244.661C210.592 195.558 185.335 78.8662 298.13 4.92117C312.274 37.3069 341.414 110.625 344.819 144.811ZM344.819 144.811C343.654 157.665 316.63 274.153 274.487 240.287C288.487 162.767 246.026 48.9868 297.984 4.15758C314.526 45.5844 347.229 118.217 344.819 144.811Z" stroke="#242929" stroke-width="4.05"/>
<path d="M77.2742 4.92117C190.07 78.8662 164.813 195.558 138.085 244.661C57.2335 292.465 26.6786 184.044 30.5857 144.811C33.9904 110.625 63.13 37.3069 77.2742 4.92117Z" fill="#84BCEE"/>
<path d="M77.4208 4.15758C129.378 48.9868 86.9175 162.767 100.917 240.287C58.774 274.153 31.7505 157.665 30.5857 144.811C28.1757 118.217 60.8786 45.5844 77.4208 4.15758Z" fill="#FFD4F0"/>
<path d="M30.5857 144.811C26.6786 184.044 57.2335 292.465 138.085 244.661C164.813 195.558 190.07 78.8662 77.2742 4.92117C63.13 37.3069 33.9904 110.625 30.5857 144.811ZM30.5857 144.811C31.7505 157.665 58.774 274.153 100.917 240.287C86.9175 162.767 129.378 48.9868 77.4208 4.15758C60.8786 45.5844 28.1757 118.217 30.5857 144.811Z" stroke="#242929" stroke-width="4.05"/>
<path d="M362.598 605.811C362.599 534.842 266.098 450.81 251.098 462.311L243.598 512.311C243.598 512.311 290.099 557.81 300.598 605.811C311.098 653.811 362.597 636.811 362.598 605.811Z" fill="#84BCEE" stroke="#242929" stroke-width="5" stroke-linejoin="round"/>
<path d="M8.59961 605.811C8.59793 534.842 105.1 450.81 120.099 462.311L127.599 512.311C127.599 512.311 81.0981 557.81 70.5989 605.811C60.0996 653.811 8.60034 636.811 8.59961 605.811Z" fill="#84BCEE" stroke="#242929" stroke-width="5" stroke-linejoin="round"/>
<path d="M83.3808 630.867C103.6 535.747 114.766 483.825 114.933 460.247H260.174C260.675 490.124 275.1 559.747 291.727 630.867C306.49 694.017 295.897 760.686 283.223 792.455C281.793 796.04 278.249 798.247 274.39 798.247H238.325C233.787 798.247 229.817 795.191 228.657 790.803L204.622 699.891C202.532 691.987 195.381 686.481 187.205 686.481C179.359 686.481 172.416 691.558 170.037 699.034L140.689 791.279C139.369 795.429 135.515 798.247 131.16 798.247H102.751C99.41 798.247 96.2536 796.602 94.643 793.675C80.5018 767.979 67.0448 707.72 83.3808 630.867Z" fill="#84BCEE" stroke="#242929" stroke-width="5" stroke-linejoin="round"/>
<ellipse cx="187.5" cy="338.05" rx="184.5" ry="132" fill="#84BCEE" stroke="#242929" stroke-width="5"/>
<path d="M21 318.679C21 302.382 33.579 288.849 49.8324 287.658L110.953 283.183C120.637 282.473 130.048 286.578 136.118 294.157C141.712 301.143 150.178 305.21 159.129 305.21H212.953C220.711 305.21 228.189 302.311 233.919 297.081L241.484 290.178C247.214 284.949 254.692 282.05 262.45 282.05H322.885C339.229 282.05 352.785 294.699 353.915 311.004L355.028 327.076C357.174 358.053 336.714 386.357 306.272 392.476C219.938 409.832 155.946 410.734 68.7939 392.162C40.4685 386.125 21 360.51 21 331.548V318.679Z" fill="#EDFAFF" stroke="#242929"/>
<path d="M275.352 364.533C271.063 345.341 271.492 308.677 307.517 315.551C313.951 328.155 316.524 355.596 275.352 364.533Z" fill="#242929"/>
<ellipse cx="286.195" cy="338.567" rx="5.62903" ry="6.01529" fill="white"/>
<path d="M93.8399 364.533C98.1287 345.341 97.6998 308.677 61.674 315.551C55.2408 328.155 52.6676 355.596 93.8399 364.533Z" fill="#242929"/>
<ellipse cx="5.62903" cy="6.01529" rx="5.62903" ry="6.01529" transform="matrix(-1 0 0 1 88.623 332.552)" fill="white"/>
<path d="M163.12 558.082L159.02 563.761L191.04 587.117L191.26 587.278L195.36 581.599L163.34 558.233L163.12 558.082Z" fill="white"/>
<path d="M184.041 558.233L183.831 558.082L179.721 563.761L211.741 587.117L211.961 587.278L216.061 581.599L184.041 558.233Z" fill="white"/>
<path d="M187.56 529.018C170.2 529.018 156.08 539.862 156.08 553.188V553.459H163.08V553.188C163.08 543.731 174.08 536.033 187.59 536.033C201.1 536.033 212.09 543.731 212.09 553.188V553.459H219.09V553.188C219.04 539.862 204.92 529.018 187.56 529.018Z" fill="white"/>
<path d="M212 592.182C212 601.639 201 609.337 187.5 609.337C174 609.337 163 601.639 163 592.182V591.911H156V592.182C156 605.508 170.12 616.302 187.48 616.302C204.84 616.302 218.96 605.458 218.96 592.182V591.911H211.96L212 592.182Z" fill="white"/>
</svg>
