<svg width="631" height="801" viewBox="0 0 631 801" fill="none" xmlns="http://www.w3.org/2000/svg">
<rect x="168.5" y="37.2527" width="27" height="466" fill="#A46A68" stroke="#242929" stroke-width="5" stroke-linejoin="round"/>
<path d="M576.303 624.788C506.444 612.29 440.723 502.497 454.685 489.757L471.547 460.97C471.547 460.97 541.822 544.969 587.223 563.758C632.624 582.547 606.819 630.247 576.303 624.788Z" fill="#84BCEE" stroke="#242929" stroke-width="5" stroke-linejoin="round"/>
<path d="M174.938 360.139C175.887 360.965 177.303 360.956 178.242 360.119L178.242 360.118L178.242 360.118L178.249 360.113L178.282 360.084C178.312 360.057 178.36 360.015 178.424 359.96C178.551 359.85 178.743 359.686 178.994 359.477C179.494 359.059 180.226 358.465 181.134 357.771C182.958 356.377 185.463 354.608 188.228 353.059C191.016 351.497 193.938 350.235 196.615 349.743C199.28 349.253 201.409 349.571 203.009 350.759C203.347 351.011 203.967 351.623 204.917 352.744C205.829 353.822 206.934 355.234 208.231 356.954C209.998 359.296 212.071 362.141 214.446 365.4C215.567 366.938 216.755 368.568 218.009 370.281C225.806 380.926 236.043 394.584 248.071 408.248C260.093 421.905 273.955 435.628 289.026 446.378C303.091 456.411 318.33 463.941 334.201 466.315L312.964 514.952C305.842 514.516 296.724 511.287 286.451 506.092C275.464 500.536 263.464 492.893 251.68 484.584C228.553 468.279 206.457 449.559 194.79 439.43C193.136 430.92 192.327 426.623 192.112 422.936C191.894 419.208 192.282 416.075 193.196 409.602C193.321 408.717 192.963 407.832 192.258 407.282C191.553 406.732 190.608 406.6 189.78 406.936L162.802 417.893C160.794 418.709 158.541 418.462 156.87 417.247C136.85 402.689 132.37 388.887 134.475 377.473C136.64 365.734 145.912 355.554 155.377 348.79C157.462 347.3 160.411 347.507 162.556 349.372L174.938 360.139Z" fill="#84BCEE" stroke="#242929" stroke-width="5" stroke-linejoin="round"/>
<path d="M288.381 630.867C308.6 535.747 319.766 483.825 319.933 460.247H465.174C465.675 490.124 480.1 559.747 496.727 630.867C511.49 694.017 500.897 760.686 488.223 792.455C486.793 796.04 483.249 798.247 479.39 798.247H443.325C438.787 798.247 434.817 795.191 433.657 790.803L409.622 699.891C407.532 691.987 400.381 686.481 392.205 686.481C384.359 686.481 377.416 691.558 375.037 699.034L345.689 791.279C344.369 795.429 340.515 798.247 336.16 798.247H307.751C304.41 798.247 301.254 796.602 299.643 793.675C285.502 767.979 272.045 707.72 288.381 630.867Z" fill="#84BCEE" stroke="#242929" stroke-width="5" stroke-linejoin="round"/>
<path d="M511.131 4.92068C398.336 78.8657 423.593 195.557 450.321 244.66C531.172 292.464 561.727 184.043 557.82 144.811C554.415 110.625 525.275 37.3064 511.131 4.92068Z" fill="#84BCEE"/>
<path d="M510.985 4.15709C459.027 48.9863 501.488 162.767 487.488 240.287C529.631 274.152 556.655 157.664 557.82 144.811C560.23 118.217 527.527 45.5839 510.985 4.15709Z" fill="#FFD4F0"/>
<path d="M557.82 144.811C561.727 184.043 531.172 292.464 450.321 244.66C423.593 195.557 398.336 78.8657 511.131 4.92068C525.275 37.3064 554.415 110.625 557.82 144.811ZM557.82 144.811C556.655 157.664 529.631 274.152 487.488 240.287C501.488 162.767 459.027 48.9863 510.985 4.15709C527.527 45.5839 560.23 118.217 557.82 144.811Z" stroke="#242929" stroke-width="4.05"/>
<path d="M290.275 4.92068C403.071 78.8657 377.814 195.557 351.086 244.66C270.235 292.464 239.68 184.043 243.587 144.811C246.991 110.625 276.131 37.3064 290.275 4.92068Z" fill="#84BCEE"/>
<path d="M290.422 4.15709C342.379 48.9863 299.918 162.767 313.918 240.287C271.775 274.152 244.752 157.664 243.587 144.811C241.177 118.217 273.88 45.5839 290.422 4.15709Z" fill="#FFD4F0"/>
<path d="M243.587 144.811C239.68 184.043 270.235 292.464 351.086 244.66C377.814 195.557 403.071 78.8657 290.275 4.92068C276.131 37.3064 246.991 110.625 243.587 144.811ZM243.587 144.811C244.752 157.664 271.775 274.152 313.918 240.287C299.918 162.767 342.379 48.9863 290.422 4.15709C273.88 45.5839 241.177 118.217 243.587 144.811Z" stroke="#242929" stroke-width="4.05"/>
<ellipse cx="400.5" cy="338.049" rx="184.5" ry="132" fill="#84BCEE" stroke="#242929" stroke-width="5"/>
<path d="M234 318.679C234 302.382 246.579 288.848 262.832 287.658L323.953 283.182C333.637 282.473 343.048 286.577 349.118 294.156C354.712 301.143 363.178 305.209 372.129 305.209H425.953C433.711 305.209 441.189 302.31 446.919 297.081L454.484 290.178C460.214 284.948 467.692 282.049 475.45 282.049H535.885C552.229 282.049 565.785 294.699 566.915 311.004L568.028 327.076C570.174 358.053 549.714 386.356 519.272 392.476C432.938 409.832 368.946 410.733 281.794 392.161C253.469 386.125 234 360.509 234 331.548V318.679Z" fill="#EDFAFF" stroke="#242929"/>
<path d="M488.352 364.532C484.063 345.341 484.492 308.676 520.517 315.551C526.951 328.154 529.524 355.595 488.352 364.532Z" fill="#242929"/>
<ellipse cx="499.195" cy="338.566" rx="5.62903" ry="6.01529" fill="white"/>
<path d="M306.84 364.532C311.129 345.34 310.7 308.676 274.674 315.55C268.241 328.154 265.668 355.595 306.84 364.532Z" fill="#242929"/>
<ellipse cx="5.62903" cy="6.01529" rx="5.62903" ry="6.01529" transform="matrix(-1 0 0 1 301.623 332.551)" fill="white"/>
<rect x="2.5" y="66.2527" width="358" height="185" fill="white" stroke="#242929" stroke-width="5" stroke-linejoin="round"/>
<path d="M375.12 558.082L371.02 563.76L403.04 587.116L403.26 587.277L407.36 581.599L375.34 558.233L375.12 558.082Z" fill="white"/>
<path d="M396.041 558.233L395.831 558.082L391.721 563.76L423.741 587.116L423.961 587.277L428.061 581.599L396.041 558.233Z" fill="white"/>
<path d="M399.56 529.018C382.2 529.018 368.08 539.862 368.08 553.188V553.459H375.08V553.188C375.08 543.731 386.08 536.032 399.59 536.032C413.1 536.032 424.09 543.731 424.09 553.188V553.459H431.09V553.188C431.04 539.862 416.92 529.018 399.56 529.018Z" fill="white"/>
<path d="M424 592.182C424 601.639 413 609.337 399.5 609.337C386 609.337 375 601.639 375 592.182V591.911H368V592.182C368 605.508 382.12 616.302 399.48 616.302C416.84 616.302 430.96 605.458 430.96 592.182V591.911H423.96L424 592.182Z" fill="white"/>
<g clip-path="url(#clip0_135_563)">
<mask id="mask0_135_563" style="mask-type:luminance" maskUnits="userSpaceOnUse" x="32" y="131" width="300" height="67">
<path d="M331.377 131.753H32.001V197.873H331.377V131.753Z" fill="white"/>
</mask>
<g mask="url(#mask0_135_563)">
<path d="M148.09 182.623H143.501L139.723 172.745H123.61L119.832 182.623H115.296L129.168 146.998H134.294L148.09 182.623ZM125.15 168.703H138.158L131.625 151.154L125.15 168.703Z" fill="#1B1130"/>
<path d="M162.099 183.166C159.582 183.189 157.094 182.615 154.842 181.49C152.706 180.45 150.929 178.795 149.739 176.738L153.411 174.094C154.16 175.706 155.372 177.059 156.891 177.982C158.567 178.955 160.483 179.441 162.421 179.383C164.341 179.383 165.824 179.018 166.904 178.279C167.313 178.032 167.664 177.701 167.935 177.307C168.206 176.914 168.39 176.467 168.474 175.997C168.559 175.527 168.542 175.044 168.425 174.581C168.309 174.118 168.094 173.685 167.797 173.311C167.307 172.671 166.381 172.212 165.018 171.934L158.538 170.57C155.907 170.033 154.027 169.134 152.898 167.873C151.751 166.583 151.141 164.903 151.194 163.178C151.185 161.728 151.629 160.312 152.466 159.127C153.386 157.841 154.634 156.825 156.08 156.185C157.821 155.413 159.711 155.036 161.614 155.081C163.962 155.008 166.289 155.549 168.363 156.65C170.163 157.657 171.599 159.206 172.467 161.076L168.848 163.476C168.321 161.989 167.263 160.75 165.877 159.996C164.572 159.273 163.106 158.892 161.614 158.887C160.484 158.861 159.358 159.043 158.293 159.425C157.47 159.72 156.742 160.234 156.19 160.913C155.703 161.531 155.444 162.3 155.459 163.087C155.474 163.875 155.761 164.633 156.272 165.233C156.81 165.898 157.816 166.378 159.291 166.673L166.04 168.079C168.562 168.582 170.322 169.409 171.32 170.561C172.333 171.725 172.872 173.227 172.832 174.77C172.863 176.36 172.391 177.919 171.483 179.225C170.53 180.546 169.22 181.567 167.706 182.167C165.922 182.87 164.016 183.209 162.099 183.166Z" fill="#1B1130"/>
<path d="M195.969 155.633H200.611L187.929 187.159C187.39 188.655 186.635 190.063 185.688 191.34C184.98 192.285 184.055 193.044 182.99 193.553C181.91 194.022 180.741 194.253 179.563 194.23C178.422 194.24 177.288 194.066 176.203 193.716C175.229 193.401 174.308 192.936 173.477 192.338L174.662 188.561C175.33 189.18 176.108 189.669 176.957 190.001C177.72 190.307 178.534 190.469 179.357 190.481C180.306 190.475 181.231 190.173 182.001 189.617C182.827 189.041 183.582 187.871 184.267 186.108L185.669 182.599L182.971 176.177L174.389 155.662H179.289L187.709 176.225L195.969 155.633Z" fill="#1B1130"/>
<path d="M204.32 182.623V155.633H208.088L208.463 161.681L207.762 161.085C208.258 159.762 209.053 158.571 210.085 157.605C211.05 156.725 212.197 156.07 213.445 155.685C214.732 155.291 216.069 155.092 217.415 155.095C219.234 155.072 221.037 155.449 222.695 156.199C224.264 156.923 225.588 158.091 226.501 159.559C227.461 161.073 227.941 162.993 227.941 165.319V182.599H223.621V166.86C223.621 163.874 222.981 161.794 221.701 160.62C220.412 159.448 218.719 158.82 216.978 158.868C215.63 158.881 214.302 159.194 213.09 159.785C211.752 160.439 210.635 161.472 209.879 162.756C209.034 164.125 208.612 165.961 208.612 168.261V182.618L204.32 182.623Z" fill="#1B1130"/>
<path d="M244.742 155.095C246.429 155.062 248.106 155.356 249.681 155.959C251.074 156.517 252.333 157.363 253.377 158.441C254.445 159.559 255.304 160.859 255.911 162.281L251.812 164.201C251.353 162.649 250.442 161.269 249.196 160.236C247.875 159.272 246.265 158.786 244.631 158.858C243 158.813 241.389 159.234 239.99 160.073C238.667 160.915 237.631 162.138 237.019 163.582C235.655 167.135 235.655 171.068 237.019 174.622C237.625 176.075 238.662 177.308 239.99 178.154C241.389 178.993 243 179.415 244.631 179.369C245.877 179.398 247.115 179.178 248.275 178.721C249.266 178.315 250.139 177.666 250.814 176.834C251.505 175.949 251.977 174.913 252.191 173.81L256.185 175.212C255.623 176.779 254.772 178.227 253.675 179.479C252.615 180.664 251.302 181.596 249.835 182.206C248.217 182.864 246.483 183.191 244.737 183.166C242.38 183.205 240.053 182.627 237.988 181.49C236.001 180.37 234.386 178.689 233.347 176.657C232.244 174.3 231.672 171.73 231.672 169.128C231.672 166.526 232.244 163.956 233.347 161.599C234.387 159.569 236.001 157.888 237.988 156.766C240.055 155.629 242.384 155.053 244.742 155.095Z" fill="#1B1130"/>
<path d="M292.656 182.623H286.555L283.157 173.287H268.205L264.802 182.623H258.864L272.304 146.998H279.216L292.656 182.623ZM269.823 168.588H281.53L275.698 151.966L269.823 168.588Z" fill="#1B1130"/>
<path d="M309.59 146.997C311.868 146.941 314.13 147.402 316.204 148.346C317.979 149.191 319.477 150.523 320.524 152.186C321.551 154.012 322.089 156.07 322.089 158.165C322.089 160.259 321.551 162.317 320.524 164.143C319.481 165.81 317.982 167.142 316.204 167.983C314.131 168.931 311.869 169.394 309.59 169.337H301.656V182.613H295.896V146.997H309.59ZM308.673 164.378C311.233 164.378 313.113 163.847 314.313 162.785C315.513 161.722 316.116 160.185 316.123 158.172C316.123 156.124 315.519 154.567 314.313 153.501C313.107 152.436 311.227 151.905 308.673 151.908H301.656V164.388L308.673 164.378Z" fill="#1B1130"/>
<path d="M331.376 146.998V182.623H325.616V146.998H331.376Z" fill="#1B1130"/>
<path d="M82.4826 131.753H47.6394C39.0025 131.753 32.001 138.754 32.001 147.391V182.234C32.001 190.871 39.0025 197.873 47.6394 197.873H82.4826C91.1192 197.873 98.121 190.871 98.121 182.234V147.391C98.121 138.754 91.1192 131.753 82.4826 131.753Z" fill="url(#paint0_linear_135_563)"/>
<path d="M82.4826 131.753H47.6394C39.0025 131.753 32.001 138.754 32.001 147.391V182.234C32.001 190.871 39.0025 197.873 47.6394 197.873H82.4826C91.1192 197.873 98.121 190.871 98.121 182.234V147.391C98.121 138.754 91.1192 131.753 82.4826 131.753Z" fill="url(#paint1_linear_135_563)"/>
<path d="M82.4826 131.753H47.6394C39.0025 131.753 32.001 138.754 32.001 147.391V182.234C32.001 190.871 39.0025 197.873 47.6394 197.873H82.4826C91.1192 197.873 98.121 190.871 98.121 182.234V147.391C98.121 138.754 91.1192 131.753 82.4826 131.753Z" fill="url(#paint2_linear_135_563)"/>
<path d="M82.4826 131.753H47.6394C39.0025 131.753 32.001 138.754 32.001 147.391V182.234C32.001 190.871 39.0025 197.873 47.6394 197.873H82.4826C91.1192 197.873 98.121 190.871 98.121 182.234V147.391C98.121 138.754 91.1192 131.753 82.4826 131.753Z" fill="url(#paint3_linear_135_563)"/>
<path d="M53.3459 157.831L51.3779 160.543L66.7475 171.698L66.8531 171.775L68.8211 169.063L53.4515 157.908L53.3459 157.831Z" fill="white"/>
<path d="M63.3881 157.908L63.2825 157.831L61.3145 160.543L76.6841 171.698L76.7897 171.775L78.7577 169.063L63.3881 157.908Z" fill="white"/>
<path d="M65.0723 143.949C56.7395 143.949 49.9619 149.129 49.9619 155.493V155.623H53.3219V155.493C53.3219 150.977 58.6019 147.3 65.0819 147.3C71.5619 147.3 76.8419 150.977 76.8419 155.493V155.623H80.2019V155.493C80.1827 149.129 73.4051 143.949 65.0723 143.949Z" fill="white"/>
<path d="M76.8086 174.127C76.8086 178.644 71.5286 182.321 65.0438 182.321C58.559 182.321 53.2838 178.644 53.2838 174.127V173.998H49.9238V174.127C49.9238 180.492 56.7014 185.671 65.0342 185.671C73.367 185.671 80.1446 180.492 80.1446 174.127V173.998H76.7846L76.8086 174.127Z" fill="white"/>
</g>
</g>
<defs>
<linearGradient id="paint0_linear_135_563" x1="91.9338" y1="137.935" x2="39.6618" y2="190.212" gradientUnits="userSpaceOnUse">
<stop stop-color="#2DCCFD"/>
<stop offset="1" stop-color="#AD20E2"/>
</linearGradient>
<linearGradient id="paint1_linear_135_563" x1="91.9338" y1="191.685" x2="39.657" y2="139.409" gradientUnits="userSpaceOnUse">
<stop stop-color="#A829E2"/>
<stop offset="0.05" stop-color="#A829E2" stop-opacity="0.84"/>
<stop offset="0.11" stop-color="#A829E2" stop-opacity="0.67"/>
<stop offset="0.18" stop-color="#A829E2" stop-opacity="0.51"/>
<stop offset="0.25" stop-color="#A829E2" stop-opacity="0.38"/>
<stop offset="0.33" stop-color="#A829E2" stop-opacity="0.28"/>
<stop offset="0.43" stop-color="#A829E2" stop-opacity="0.2"/>
<stop offset="0.54" stop-color="#A829E2" stop-opacity="0.14"/>
<stop offset="0.68" stop-color="#A829E2" stop-opacity="0.11"/>
<stop offset="1" stop-color="#A829E2" stop-opacity="0.1"/>
</linearGradient>
<linearGradient id="paint2_linear_135_563" x1="38.1882" y1="191.685" x2="90.4602" y2="139.409" gradientUnits="userSpaceOnUse">
<stop stop-color="#E50E99"/>
<stop offset="1" stop-color="#A829E2" stop-opacity="0.1"/>
</linearGradient>
<linearGradient id="paint3_linear_135_563" x1="91.9338" y1="137.94" x2="39.657" y2="190.212" gradientUnits="userSpaceOnUse">
<stop stop-color="#21D4FD"/>
<stop offset="0.03" stop-color="#27CDFC" stop-opacity="0.96"/>
<stop offset="0.23" stop-color="#4E9CF4" stop-opacity="0.7"/>
<stop offset="0.43" stop-color="#6E73EE" stop-opacity="0.49"/>
<stop offset="0.61" stop-color="#8753E9" stop-opacity="0.32"/>
<stop offset="0.77" stop-color="#993CE5" stop-opacity="0.2"/>
<stop offset="0.9" stop-color="#A42EE3" stop-opacity="0.13"/>
<stop offset="1" stop-color="#A829E2" stop-opacity="0.1"/>
</linearGradient>
<clipPath id="clip0_135_563">
<rect width="299.52" height="66.24" fill="white" transform="translate(32 131.753)"/>
</clipPath>
</defs>
</svg>
