<svg width="400" height="801" viewBox="0 0 400 801" fill="none" xmlns="http://www.w3.org/2000/svg">
<path d="M299.573 4.92117C186.778 78.8662 212.035 195.558 238.763 244.661C319.614 292.465 350.169 184.044 346.262 144.811C342.857 110.625 313.718 37.3069 299.573 4.92117Z" fill="#84BCEE"/>
<path d="M299.427 4.15758C247.469 48.9868 289.93 162.767 275.931 240.287C318.074 274.153 345.097 157.665 346.262 144.811C348.672 118.217 315.969 45.5844 299.427 4.15758Z" fill="#FFD4F0"/>
<path d="M346.262 144.811C350.169 184.044 319.614 292.465 238.763 244.661C212.035 195.558 186.778 78.8662 299.573 4.92117C313.718 37.3069 342.857 110.625 346.262 144.811ZM346.262 144.811C345.097 157.665 318.074 274.153 275.931 240.287C289.93 162.767 247.469 48.9868 299.427 4.15758C315.969 45.5844 348.672 118.217 346.262 144.811Z" stroke="#242929" stroke-width="4.05"/>
<path d="M78.7175 4.92117C191.513 78.8662 166.256 195.558 139.528 244.661C58.6769 292.465 28.1219 184.044 32.0291 144.811C35.4337 110.625 64.5733 37.3069 78.7175 4.92117Z" fill="#84BCEE"/>
<path d="M78.8641 4.15758C130.822 48.9868 88.3608 162.767 102.36 240.287C60.2174 274.153 33.1939 157.665 32.0291 144.811C29.619 118.217 62.322 45.5844 78.8641 4.15758Z" fill="#FFD4F0"/>
<path d="M32.0291 144.811C28.1219 184.044 58.6769 292.465 139.528 244.661C166.256 195.558 191.513 78.8662 78.7175 4.92117C64.5733 37.3069 35.4337 110.625 32.0291 144.811ZM32.0291 144.811C33.1939 157.665 60.2174 274.153 102.36 240.287C88.3608 162.767 130.822 48.9868 78.8641 4.15758C62.322 45.5844 29.619 118.217 32.0291 144.811Z" stroke="#242929" stroke-width="4.05"/>
<path d="M90.6275 605.475C90.6282 519.971 119.974 492.812 120.14 472.753H265.238C265.739 498.171 280.149 557.406 296.76 617.914C312.01 673.466 417.275 731.255 394.139 792.152C392.805 795.664 389.283 797.753 385.527 797.753H348.654C344.431 797.753 340.657 795.107 339.027 791.213C334.639 780.731 324.884 759.845 311.413 745.004C284.578 715.441 227.734 678.735 210.956 668.187C207.844 666.231 204.254 665.229 200.578 665.229H184.607C181.053 665.229 177.584 666.158 174.572 668.043C159.942 677.201 116.223 706.41 128.594 721.182C169.834 770.427 169.395 790.269 167.825 795.92C167.488 797.133 166.315 797.753 165.056 797.753H118.734C117.337 797.753 115.866 797.422 114.591 796.85C-59.5638 718.719 90.627 674.972 90.6275 605.475Z" fill="#84BCEE" stroke="#242929" stroke-width="5" stroke-linejoin="round"/>
<path d="M157.567 558.082L153.467 563.761L185.487 587.117L185.707 587.278L189.807 581.599L157.787 558.233L157.567 558.082Z" fill="white"/>
<path d="M178.488 558.233L178.278 558.082L174.168 563.761L206.188 587.117L206.408 587.278L210.508 581.599L178.488 558.233Z" fill="white"/>
<path d="M182.007 529.018C164.647 529.018 150.527 539.862 150.527 553.188V553.459H157.527V553.188C157.527 543.731 168.527 536.033 182.037 536.033C195.547 536.033 206.537 543.731 206.537 553.188V553.459H213.537V553.188C213.487 539.862 199.367 529.018 182.007 529.018Z" fill="white"/>
<path d="M206.447 592.182C206.447 601.639 195.447 609.338 181.947 609.338C168.447 609.338 157.447 601.639 157.447 592.182V591.911H150.447V592.182C150.447 605.509 164.567 616.302 181.927 616.302C199.287 616.302 213.407 605.458 213.407 592.182V591.911H206.407L206.447 592.182Z" fill="white"/>
<path d="M5.94728 582.861C-4.05367 522.366 98.9432 463.131 121.443 472.794L100.947 525.307C100.947 525.307 62.4473 548.412 62.4473 558.915C62.4473 566.814 192.447 515.451 192.447 567.123C192.447 618.796 12.4136 621.975 5.94728 582.861Z" fill="#84BCEE" stroke="#242929" stroke-width="5" stroke-linejoin="round"/>
<ellipse cx="187.447" cy="348.753" rx="184.5" ry="132" fill="#84BCEE" stroke="#242929" stroke-width="5"/>
<path d="M20.9473 329.094C20.9473 312.917 33.3483 299.44 49.47 298.097L99.3213 293.946C108.199 293.207 116.803 297.227 121.932 304.511C126.926 311.602 135.226 315.613 143.885 315.121L188.177 312.604C196.002 312.16 203.37 308.777 208.809 303.133L213.492 298.274C219.355 292.19 227.44 288.753 235.889 288.753H282.507C299.018 288.753 312.652 301.653 313.564 318.139L314.839 341.196C316.615 373.303 294.22 401.977 262.441 406.892C191.729 417.829 138.272 419.82 66.8471 403.582C39.3784 397.338 20.9473 372.101 20.9473 343.931V329.094Z" fill="#EDFAFF" stroke="#242929"/>
<path d="M242.298 371.236C238.009 352.044 238.438 315.379 274.464 322.254C280.897 334.857 283.47 362.299 242.298 371.236Z" fill="#242929"/>
<ellipse cx="263.142" cy="345.27" rx="5.62903" ry="6.01529" fill="white"/>
<path d="M82.7862 371.236C87.075 352.044 86.6461 315.379 50.6203 322.254C44.1871 334.857 41.6138 362.299 82.7862 371.236Z" fill="#242929"/>
<ellipse cx="5.62903" cy="6.01529" rx="5.62903" ry="6.01529" transform="matrix(-1 0 0 1 77.5693 339.255)" fill="white"/>
<path d="M189.466 633.472C372.464 608.472 278.464 461.535 263.465 473.035L235.463 566.972C235.463 566.972 239.96 426.471 198.459 432.971C156.958 439.471 162.948 637.094 189.466 633.472Z" fill="#84BCEE" stroke="#242929" stroke-width="5" stroke-linejoin="round"/>
</svg>
