<svg width="463" height="801" viewBox="0 0 463 801" fill="none" xmlns="http://www.w3.org/2000/svg">
<path d="M148.723 4.92117C261.519 78.8662 236.262 195.558 209.534 244.661C128.683 292.465 98.1278 184.044 102.035 144.811C105.44 110.625 134.579 37.3069 148.723 4.92117Z" fill="#84BCEE"/>
<path d="M148.87 4.15758C200.828 48.9868 158.367 162.767 172.366 240.287C130.223 274.153 103.2 157.665 102.035 144.811C99.6249 118.217 132.328 45.5844 148.87 4.15758Z" fill="#FFD4F0"/>
<path d="M102.035 144.811C98.1278 184.044 128.683 292.465 209.534 244.661C236.262 195.558 261.519 78.8662 148.723 4.92117C134.579 37.3069 105.44 110.625 102.035 144.811ZM102.035 144.811C103.2 157.665 130.223 274.153 172.366 240.287C158.367 162.767 200.828 48.9868 148.87 4.15758C132.328 45.5844 99.6249 118.217 102.035 144.811Z" stroke="#242929" stroke-width="4.05"/>
<path d="M331.448 503.753C314.849 472.711 246.448 473.753 246.448 473.753L239.448 503.753L273.948 532.753L246.448 576.753L289.948 599.753C289.948 599.753 343.948 527.129 331.448 503.753Z" fill="#84BCEE" stroke="#242929" stroke-width="5" stroke-linecap="round" stroke-linejoin="round"/>
<path fill-rule="evenodd" clip-rule="evenodd" d="M134.589 623.662C102.27 617.515 78.8895 607.638 50.6742 586.753C12.172 558.253 50.6744 511.253 78.6702 521.753C88.9889 525.623 98.0901 531.446 106.595 536.886C121.164 546.207 133.982 554.408 148.17 549.753C151.207 548.756 154.365 547.44 157.594 545.874C156.382 528.78 153.208 511.999 150.559 497.992C147.086 479.627 144.515 466.032 148.45 462.753L276.95 450.753C304.058 490.826 309.952 534.161 315.217 572.863C321.053 615.771 326.115 652.985 358.449 673.753C366.247 678.761 381.994 677.77 398.813 676.712C439.793 674.133 487.14 671.154 441.383 753.573C439.648 756.697 436.231 758.838 432.674 758.502C417.162 757.034 415.949 749.345 415.949 741.253C295.373 757.933 283.367 751.9 246.777 680.056C243.343 673.314 236.414 668.986 228.847 668.986H220.846C216.498 668.986 212.223 670.382 208.859 673.135C176.784 699.383 173.627 723.762 189.794 772.167C191.493 777.254 189.045 782.82 184.003 784.648C161.338 792.865 104.064 811.041 112.95 781.253C116.54 769.218 111.801 755.742 106.48 740.614C95.4744 709.32 81.9821 670.957 134.589 623.662Z" fill="#84BCEE"/>
<path d="M134.589 623.662L136.26 625.522C136.967 624.886 137.252 623.906 136.997 622.99C136.741 622.075 135.989 621.384 135.056 621.206L134.589 623.662ZM50.6742 586.753L49.1868 588.762L50.6742 586.753ZM78.6702 521.753L79.5481 519.412L78.6702 521.753ZM106.595 536.886L107.942 534.781L106.595 536.886ZM148.17 549.753L147.391 547.377L148.17 549.753ZM157.594 545.874L158.685 548.124C159.604 547.678 160.16 546.717 160.087 545.698L157.594 545.874ZM150.559 497.992L153.016 497.528L150.559 497.992ZM148.45 462.753L148.218 460.264C147.715 460.31 147.238 460.509 146.85 460.832L148.45 462.753ZM276.95 450.753L279.021 449.352C278.509 448.596 277.627 448.179 276.718 448.264L276.95 450.753ZM315.217 572.863L317.694 572.526L315.217 572.863ZM358.449 673.753L357.098 675.856L358.449 673.753ZM398.813 676.712L398.656 674.217L398.813 676.712ZM441.383 753.573L439.197 752.36L441.383 753.573ZM432.674 758.502L432.438 760.991L432.674 758.502ZM415.949 741.253H418.449C418.449 740.53 418.136 739.842 417.591 739.368C417.046 738.893 416.322 738.677 415.606 738.776L415.949 741.253ZM246.777 680.056L244.55 681.191L246.777 680.056ZM208.859 673.135L207.275 671.201L208.859 673.135ZM189.794 772.167L192.165 771.375L189.794 772.167ZM184.003 784.648L183.151 782.297L184.003 784.648ZM112.95 781.253L115.346 781.967L112.95 781.253ZM106.48 740.614L104.122 741.443L106.48 740.614ZM135.056 621.206C103.101 615.128 80.0709 605.402 52.1615 584.743L49.1868 588.762C77.7081 609.874 101.438 619.901 134.121 626.118L135.056 621.206ZM52.1615 584.743C42.9853 577.951 38.5822 570.213 37.3349 562.688C36.0806 555.12 37.9733 547.492 41.8851 540.904C45.8022 534.307 51.6766 528.872 58.1635 525.72C64.6458 522.57 71.5794 521.763 77.7922 524.093L79.5481 519.412C71.7631 516.492 63.3855 517.623 55.978 521.223C48.5751 524.82 41.9811 530.949 37.5858 538.351C33.1853 545.763 30.9218 554.573 32.4022 563.505C33.8895 572.479 39.112 581.305 49.1868 588.762L52.1615 584.743ZM77.7922 524.093C87.8253 527.856 96.7117 533.531 105.247 538.992L107.942 534.781C99.4686 529.36 90.1525 523.389 79.5481 519.412L77.7922 524.093ZM105.247 538.992C112.476 543.617 119.544 548.15 126.623 550.892C133.786 553.666 141.152 554.687 148.95 552.128L147.391 547.377C141.001 549.474 134.863 548.722 128.428 546.23C121.909 543.704 115.283 539.477 107.942 534.781L105.247 538.992ZM148.95 552.128C152.114 551.09 155.377 549.728 158.685 548.124L156.503 543.625C153.352 545.153 150.299 546.423 147.391 547.377L148.95 552.128ZM160.087 545.698C158.864 528.436 155.661 511.517 153.016 497.528L148.103 498.457C150.755 512.481 153.9 529.123 155.1 546.051L160.087 545.698ZM153.016 497.528C151.27 488.3 149.787 480.441 149.215 474.477C148.929 471.492 148.888 469.126 149.111 467.376C149.345 465.545 149.808 464.876 150.051 464.673L146.85 460.832C145.125 462.27 144.434 464.53 144.151 466.743C143.858 469.039 143.939 471.835 144.238 474.954C144.836 481.199 146.375 489.32 148.103 498.457L153.016 497.528ZM148.683 465.242L277.183 453.242L276.718 448.264L148.218 460.264L148.683 465.242ZM274.879 452.153C301.617 491.679 307.468 534.448 312.74 573.2L317.694 572.526C312.436 533.874 306.499 489.973 279.021 449.352L274.879 452.153ZM312.74 573.2C315.649 594.588 318.4 614.888 324.536 632.436C330.705 650.075 340.343 665.095 357.098 675.856L359.8 671.649C344.221 661.643 335.161 647.672 329.256 630.785C323.319 613.807 320.621 594.046 317.694 572.526L312.74 573.2ZM357.098 675.856C361.605 678.751 368.088 679.758 375.16 680.006C382.321 680.257 390.595 679.734 398.97 679.207L398.656 674.217C390.211 674.748 382.202 675.25 375.336 675.009C368.381 674.765 363.091 673.763 359.8 671.649L357.098 675.856ZM398.97 679.207C409.255 678.56 419.726 677.905 429.018 678.538C438.372 679.174 446.041 681.095 451.037 685.2C455.827 689.135 458.599 695.463 457.316 706.132C456.018 716.923 450.581 731.854 439.197 752.36L443.568 754.787C455.063 734.083 460.867 718.479 462.28 706.729C463.708 694.857 460.662 686.637 454.212 681.337C447.968 676.207 438.977 674.204 429.357 673.549C419.676 672.89 408.861 673.575 398.656 674.217L398.97 679.207ZM439.197 752.36C437.859 754.77 435.313 756.24 432.909 756.013L432.438 760.991C437.149 761.436 441.438 758.624 443.568 754.787L439.197 752.36ZM432.909 756.013C425.51 755.313 422.171 753.191 420.524 750.902C418.793 748.495 418.449 745.295 418.449 741.253H413.449C413.449 745.303 413.712 749.994 416.465 753.821C419.302 757.766 424.326 760.223 432.438 760.991L432.909 756.013ZM415.606 738.776C385.461 742.947 362.217 745.68 343.705 746.332C325.189 746.985 311.617 745.544 300.738 741.507C279.138 733.492 267.37 714.981 249.005 678.922L244.55 681.191C262.774 716.975 275.303 737.403 298.998 746.195C310.766 750.562 325.091 751.992 343.881 751.329C362.676 750.667 386.149 747.899 416.292 743.729L415.606 738.776ZM249.005 678.922C245.153 671.358 237.372 666.486 228.847 666.486V671.486C235.455 671.486 241.534 675.27 244.55 681.191L249.005 678.922ZM228.847 666.486H220.846V671.486H228.847V666.486ZM220.846 666.486C215.972 666.486 211.125 668.05 207.275 671.201L210.442 675.07C213.322 672.713 217.023 671.486 220.846 671.486V666.486ZM207.275 671.201C190.966 684.548 181.695 697.686 178.775 713.899C175.881 729.971 179.31 748.669 187.422 772.959L192.165 771.375C184.111 747.26 181.035 729.566 183.696 714.785C186.332 700.147 194.677 687.971 210.442 675.07L207.275 671.201ZM187.422 772.959C188.725 776.859 186.823 780.966 183.151 782.297L184.855 786.998C191.267 784.673 194.261 777.65 192.165 771.375L187.422 772.959ZM183.151 782.297C171.828 786.402 152.084 792.908 136.359 794.719C128.384 795.637 122.029 795.268 118.281 793.294C116.522 792.367 115.427 791.136 114.9 789.515C114.35 787.824 114.322 785.402 115.346 781.967L110.555 780.538C109.358 784.551 109.175 788.076 110.145 791.061C111.138 794.116 113.236 796.287 115.951 797.717C121.152 800.457 128.865 800.615 136.931 799.686C153.288 797.802 173.513 791.11 184.855 786.998L183.151 782.297ZM115.346 781.967C117.304 775.405 116.952 768.572 115.505 761.586C114.063 754.626 111.485 747.309 108.839 739.784L104.122 741.443C106.796 749.047 109.248 756.032 110.609 762.601C111.964 769.144 112.187 775.066 110.555 780.538L115.346 781.967ZM108.839 739.784C103.314 724.075 97.4006 707.162 99.1688 688.372C100.924 669.72 110.31 648.851 136.26 625.522L132.917 621.803C106.261 645.768 96.0895 667.727 94.1908 687.904C92.305 707.943 98.6409 725.859 104.122 741.443L108.839 739.784Z" fill="#242929"/>
<path d="M224.946 493.253C224.946 493.253 179.445 539.253 147.446 549.753C124.976 557.126 105.941 532.253 77.9456 521.753C49.9498 511.253 11.4474 558.253 49.9495 586.753C88.4517 615.253 117.95 623.253 173.445 629.253C195.45 631.632 268.45 549.753 278.445 521.753C282.389 510.704 268.45 486.753 268.45 486.753" stroke="#242929" stroke-width="5" stroke-linecap="round" stroke-linejoin="round"/>
<ellipse cx="184.5" cy="132" rx="184.5" ry="132" transform="matrix(-0.992977 0.118303 0.118303 0.992977 366.855 186.753)" fill="#84BCEE" stroke="#242929" stroke-width="5"/>
<path d="M113.359 403.877C49.5161 419.737 31.9898 402.176 31.7775 400.394C31.7775 400.394 9.56257 370.311 19.7018 332.848C19.9639 331.88 28.2431 331.507 34.7948 331.364C39.7478 331.256 44.3841 328.832 47.1859 324.746L54.1773 314.55C56.9607 310.492 61.558 308.056 66.4794 308.034L113.103 307.82C120.727 307.786 127.165 313.475 128.067 321.046L134.201 372.536C135.898 386.778 127.279 400.419 113.359 403.877Z" fill="#EDFAFF" stroke="#242929"/>
<path d="M62.1567 368.048C61.9907 348.384 70.1039 312.626 103.885 326.907C107.53 340.58 104.288 367.95 62.1567 368.048Z" fill="#242929"/>
<ellipse cx="71.2141" cy="353.827" rx="5.62903" ry="6.01529" transform="rotate(12.1134 71.2141 353.827)" fill="white"/>
<path d="M216.56 33.3311C308.388 124.734 267.483 229.116 232.144 275.057C229.392 278.635 225.553 281.265 221.202 282.466C138.615 305.267 131.222 197.633 142.652 160.951C152.873 128.151 196.183 62.2043 216.56 33.3311Z" fill="#84BCEE"/>
<path d="M216.857 32.6127C258.721 86.9881 194.213 189.884 192.312 268.635C144.212 293.319 141.205 173.775 142.652 160.951C145.648 134.416 192.31 69.8587 216.857 32.6127Z" fill="#FFD4F0"/>
<path d="M142.652 160.951C131.222 197.633 138.615 305.267 221.202 282.466C225.553 281.265 229.392 278.635 232.144 275.057C267.483 229.116 308.388 124.734 216.56 33.3311C196.183 62.2043 152.873 128.151 142.652 160.951ZM142.652 160.951C141.205 173.775 144.212 293.319 192.312 268.635C194.213 189.884 258.721 86.9881 216.857 32.6127C192.31 69.8587 145.648 134.416 142.652 160.951Z" stroke="#242929" stroke-width="4.05"/>
</svg>
