<svg width="374" height="801" viewBox="0 0 374 801" fill="none" xmlns="http://www.w3.org/2000/svg">
<path d="M297.63 4.92117C184.835 78.8662 210.092 195.558 236.82 244.661C317.671 292.465 348.226 184.044 344.319 144.811C340.914 110.625 311.774 37.3069 297.63 4.92117Z" fill="white"/>
<path d="M297.484 4.15758C245.526 48.9868 287.987 162.767 273.987 240.287C316.13 274.153 343.154 157.665 344.319 144.811C346.729 118.217 314.026 45.5844 297.484 4.15758Z" fill="white"/>
<path d="M344.319 144.811C348.226 184.044 317.671 292.465 236.82 244.661C210.092 195.558 184.835 78.8662 297.63 4.92117C311.774 37.3069 340.914 110.625 344.319 144.811ZM344.319 144.811C343.154 157.665 316.13 274.153 273.987 240.287C287.987 162.767 245.526 48.9868 297.484 4.15758C314.026 45.5844 346.729 118.217 344.319 144.811Z" stroke="#242929" stroke-width="4.05"/>
<path d="M76.7742 4.92117C189.57 78.8662 164.313 195.558 137.585 244.661C56.7335 292.465 26.1786 184.044 30.0857 144.811C33.4904 110.625 62.63 37.3069 76.7742 4.92117Z" fill="white"/>
<path d="M76.9208 4.15758C128.878 48.9868 86.4175 162.767 100.417 240.287C58.274 274.153 31.2505 157.665 30.0857 144.811C27.6757 118.217 60.3786 45.5844 76.9208 4.15758Z" fill="white"/>
<path d="M30.0857 144.811C26.1786 184.044 56.7335 292.465 137.585 244.661C164.313 195.558 189.57 78.8662 76.7742 4.92117C62.63 37.3069 33.4904 110.625 30.0857 144.811ZM30.0857 144.811C31.2505 157.665 58.274 274.153 100.417 240.287C86.4175 162.767 128.878 48.9868 76.9208 4.15758C60.3786 45.5844 27.6757 118.217 30.0857 144.811Z" stroke="#242929" stroke-width="4.05"/>
<path d="M362.098 605.811C362.099 534.842 265.598 450.81 250.598 462.311L243.098 512.311C243.098 512.311 289.599 557.81 300.098 605.811C310.598 653.811 362.097 636.811 362.098 605.811Z" fill="white" stroke="#242929" stroke-width="5" stroke-linejoin="round"/>
<path d="M8.09961 605.811C8.09793 534.842 104.6 450.81 119.599 462.311L127.099 512.311C127.099 512.311 80.5981 557.81 70.0989 605.811C59.5996 653.811 8.10034 636.811 8.09961 605.811Z" fill="white" stroke="#242929" stroke-width="5" stroke-linejoin="round"/>
<path d="M82.8808 630.867C103.1 535.747 114.266 483.825 114.433 460.247H259.674C260.175 490.124 274.6 559.747 291.227 630.867C305.99 694.017 295.397 760.686 282.723 792.455C281.293 796.04 277.749 798.247 273.89 798.247H237.825C233.287 798.247 229.317 795.191 228.157 790.803L204.122 699.891C202.032 691.987 194.881 686.481 186.705 686.481C178.859 686.481 171.916 691.558 169.537 699.034L140.189 791.279C138.869 795.429 135.015 798.247 130.66 798.247H102.251C98.91 798.247 95.7536 796.602 94.143 793.675C80.0018 767.979 66.5448 707.72 82.8808 630.867Z" fill="white" stroke="#242929" stroke-width="5" stroke-linejoin="round"/>
<ellipse cx="187" cy="338.05" rx="184.5" ry="132" fill="white" stroke="#242929" stroke-width="5"/>
<path d="M20.5 318.679C20.5 302.382 33.079 288.848 49.3324 287.658L110.453 283.182C120.137 282.473 129.548 286.578 135.618 294.157C141.212 301.143 149.678 305.21 158.629 305.21H212.453C220.211 305.21 227.689 302.31 233.419 297.081L240.984 290.178C246.714 284.949 254.192 282.05 261.95 282.05H322.385C338.729 282.05 352.285 294.699 353.415 311.004L354.528 327.076C356.674 358.053 336.214 386.356 305.772 392.476C219.438 409.832 155.446 410.734 68.2939 392.161C39.9685 386.125 20.5 360.51 20.5 331.548V318.679Z" fill="white" stroke="#242929"/>
<path d="M274.852 364.533C270.563 345.341 270.992 308.677 307.017 315.551C313.451 328.155 316.024 355.596 274.852 364.533Z" fill="#242929" stroke="#242929" stroke-width="1.2"/>
<ellipse cx="285.695" cy="338.567" rx="5.62903" ry="6.01529" fill="white" stroke="#242929" stroke-width="1.2"/>
<path d="M93.3399 364.533C97.6287 345.341 97.1998 308.677 61.174 315.551C54.7408 328.155 52.1676 355.596 93.3399 364.533Z" fill="#242929" stroke="#242929" stroke-width="1.2"/>
<ellipse cx="5.62903" cy="6.01529" rx="5.62903" ry="6.01529" transform="matrix(-1 0 0 1 88.123 332.552)" fill="white" stroke="#242929" stroke-width="1.2"/>
<path d="M193.163 581.71L189.648 586.577L158.216 563.65L161.735 558.776L193.163 581.71Z" fill="#242929" stroke="#242929"/>
<path d="M213.864 581.71L210.35 586.577L178.918 563.65L182.443 558.781L213.864 581.71Z" fill="#242929" stroke="#242929"/>
<path d="M161.082 552.959H155.082C155.161 546.574 158.575 540.755 164.115 536.502C169.72 532.198 177.481 529.518 186.06 529.518C194.639 529.518 202.4 532.198 208.012 536.502C213.557 540.755 216.984 546.574 217.088 552.959H211.088C211.001 548.115 208.151 543.776 203.693 540.654C199.163 537.482 192.935 535.533 186.09 535.533C179.245 535.533 173.014 537.482 168.482 540.654C164.022 543.776 161.169 548.114 161.082 552.959Z" fill="#242929" stroke="#242929"/>
<path d="M216.959 592.411C216.879 598.771 213.465 604.577 207.926 608.824C202.32 613.122 194.559 615.802 185.98 615.802C177.4 615.802 169.639 613.134 164.034 608.842C158.495 604.602 155.081 598.796 155.001 592.411H161.002C161.089 597.256 163.942 601.594 168.401 604.716C172.932 607.888 179.16 609.837 186 609.837C192.84 609.837 199.068 607.888 203.599 604.716C208.058 601.594 210.911 597.256 210.998 592.411H216.959Z" fill="#242929" stroke="#242929"/>
</svg>
