<svg width="624" height="138" viewBox="0 0 624 138" fill="none" xmlns="http://www.w3.org/2000/svg">
<g clip-path="url(#clip0_54_166)">
<path d="M241.85 105.98H232.29L224.42 85.4H190.85L182.98 105.98H173.53L202.43 31.76H213.11L241.85 105.98ZM194.06 76.98H221.16L207.55 40.42L194.06 76.98Z" fill="white"/>
<path d="M271.04 107.11C265.795 107.159 260.613 105.963 255.92 103.62C251.47 101.452 247.768 98.0051 245.29 93.72L252.94 88.21C254.5 91.5691 257.024 94.3885 260.19 96.31C263.683 98.3389 267.673 99.3503 271.71 99.23C275.71 99.23 278.8 98.47 281.05 96.93C281.902 96.4156 282.634 95.7255 283.198 94.9057C283.763 94.0859 284.145 93.1553 284.321 92.1758C284.497 91.1963 284.463 90.1906 284.219 89.2257C283.976 88.2607 283.53 87.3588 282.91 86.58C281.89 85.2467 279.96 84.29 277.12 83.71L263.62 80.87C258.14 79.75 254.223 77.8767 251.87 75.25C249.481 72.5628 248.211 69.0637 248.32 65.47C248.301 62.449 249.227 59.4977 250.97 57.03C252.888 54.3513 255.488 52.2348 258.5 50.9C262.127 49.2923 266.064 48.5068 270.03 48.6C274.921 48.448 279.768 49.5752 284.09 51.87C287.839 53.967 290.831 57.1934 292.64 61.09L285.1 66.09C284.002 62.9924 281.797 60.4103 278.91 58.84C276.192 57.3341 273.137 56.5395 270.03 56.53C267.674 56.476 265.329 56.8557 263.11 57.65C261.395 58.265 259.88 59.3369 258.73 60.75C257.714 62.0387 257.175 63.6396 257.206 65.2804C257.237 66.9212 257.836 68.5007 258.9 69.75C260.02 71.1367 262.117 72.1367 265.19 72.75L279.25 75.68C284.503 76.7267 288.17 78.45 290.25 80.85C292.36 83.2762 293.484 86.4055 293.4 89.62C293.465 92.9322 292.481 96.1801 290.59 98.9C288.605 101.652 285.874 103.779 282.72 105.03C279.004 106.494 275.033 107.201 271.04 107.11V107.11Z" fill="white"/>
<path d="M341.6 49.75H351.27L324.85 115.43C323.727 118.546 322.154 121.48 320.18 124.14C318.706 126.108 316.778 127.689 314.56 128.75C312.309 129.728 309.874 130.209 307.42 130.16C305.044 130.181 302.681 129.82 300.42 129.09C298.39 128.433 296.473 127.465 294.74 126.22L297.21 118.35C298.602 119.64 300.223 120.658 301.99 121.35C303.581 121.987 305.276 122.326 306.99 122.35C308.969 122.338 310.895 121.709 312.5 120.55C314.22 119.35 315.793 116.913 317.22 113.24L320.14 105.93L314.52 92.55L296.64 49.81H306.85L324.39 92.65L341.6 49.75Z" fill="white"/>
<path d="M359 105.98V49.75H366.85L367.63 62.35L366.17 61.11C367.204 58.3529 368.86 55.8718 371.01 53.86C373.02 52.0267 375.41 50.6607 378.01 49.86C380.69 49.0384 383.477 48.6238 386.28 48.63C390.071 48.5817 393.826 49.3669 397.28 50.93C400.55 52.4389 403.307 54.8723 405.21 57.93C407.21 61.0833 408.21 65.0834 408.21 69.93V105.93H399.21V73.14C399.21 66.92 397.877 62.5867 395.21 60.14C392.525 57.698 388.998 56.39 385.37 56.49C382.562 56.517 379.795 57.1695 377.27 58.4C374.482 59.7634 372.155 61.9158 370.58 64.59C368.82 67.4433 367.94 71.2667 367.94 76.06V105.97L359 105.98Z" fill="white"/>
<path d="M443.21 48.6299C446.724 48.5615 450.218 49.1727 453.5 50.4299C456.402 51.5916 459.026 53.3534 461.2 55.5999C463.425 57.9286 465.214 60.6383 466.48 63.5999L457.94 67.5999C456.983 64.367 455.086 61.4919 452.49 59.3399C449.738 57.3309 446.384 56.3187 442.98 56.4699C439.581 56.3746 436.226 57.2524 433.31 58.9999C430.554 60.7536 428.396 63.3027 427.12 66.3099C424.28 73.7136 424.28 81.9063 427.12 89.3099C428.383 92.3379 430.543 94.9064 433.31 96.6699C436.226 98.4175 439.581 99.2953 442.98 99.1999C445.575 99.2606 448.155 98.8015 450.57 97.8499C452.635 97.0044 454.454 95.6529 455.86 93.9199C457.3 92.0753 458.283 89.9167 458.73 87.6199L467.05 90.5399C465.88 93.8051 464.106 96.821 461.82 99.4299C459.612 101.898 456.878 103.84 453.82 105.11C450.45 106.482 446.838 107.162 443.2 107.11C438.289 107.192 433.442 105.989 429.14 103.62C424.999 101.285 421.636 97.7826 419.47 93.5499C417.172 88.6403 415.981 83.2857 415.981 77.8649C415.981 72.4441 417.172 67.0895 419.47 62.1799C421.638 57.9493 425.001 54.448 429.14 52.1099C433.446 49.7421 438.297 48.5424 443.21 48.6299Z" fill="white"/>
<path d="M543.03 105.98H530.32L523.24 86.53H492.09L485 105.98H472.63L500.63 31.76H515.03L543.03 105.98ZM495.46 76.74H519.85L507.7 42.11L495.46 76.74Z" fill="white"/>
<path d="M578.31 31.76C583.057 31.6417 587.769 32.6025 592.09 34.57C595.787 36.331 598.908 39.1052 601.09 42.57C603.228 46.3731 604.35 50.6623 604.35 55.025C604.35 59.3877 603.228 63.6768 601.09 67.48C598.916 70.952 595.793 73.7283 592.09 75.48C587.771 77.4556 583.058 78.42 578.31 78.3H561.78V105.96H549.78V31.76H578.31ZM576.4 67.9699C581.733 67.9699 585.65 66.8633 588.15 64.65C590.65 62.4367 591.907 59.2333 591.92 55.04C591.92 50.7733 590.663 47.53 588.15 45.31C585.637 43.09 581.72 41.9833 576.4 41.99H561.78V67.99L576.4 67.9699Z" fill="white"/>
<path d="M623.7 31.76V105.98H611.7V31.76H623.7Z" fill="white"/>
<path d="M89.85 115.21H49.85C39.93 115.21 31.85 105.44 31.85 93.37V44.71C31.85 32.65 39.85 22.87 49.85 22.87H89.85C99.77 22.87 107.85 32.65 107.85 44.71V93.37C107.85 105.44 99.85 115.21 89.85 115.21Z" fill="url(#paint0_linear_54_166)"/>
<path d="M31.85 93.37V44.71C31.85 32.65 39.85 22.87 49.85 22.87H89.85C99.77 22.87 107.85 32.65 107.85 44.71V93.37C107.85 105.44 99.85 115.21 89.85 115.21H49.85C39.9 115.21 31.85 105.44 31.85 93.37Z" fill="url(#paint1_linear_54_166)"/>
<path d="M49.85 22.87H89.85C99.77 22.87 107.85 32.65 107.85 44.71V93.37C107.85 105.44 99.85 115.21 89.85 115.21H49.85C39.93 115.21 31.85 105.44 31.85 93.37V44.71C31.85 32.65 39.9 22.87 49.85 22.87Z" fill="url(#paint2_linear_54_166)"/>
<path d="M89.85 115.21H49.85C39.93 115.21 31.85 105.44 31.85 93.37V44.71C31.85 32.65 39.85 22.87 49.85 22.87H89.85C99.77 22.87 107.85 32.65 107.85 44.71V93.37C107.85 105.44 99.85 115.21 89.85 115.21Z" fill="url(#paint3_linear_54_166)"/>
<path d="M105.17 0H32.5699C28.2928 0 24.0575 0.842452 20.106 2.47925C16.1544 4.11604 12.5639 6.51512 9.53949 9.53952C6.51509 12.5639 4.11604 16.1544 2.47925 20.106C0.842452 24.0576 0 28.2929 0 32.57V105.17C0 109.447 0.842452 113.682 2.47925 117.634C4.11604 121.586 6.51509 125.176 9.53949 128.2C12.5639 131.225 16.1544 133.624 20.106 135.261C24.0575 136.898 28.2928 137.74 32.5699 137.74H105.17C113.808 137.74 122.092 134.308 128.2 128.2C134.308 122.092 137.74 113.808 137.74 105.17V32.57C137.74 23.9319 134.308 15.6476 128.2 9.53952C122.092 3.43146 113.808 0 105.17 0ZM100.32 88.28C100.32 101.54 86.2 112.33 68.84 112.33C51.48 112.33 37.36 101.54 37.36 88.28V88.01H44.36V88.28C44.36 97.69 55.36 105.35 68.86 105.35C82.36 105.35 93.37 97.69 93.37 88.28V88.01H100.37L100.32 88.28ZM76.7 77.73L72.6 83.38L72.39 83.22L40.39 59.98L44.49 54.33L44.7 54.49L76.7 77.73ZM61.0699 59.98L65.17 54.33L65.39 54.49L97.39 77.73L93.28 83.38L93.0699 83.22L61.0699 59.98ZM100.38 49.73H93.38V49.46C93.38 40.05 82.38 32.39 68.88 32.39C55.38 32.39 44.38 40.05 44.38 49.46V49.73H37.38V49.46C37.38 36.2 51.5 25.41 68.86 25.41C86.22 25.41 100.34 36.2 100.34 49.46L100.38 49.73Z" fill="white"/>
</g>
<defs>
<linearGradient id="paint0_linear_54_166" x1="104.13" y1="34.77" x2="37.45" y2="101.44" gradientUnits="userSpaceOnUse">
<stop stop-color="#2DCCFD"/>
<stop offset="1" stop-color="#AD20E2"/>
</linearGradient>
<linearGradient id="paint1_linear_54_166" x1="104.12" y1="103.32" x2="37.45" y2="36.65" gradientUnits="userSpaceOnUse">
<stop stop-color="#A829E2"/>
<stop offset="0.05" stop-color="#A829E2" stop-opacity="0.84"/>
<stop offset="0.11" stop-color="#A829E2" stop-opacity="0.67"/>
<stop offset="0.18" stop-color="#A829E2" stop-opacity="0.51"/>
<stop offset="0.25" stop-color="#A829E2" stop-opacity="0.38"/>
<stop offset="0.33" stop-color="#A829E2" stop-opacity="0.28"/>
<stop offset="0.43" stop-color="#A829E2" stop-opacity="0.2"/>
<stop offset="0.54" stop-color="#A829E2" stop-opacity="0.14"/>
<stop offset="0.68" stop-color="#A829E2" stop-opacity="0.11"/>
<stop offset="1" stop-color="#A829E2" stop-opacity="0.1"/>
</linearGradient>
<linearGradient id="paint2_linear_54_166" x1="35.57" y1="103.32" x2="102.24" y2="36.64" gradientUnits="userSpaceOnUse">
<stop stop-color="#E50E99"/>
<stop offset="1" stop-color="#A829E2" stop-opacity="0.1"/>
</linearGradient>
<linearGradient id="paint3_linear_54_166" x1="104.13" y1="34.77" x2="37.45" y2="101.44" gradientUnits="userSpaceOnUse">
<stop stop-color="#21D4FD"/>
<stop offset="0.03" stop-color="#27CDFC" stop-opacity="0.96"/>
<stop offset="0.23" stop-color="#4E9CF4" stop-opacity="0.7"/>
<stop offset="0.43" stop-color="#6E73EE" stop-opacity="0.49"/>
<stop offset="0.61" stop-color="#8753E9" stop-opacity="0.32"/>
<stop offset="0.77" stop-color="#993CE5" stop-opacity="0.2"/>
<stop offset="0.9" stop-color="#A42EE3" stop-opacity="0.13"/>
<stop offset="1" stop-color="#A829E2" stop-opacity="0.1"/>
</linearGradient>
<clipPath id="clip0_54_166">
<rect width="623.7" height="137.74" fill="white"/>
</clipPath>
</defs>
</svg>
