<svg width="436" height="146" viewBox="0 0 436 146" fill="none" xmlns="http://www.w3.org/2000/svg">
<path d="M109.17 145.74H36.5699C26.875 145.727 17.581 141.87 10.7257 135.014C3.87037 128.159 0.0132282 118.865 0 109.17V36.57C0.0132282 26.8751 3.87037 17.581 10.7257 10.7257C17.581 3.87037 26.875 0.0132282 36.5699 0H109.17C118.866 0.0105877 128.161 3.8669 135.017 10.7228C141.873 17.5787 145.729 26.8743 145.74 36.57V109.17C145.729 118.866 141.873 128.161 135.017 135.017C128.161 141.873 118.866 145.729 109.17 145.74ZM36.5699 8C28.996 8.01058 21.7353 11.024 16.3796 16.3796C11.024 21.7353 8.01058 28.996 8 36.57V109.17C8.01058 116.744 11.024 124.005 16.3796 129.36C21.7353 134.716 28.996 137.729 36.5699 137.74H109.17C116.744 137.729 124.005 134.716 129.36 129.36C134.716 124.005 137.729 116.744 137.74 109.17V36.57C137.729 28.996 134.716 21.7353 129.36 16.3796C124.005 11.024 116.744 8.01058 109.17 8H36.5699Z" fill="url(#paint0_linear_450_1304)"/>
<path d="M48.47 58.33L44.37 63.98L76.39 87.22L76.6 87.38L80.7 81.73L48.47 58.33Z" fill="url(#paint1_linear_450_1304)"/>
<path d="M69.17 58.33L65.07 63.98L97.31 87.38L101.41 81.73L69.17 58.33Z" fill="url(#paint2_linear_450_1304)"/>
<path d="M72.9 29.41C55.54 29.41 41.42 40.2001 41.42 53.4601V53.73H48.42V53.4601C48.42 44.0501 59.42 36.39 72.92 36.39C86.42 36.39 97.42 44.0501 97.42 53.4601V53.73H104.42V53.4601C104.38 40.2001 90.26 29.41 72.9 29.41Z" fill="url(#paint3_linear_450_1304)"/>
<path d="M97.35 92.28C97.35 101.69 86.35 109.35 72.84 109.35C59.33 109.35 48.34 101.69 48.34 92.28V92.01H41.34V92.28C41.34 105.54 55.4599 116.33 72.8199 116.33C90.1799 116.33 104.3 105.54 104.3 92.28V92.01H97.3L97.35 92.28Z" fill="url(#paint4_linear_450_1304)"/>
<path d="M229.376 116.24C221.605 116.24 214.868 114.545 209.164 111.156C203.543 107.684 199.161 102.807 196.02 96.524C192.961 90.2413 191.432 82.76 191.432 74.08C191.432 65.4 193.044 57.9186 196.268 51.636C199.575 45.3533 204.163 40.5173 210.032 37.128C215.901 33.656 222.639 31.92 230.244 31.92C238.345 31.92 244.917 33.4493 249.96 36.508C255.085 39.5666 259.219 44.2786 262.36 50.644L253.308 55.604C251.489 50.892 248.596 47.3373 244.628 44.94C240.743 42.46 235.948 41.22 230.244 41.22C224.705 41.22 219.787 42.5426 215.488 45.188C211.272 47.7506 207.924 51.512 205.444 56.472C203.047 61.3493 201.848 67.2187 201.848 74.08C201.848 80.9413 202.881 86.852 204.948 91.812C207.097 96.6893 210.239 100.451 214.372 103.096C218.588 105.659 223.713 106.94 229.748 106.94C233.137 106.94 236.279 106.527 239.172 105.7C242.148 104.791 244.711 103.468 246.86 101.732C249.092 99.996 250.828 97.8053 252.068 95.16C253.308 92.5146 253.928 89.4147 253.928 85.86V83.008H227.888V73.708H262.98V115H255.168L254.672 99.748L256.78 100.12C254.631 105.245 251.241 109.213 246.612 112.024C241.983 114.835 236.237 116.24 229.376 116.24Z" fill="white"/>
<path d="M287.487 24.48V99.252C287.487 102.393 288.065 104.584 289.223 105.824C290.38 106.981 292.24 107.56 294.803 107.56C296.456 107.56 297.82 107.436 298.895 107.188C299.969 106.94 301.416 106.485 303.235 105.824L301.623 114.504C300.3 115.083 298.853 115.496 297.283 115.744C295.712 116.075 294.1 116.24 292.447 116.24C287.404 116.24 283.643 114.876 281.163 112.148C278.765 109.42 277.567 105.245 277.567 99.624V24.48H287.487Z" fill="white"/>
<path d="M335.681 116.24C329.812 116.24 324.562 114.959 319.933 112.396C315.386 109.833 311.832 106.155 309.269 101.36C306.706 96.4827 305.425 90.696 305.425 84C305.425 77.304 306.706 71.5587 309.269 66.764C311.832 61.8867 315.345 58.1666 319.809 55.604C324.273 53.0413 329.357 51.76 335.061 51.76C340.848 51.76 345.766 53 349.817 55.48C353.95 57.96 357.092 61.3493 359.241 65.648C361.39 69.864 362.465 74.6173 362.465 79.908C362.465 81.3133 362.424 82.5947 362.341 83.752C362.258 84.9093 362.134 85.9426 361.969 86.852H311.873V78.048H357.629L352.545 79.04C352.545 73.088 350.892 68.5 347.585 65.276C344.361 62.052 340.104 60.44 334.813 60.44C330.762 60.44 327.249 61.3906 324.273 63.292C321.38 65.1106 319.106 67.7973 317.453 71.352C315.882 74.824 315.097 79.04 315.097 84C315.097 88.8773 315.924 93.0933 317.577 96.648C319.23 100.203 321.545 102.931 324.521 104.832C327.58 106.651 331.217 107.56 335.433 107.56C339.98 107.56 343.658 106.692 346.469 104.956C349.362 103.22 351.677 100.864 353.413 97.888L361.225 102.476C359.654 105.287 357.629 107.725 355.149 109.792C352.752 111.859 349.9 113.471 346.593 114.628C343.369 115.703 339.732 116.24 335.681 116.24Z" fill="white"/>
<path d="M401.047 116.24C395.178 116.24 389.929 114.959 385.299 112.396C380.753 109.833 377.198 106.155 374.635 101.36C372.073 96.4827 370.791 90.696 370.791 84C370.791 77.304 372.073 71.5587 374.635 66.764C377.198 61.8867 380.711 58.1666 385.175 55.604C389.639 53.0413 394.723 51.76 400.427 51.76C406.214 51.76 411.133 53 415.183 55.48C419.317 57.96 422.458 61.3493 424.607 65.648C426.757 69.864 427.831 74.6173 427.831 79.908C427.831 81.3133 427.79 82.5947 427.707 83.752C427.625 84.9093 427.501 85.9426 427.335 86.852H377.239V78.048H422.995L417.911 79.04C417.911 73.088 416.258 68.5 412.951 65.276C409.727 62.052 405.47 60.44 400.179 60.44C396.129 60.44 392.615 61.3906 389.639 63.292C386.746 65.1106 384.473 67.7973 382.819 71.352C381.249 74.824 380.463 79.04 380.463 84C380.463 88.8773 381.29 93.0933 382.943 96.648C384.597 100.203 386.911 102.931 389.887 104.832C392.946 106.651 396.583 107.56 400.799 107.56C405.346 107.56 409.025 106.692 411.835 104.956C414.729 103.22 417.043 100.864 418.779 97.888L426.591 102.476C425.021 105.287 422.995 107.725 420.515 109.792C418.118 111.859 415.266 113.471 411.959 114.628C408.735 115.703 405.098 116.24 401.047 116.24Z" fill="white"/>
<defs>
<linearGradient id="paint0_linear_450_1304" x1="146" y1="0" x2="0" y2="146" gradientUnits="userSpaceOnUse">
<stop stop-color="#B3F4C2"/>
<stop offset="1" stop-color="#25D04A"/>
</linearGradient>
<linearGradient id="paint1_linear_450_1304" x1="146" y1="0" x2="0" y2="146" gradientUnits="userSpaceOnUse">
<stop stop-color="#B3F4C2"/>
<stop offset="1" stop-color="#25D04A"/>
</linearGradient>
<linearGradient id="paint2_linear_450_1304" x1="146" y1="0" x2="0" y2="146" gradientUnits="userSpaceOnUse">
<stop stop-color="#B3F4C2"/>
<stop offset="1" stop-color="#25D04A"/>
</linearGradient>
<linearGradient id="paint3_linear_450_1304" x1="146" y1="0" x2="0" y2="146" gradientUnits="userSpaceOnUse">
<stop stop-color="#B3F4C2"/>
<stop offset="1" stop-color="#25D04A"/>
</linearGradient>
<linearGradient id="paint4_linear_450_1304" x1="146" y1="0" x2="0" y2="146" gradientUnits="userSpaceOnUse">
<stop stop-color="#B3F4C2"/>
<stop offset="1" stop-color="#25D04A"/>
</linearGradient>
</defs>
</svg>
