<svg width="531" height="146" viewBox="0 0 531 146" fill="none" xmlns="http://www.w3.org/2000/svg">
<path d="M109.17 145.74H36.5699C26.875 145.727 17.581 141.87 10.7257 135.014C3.87037 128.159 0.0132282 118.865 0 109.17V36.57C0.0132282 26.8751 3.87037 17.581 10.7257 10.7257C17.581 3.87037 26.875 0.0132282 36.5699 0H109.17C118.866 0.0105877 128.161 3.8669 135.017 10.7228C141.873 17.5787 145.729 26.8743 145.74 36.57V109.17C145.729 118.866 141.873 128.161 135.017 135.017C128.161 141.873 118.866 145.729 109.17 145.74ZM36.5699 8C28.996 8.01058 21.7353 11.024 16.3796 16.3796C11.024 21.7353 8.01058 28.996 8 36.57V109.17C8.01058 116.744 11.024 124.005 16.3796 129.36C21.7353 134.716 28.996 137.729 36.5699 137.74H109.17C116.744 137.729 124.005 134.716 129.36 129.36C134.716 124.005 137.729 116.744 137.74 109.17V36.57C137.729 28.996 134.716 21.7353 129.36 16.3796C124.005 11.024 116.744 8.01058 109.17 8H36.5699Z" fill="url(#paint0_linear_450_1318)"/>
<path d="M48.47 58.33L44.37 63.98L76.39 87.22L76.6 87.38L80.7 81.73L48.47 58.33Z" fill="url(#paint1_linear_450_1318)"/>
<path d="M69.17 58.33L65.07 63.98L97.31 87.38L101.41 81.73L69.17 58.33Z" fill="url(#paint2_linear_450_1318)"/>
<path d="M72.9 29.41C55.54 29.41 41.42 40.2001 41.42 53.4601V53.73H48.42V53.4601C48.42 44.0501 59.42 36.39 72.92 36.39C86.42 36.39 97.42 44.0501 97.42 53.4601V53.73H104.42V53.4601C104.38 40.2001 90.26 29.41 72.9 29.41Z" fill="url(#paint3_linear_450_1318)"/>
<path d="M97.35 92.28C97.35 101.69 86.35 109.35 72.84 109.35C59.33 109.35 48.34 101.69 48.34 92.28V92.01H41.34V92.28C41.34 105.54 55.4599 116.33 72.8199 116.33C90.1799 116.33 104.3 105.54 104.3 92.28V92.01H97.3L97.35 92.28Z" fill="url(#paint4_linear_450_1318)"/>
<path d="M225.284 34.1602C230.823 34.1602 235.617 35.1935 239.668 37.2602C243.801 39.2442 247.025 42.0962 249.34 45.8162C251.655 49.5362 252.812 53.9588 252.812 59.0842C252.812 64.2095 251.655 68.6322 249.34 72.3522C247.025 76.0722 243.801 78.9655 239.668 81.0322C235.617 83.0162 230.823 84.0082 225.284 84.0082H206.312V116H196.392V34.1602H225.284ZM223.796 74.7082C230.244 74.7082 234.956 73.3855 237.932 70.7402C240.908 68.0122 242.396 64.1268 242.396 59.0842C242.396 53.9588 240.908 50.0735 237.932 47.4282C234.956 44.7828 230.244 43.4602 223.796 43.4602H206.312V74.7082H223.796Z" fill="#1B1130"/>
<path d="M300.224 75.9482C300.224 71.3188 298.984 67.7642 296.504 65.2842C294.024 62.7215 290.51 61.4402 285.964 61.4402C281.665 61.4402 278.028 62.3908 275.052 64.2922C272.076 66.1108 269.885 69.0868 268.48 73.2202L260.42 68.2602C262.073 63.6308 265.132 59.9108 269.596 57.1002C274.06 54.2068 279.598 52.7602 286.212 52.7602C290.676 52.7602 294.726 53.5455 298.364 55.1162C302.001 56.6042 304.853 58.9188 306.92 62.0602C309.069 65.1188 310.144 69.0868 310.144 73.9642V103.972C310.144 106.948 311.714 108.436 314.856 108.436C316.426 108.436 317.956 108.229 319.444 107.816L318.948 115.628C317.294 116.455 315.145 116.868 312.5 116.868C310.102 116.868 307.953 116.413 306.052 115.504C304.15 114.595 302.662 113.231 301.588 111.412C300.513 109.511 299.976 107.155 299.976 104.344V103.104L302.456 103.476C301.464 106.7 299.769 109.345 297.372 111.412C294.974 113.396 292.288 114.884 289.312 115.876C286.336 116.785 283.401 117.24 280.508 117.24C276.87 117.24 273.481 116.62 270.34 115.38C267.198 114.14 264.677 112.28 262.776 109.8C260.957 107.237 260.048 104.096 260.048 100.376C260.048 95.7468 261.577 91.9442 264.636 88.9682C267.777 85.9095 272.117 83.8428 277.656 82.7682L302.208 77.9322V86.1162L282.244 90.2082C278.193 91.0348 275.176 92.1922 273.192 93.6802C271.208 95.1682 270.216 97.2348 270.216 99.8802C270.216 102.443 271.208 104.551 273.192 106.204C275.258 107.775 278.152 108.56 281.872 108.56C284.269 108.56 286.542 108.271 288.692 107.692C290.924 107.031 292.908 106.08 294.644 104.84C296.38 103.517 297.744 101.905 298.736 100.004C299.728 98.0202 300.224 95.7055 300.224 93.0602V75.9482Z" fill="#1B1130"/>
<path d="M328.05 116V54.0002H336.11L337.474 64.1682C339.21 60.3655 341.731 57.5135 345.038 55.6122C348.427 53.7108 352.519 52.7602 357.314 52.7602C358.389 52.7602 359.546 52.8428 360.786 53.0082C362.109 53.1735 363.225 53.5042 364.134 54.0002L362.398 63.0522C361.489 62.7215 360.497 62.4735 359.422 62.3082C358.347 62.1428 356.818 62.0602 354.834 62.0602C352.271 62.0602 349.667 62.8042 347.022 64.2922C344.459 65.7802 342.31 68.0535 340.574 71.1122C338.838 74.0882 337.97 77.8908 337.97 82.5202V116H328.05Z" fill="#1B1130"/>
<path d="M392.123 117.24C386.089 117.24 380.509 115.959 375.383 113.396C370.341 110.833 366.455 107.196 363.727 102.484L372.159 96.4082C373.978 100.211 376.623 103.187 380.095 105.336C383.65 107.485 387.907 108.56 392.867 108.56C397.249 108.56 400.679 107.733 403.159 106.08C405.639 104.344 406.879 102.112 406.879 99.3842C406.879 97.6482 406.301 96.0775 405.143 94.6722C404.069 93.1842 401.961 92.1095 398.819 91.4482L383.939 88.3482C377.905 87.1082 373.565 85.0415 370.919 82.1482C368.357 79.2548 367.075 75.6588 367.075 71.3602C367.075 67.9708 368.026 64.8708 369.927 62.0602C371.911 59.2495 374.681 57.0175 378.235 55.3642C381.873 53.6282 386.13 52.7602 391.007 52.7602C397.125 52.7602 402.291 53.9588 406.507 56.3562C410.723 58.7535 413.865 62.1428 415.931 66.5242L407.623 71.9802C406.218 68.3428 403.945 65.6975 400.803 64.0442C397.662 62.3082 394.397 61.4402 391.007 61.4402C388.031 61.4402 385.469 61.8535 383.319 62.6802C381.253 63.5068 379.641 64.6642 378.483 66.1522C377.409 67.5575 376.871 69.1695 376.871 70.9882C376.871 72.8068 377.491 74.5015 378.731 76.0722C379.971 77.5602 382.286 78.6348 385.675 79.2962L401.175 82.5202C406.962 83.6775 411.013 85.5788 413.327 88.2242C415.642 90.8695 416.799 94.0935 416.799 97.8962C416.799 101.781 415.766 105.212 413.699 108.188C411.633 111.081 408.739 113.313 405.019 114.884C401.299 116.455 397.001 117.24 392.123 117.24Z" fill="#1B1130"/>
<path d="M454.91 117.24C449.04 117.24 443.791 115.959 439.162 113.396C434.615 110.833 431.06 107.155 428.498 102.36C425.935 97.4828 424.654 91.6962 424.654 85.0002C424.654 78.3042 425.935 72.5588 428.498 67.7642C431.06 62.8868 434.574 59.1668 439.038 56.6042C443.502 54.0415 448.586 52.7602 454.29 52.7602C460.076 52.7602 464.995 54.0002 469.046 56.4802C473.179 58.9602 476.32 62.3495 478.47 66.6482C480.619 70.8642 481.694 75.6175 481.694 80.9082C481.694 82.3135 481.652 83.5948 481.57 84.7522C481.487 85.9095 481.363 86.9428 481.198 87.8522H431.102V79.0482H476.858L471.774 80.0402C471.774 74.0882 470.12 69.5002 466.814 66.2762C463.59 63.0522 459.332 61.4402 454.042 61.4402C449.991 61.4402 446.478 62.3908 443.502 64.2922C440.608 66.1108 438.335 68.7975 436.682 72.3522C435.111 75.8242 434.326 80.0402 434.326 85.0002C434.326 89.8775 435.152 94.0935 436.806 97.6482C438.459 101.203 440.774 103.931 443.75 105.832C446.808 107.651 450.446 108.56 454.662 108.56C459.208 108.56 462.887 107.692 465.698 105.956C468.591 104.22 470.906 101.864 472.642 98.8882L480.454 103.476C478.883 106.287 476.858 108.725 474.378 110.792C471.98 112.859 469.128 114.471 465.822 115.628C462.598 116.703 458.96 117.24 454.91 117.24Z" fill="#1B1130"/>
<path d="M494.36 116V54.0002H502.42L503.784 64.1682C505.52 60.3655 508.042 57.5135 511.348 55.6122C514.738 53.7108 518.83 52.7602 523.624 52.7602C524.699 52.7602 525.856 52.8428 527.096 53.0082C528.419 53.1735 529.535 53.5042 530.444 54.0002L528.708 63.0522C527.799 62.7215 526.807 62.4735 525.732 62.3082C524.658 62.1428 523.128 62.0602 521.144 62.0602C518.582 62.0602 515.978 62.8042 513.332 64.2922C510.77 65.7802 508.62 68.0535 506.884 71.1122C505.148 74.0882 504.28 77.8908 504.28 82.5202V116H494.36Z" fill="#1B1130"/>
<defs>
<linearGradient id="paint0_linear_450_1318" x1="146" y1="0" x2="0" y2="146" gradientUnits="userSpaceOnUse">
<stop stop-color="#FBEDBF"/>
<stop offset="1" stop-color="#FFD23F"/>
</linearGradient>
<linearGradient id="paint1_linear_450_1318" x1="146" y1="0" x2="0" y2="146" gradientUnits="userSpaceOnUse">
<stop stop-color="#FBEDBF"/>
<stop offset="1" stop-color="#FFD23F"/>
</linearGradient>
<linearGradient id="paint2_linear_450_1318" x1="146" y1="0" x2="0" y2="146" gradientUnits="userSpaceOnUse">
<stop stop-color="#FBEDBF"/>
<stop offset="1" stop-color="#FFD23F"/>
</linearGradient>
<linearGradient id="paint3_linear_450_1318" x1="146" y1="0" x2="0" y2="146" gradientUnits="userSpaceOnUse">
<stop stop-color="#FBEDBF"/>
<stop offset="1" stop-color="#FFD23F"/>
</linearGradient>
<linearGradient id="paint4_linear_450_1318" x1="146" y1="0" x2="0" y2="146" gradientUnits="userSpaceOnUse">
<stop stop-color="#FBEDBF"/>
<stop offset="1" stop-color="#FFD23F"/>
</linearGradient>
</defs>
</svg>
