<svg width="628" height="146" viewBox="0 0 628 146" fill="none" xmlns="http://www.w3.org/2000/svg">
<g clip-path="url(#clip0_343_1482)">
<path d="M245.85 109.98H236.29L228.42 89.4H194.85L186.98 109.98H177.53L206.43 35.76H217.11L245.85 109.98ZM198.06 80.98H225.16L211.55 44.42L198.06 80.98Z" fill="white"/>
<path d="M275.04 111.11C269.795 111.159 264.613 109.963 259.92 107.62C255.47 105.452 251.768 102.005 249.29 97.72L256.94 92.21C258.5 95.5691 261.024 98.3885 264.19 100.31C267.682 102.339 271.673 103.35 275.71 103.23C279.71 103.23 282.8 102.47 285.05 100.93C285.902 100.416 286.634 99.7255 287.198 98.9057C287.763 98.0859 288.145 97.1553 288.321 96.1758C288.497 95.1963 288.463 94.1906 288.219 93.2257C287.976 92.2607 287.53 91.3588 286.91 90.58C285.89 89.2467 283.96 88.29 281.12 87.71L267.62 84.87C262.14 83.75 258.223 81.8767 255.87 79.25C253.481 76.5628 252.211 73.0637 252.32 69.47C252.301 66.449 253.227 63.4977 254.97 61.03C256.888 58.3513 259.488 56.2348 262.5 54.9C266.127 53.2923 270.064 52.5068 274.03 52.6C278.921 52.448 283.768 53.5752 288.09 55.87C291.839 57.967 294.831 61.1934 296.64 65.09L289.1 70.09C288.002 66.9924 285.797 64.4103 282.91 62.84C280.192 61.3341 277.137 60.5395 274.03 60.53C271.674 60.476 269.329 60.8557 267.11 61.65C265.395 62.265 263.88 63.3369 262.73 64.75C261.714 66.0387 261.175 67.6396 261.206 69.2804C261.237 70.9212 261.836 72.5007 262.9 73.75C264.02 75.1367 266.117 76.1367 269.19 76.75L283.25 79.68C288.503 80.7267 292.17 82.45 294.25 84.85C296.36 87.2762 297.484 90.4055 297.4 93.62C297.465 96.9322 296.481 100.18 294.59 102.9C292.605 105.652 289.874 107.779 286.72 109.03C283.004 110.494 279.033 111.201 275.04 111.11V111.11Z" fill="white"/>
<path d="M345.6 53.75H355.27L328.85 119.43C327.727 122.546 326.154 125.48 324.18 128.14C322.706 130.108 320.778 131.689 318.56 132.75C316.309 133.728 313.874 134.209 311.42 134.16C309.044 134.181 306.681 133.82 304.42 133.09C302.39 132.433 300.473 131.465 298.74 130.22L301.21 122.35C302.602 123.64 304.223 124.658 305.99 125.35C307.581 125.987 309.276 126.326 310.99 126.35C312.969 126.338 314.895 125.709 316.5 124.55C318.22 123.35 319.793 120.913 321.22 117.24L324.14 109.93L318.52 96.55L300.64 53.81H310.85L328.39 96.65L345.6 53.75Z" fill="white"/>
<path d="M363 109.98V53.75H370.85L371.63 66.35L370.17 65.11C371.204 62.3529 372.86 59.8718 375.01 57.86C377.02 56.0267 379.41 54.6607 382.01 53.86C384.69 53.0384 387.477 52.6238 390.28 52.63C394.071 52.5817 397.826 53.3669 401.28 54.93C404.55 56.4389 407.307 58.8723 409.21 61.93C411.21 65.0833 412.21 69.0834 412.21 73.93V109.93H403.21V77.14C403.21 70.92 401.877 66.5867 399.21 64.14C396.525 61.698 392.998 60.39 389.37 60.49C386.562 60.517 383.795 61.1695 381.27 62.4C378.482 63.7634 376.155 65.9158 374.58 68.59C372.82 71.4433 371.94 75.2667 371.94 80.06V109.97L363 109.98Z" fill="white"/>
<path d="M447.21 52.6301C450.724 52.5616 454.218 53.1728 457.5 54.43C460.402 55.5918 463.026 57.3536 465.2 59.6C467.425 61.9287 469.214 64.6385 470.48 67.6L461.94 71.6C460.983 68.3672 459.086 65.492 456.49 63.34C453.738 61.331 450.384 60.3188 446.98 60.47C443.581 60.3747 440.226 61.2525 437.31 63C434.554 64.7537 432.396 67.3028 431.12 70.31C428.28 77.7137 428.28 85.9064 431.12 93.31C432.383 96.3381 434.543 98.9066 437.31 100.67C440.226 102.418 443.581 103.295 446.98 103.2C449.575 103.261 452.155 102.802 454.57 101.85C456.635 101.005 458.454 99.6531 459.86 97.92C461.3 96.0755 462.283 93.9168 462.73 91.62L471.05 94.54C469.88 97.8053 468.106 100.821 465.82 103.43C463.612 105.899 460.878 107.84 457.82 109.11C454.45 110.482 450.838 111.162 447.2 111.11C442.289 111.192 437.442 109.989 433.14 107.62C428.999 105.285 425.636 101.783 423.47 97.55C421.172 92.6404 419.981 87.2858 419.981 81.865C419.981 76.4442 421.172 71.0897 423.47 66.18C425.638 61.9494 429.001 58.4481 433.14 56.11C437.446 53.7423 442.297 52.5425 447.21 52.6301Z" fill="white"/>
<path d="M547.03 109.98H534.32L527.24 90.53H496.09L489 109.98H476.63L504.63 35.76H519.03L547.03 109.98ZM499.46 80.74H523.85L511.7 46.11L499.46 80.74Z" fill="white"/>
<path d="M582.31 35.76C587.057 35.6417 591.768 36.6025 596.09 38.57C599.787 40.331 602.908 43.1052 605.09 46.57C607.228 50.3731 608.35 54.6623 608.35 59.025C608.35 63.3877 607.228 67.6768 605.09 71.48C602.916 74.952 599.793 77.7283 596.09 79.48C591.771 81.4556 587.058 82.42 582.31 82.3H565.78V109.96H553.78V35.76H582.31ZM580.4 71.9699C585.733 71.9699 589.65 70.8633 592.15 68.65C594.65 66.4367 595.907 63.2333 595.92 59.04C595.92 54.7733 594.663 51.53 592.15 49.31C589.637 47.09 585.72 45.9833 580.4 45.99H565.78V71.99L580.4 71.9699Z" fill="white"/>
<path d="M627.7 35.76V109.98H615.7V35.76H627.7Z" fill="white"/>
<path d="M109.17 145.74H36.5699C26.875 145.727 17.581 141.87 10.7257 135.014C3.87037 128.159 0.0132282 118.865 0 109.17V36.57C0.0132282 26.8751 3.87037 17.581 10.7257 10.7257C17.581 3.87037 26.875 0.0132282 36.5699 0H109.17C118.866 0.0105877 128.161 3.8669 135.017 10.7228C141.873 17.5787 145.729 26.8743 145.74 36.57V109.17C145.729 118.866 141.873 128.161 135.017 135.017C128.161 141.873 118.866 145.729 109.17 145.74V145.74ZM36.5699 8C28.996 8.01058 21.7353 11.024 16.3796 16.3796C11.024 21.7353 8.01058 28.996 8 36.57V109.17C8.01058 116.744 11.024 124.005 16.3796 129.36C21.7353 134.716 28.996 137.729 36.5699 137.74H109.17C116.744 137.729 124.005 134.716 129.36 129.36C134.716 124.005 137.729 116.744 137.74 109.17V36.57C137.729 28.996 134.716 21.7353 129.36 16.3796C124.005 11.024 116.744 8.01058 109.17 8H36.5699Z" fill="white"/>
<path d="M48.47 58.33L44.37 63.98L76.39 87.22L76.6 87.38L80.7 81.73L48.69 58.49L48.47 58.33Z" fill="white"/>
<path d="M69.3899 58.49L69.1699 58.33L65.0699 63.98L97.0899 87.22L97.3099 87.38L101.41 81.73L69.3899 58.49Z" fill="white"/>
<path d="M72.9 29.41C55.54 29.41 41.42 40.2001 41.42 53.4601V53.73H48.42V53.4601C48.42 44.0501 59.42 36.39 72.92 36.39C86.42 36.39 97.42 44.0501 97.42 53.4601V53.73H104.42V53.4601C104.38 40.2001 90.26 29.41 72.9 29.41Z" fill="white"/>
<path d="M97.35 92.28C97.35 101.69 86.35 109.35 72.84 109.35C59.33 109.35 48.34 101.69 48.34 92.28V92.01H41.34V92.28C41.34 105.54 55.4599 116.33 72.8199 116.33C90.1799 116.33 104.3 105.54 104.3 92.28V92.01H97.3L97.35 92.28Z" fill="white"/>
</g>
<defs>
<clipPath id="clip0_343_1482">
<rect width="627.7" height="145.75" fill="white"/>
</clipPath>
</defs>
</svg>
