<svg width="367" height="146" viewBox="0 0 367 146" fill="none" xmlns="http://www.w3.org/2000/svg">
<path d="M109.17 145.74H36.5699C26.875 145.727 17.581 141.87 10.7257 135.014C3.87037 128.159 0.0132282 118.865 0 109.17V36.57C0.0132282 26.8751 3.87037 17.581 10.7257 10.7257C17.581 3.87037 26.875 0.0132282 36.5699 0H109.17C118.866 0.0105877 128.161 3.8669 135.017 10.7228C141.873 17.5787 145.729 26.8743 145.74 36.57V109.17C145.729 118.866 141.873 128.161 135.017 135.017C128.161 141.873 118.866 145.729 109.17 145.74ZM36.5699 8C28.996 8.01058 21.7353 11.024 16.3796 16.3796C11.024 21.7353 8.01058 28.996 8 36.57V109.17C8.01058 116.744 11.024 124.005 16.3796 129.36C21.7353 134.716 28.996 137.729 36.5699 137.74H109.17C116.744 137.729 124.005 134.716 129.36 129.36C134.716 124.005 137.729 116.744 137.74 109.17V36.57C137.729 28.996 134.716 21.7353 129.36 16.3796C124.005 11.024 116.744 8.01058 109.17 8H36.5699Z" fill="url(#paint0_linear_450_1328)"/>
<path d="M48.47 58.33L44.37 63.98L76.39 87.22L76.6 87.38L80.7 81.73L48.47 58.33Z" fill="url(#paint1_linear_450_1328)"/>
<path d="M69.17 58.33L65.07 63.98L97.31 87.38L101.41 81.73L69.17 58.33Z" fill="url(#paint2_linear_450_1328)"/>
<path d="M72.9 29.41C55.54 29.41 41.42 40.2001 41.42 53.4601V53.73H48.42V53.4601C48.42 44.0501 59.42 36.39 72.92 36.39C86.42 36.39 97.42 44.0501 97.42 53.4601V53.73H104.42V53.4601C104.38 40.2001 90.26 29.41 72.9 29.41Z" fill="url(#paint3_linear_450_1328)"/>
<path d="M97.35 92.28C97.35 101.69 86.35 109.35 72.84 109.35C59.33 109.35 48.34 101.69 48.34 92.28V92.01H41.34V92.28C41.34 105.54 55.4599 116.33 72.8199 116.33C90.1799 116.33 104.3 105.54 104.3 92.28V92.01H97.3L97.35 92.28Z" fill="url(#paint4_linear_450_1328)"/>
<path d="M262.36 94.0439C260.624 98.6733 258.144 102.683 254.92 106.072C251.696 109.379 247.893 111.9 243.512 113.636C239.213 115.372 234.501 116.24 229.376 116.24C221.605 116.24 214.868 114.545 209.164 111.156C203.543 107.684 199.161 102.807 196.02 96.5239C192.961 90.2413 191.432 82.7599 191.432 74.0799C191.432 65.3999 192.961 57.9186 196.02 51.6359C199.161 45.3533 203.543 40.5173 209.164 37.1279C214.868 33.6559 221.523 31.9199 229.128 31.9199C234.419 31.9199 239.131 32.6639 243.264 34.1519C247.397 35.5573 250.911 37.7066 253.804 40.5999C256.78 43.4106 259.136 46.8826 260.872 51.0159L251.076 55.6039C249.257 50.8919 246.612 47.3373 243.14 44.9399C239.751 42.4599 235.328 41.2199 229.872 41.2199C224.333 41.2199 219.456 42.5426 215.24 45.1879C211.024 47.7506 207.717 51.4706 205.32 56.3479C203.005 61.2253 201.848 67.1359 201.848 74.0799C201.848 80.9413 202.964 86.8519 205.196 91.8119C207.428 96.6893 210.611 100.451 214.744 103.096C218.877 105.659 223.755 106.94 229.376 106.94C234.832 106.94 239.585 105.576 243.636 102.848C247.687 100.037 250.621 95.8626 252.44 90.3239L262.36 94.0439Z" fill="white"/>
<path d="M285.12 105.7H331.992V115H275.2V33.1599H285.12V105.7Z" fill="white"/>
<path d="M353.029 33.1599V115H343.109V33.1599H353.029Z" fill="white"/>
<defs>
<linearGradient id="paint0_linear_450_1328" x1="0" y1="146" x2="146" y2="0" gradientUnits="userSpaceOnUse">
<stop stop-color="#875AE2"/>
<stop offset="1" stop-color="#E0D1FC"/>
</linearGradient>
<linearGradient id="paint1_linear_450_1328" x1="0" y1="146" x2="146" y2="0" gradientUnits="userSpaceOnUse">
<stop stop-color="#875AE2"/>
<stop offset="1" stop-color="#E0D1FC"/>
</linearGradient>
<linearGradient id="paint2_linear_450_1328" x1="0" y1="146" x2="146" y2="0" gradientUnits="userSpaceOnUse">
<stop stop-color="#875AE2"/>
<stop offset="1" stop-color="#E0D1FC"/>
</linearGradient>
<linearGradient id="paint3_linear_450_1328" x1="0" y1="146" x2="146" y2="0" gradientUnits="userSpaceOnUse">
<stop stop-color="#875AE2"/>
<stop offset="1" stop-color="#E0D1FC"/>
</linearGradient>
<linearGradient id="paint4_linear_450_1328" x1="0" y1="146" x2="146" y2="0" gradientUnits="userSpaceOnUse">
<stop stop-color="#875AE2"/>
<stop offset="1" stop-color="#E0D1FC"/>
</linearGradient>
</defs>
</svg>
