<svg width="997" height="146" viewBox="0 0 997 146" fill="none" xmlns="http://www.w3.org/2000/svg">
<path d="M109.17 145.74H36.5699C26.875 145.727 17.581 141.87 10.7257 135.014C3.87037 128.159 0.0132282 118.865 0 109.17V36.57C0.0132282 26.8751 3.87037 17.581 10.7257 10.7257C17.581 3.87037 26.875 0.0132282 36.5699 0H109.17C118.866 0.0105877 128.161 3.8669 135.017 10.7228C141.873 17.5787 145.729 26.8743 145.74 36.57V109.17C145.729 118.866 141.873 128.161 135.017 135.017C128.161 141.873 118.866 145.729 109.17 145.74ZM36.5699 8C28.996 8.01058 21.7353 11.024 16.3796 16.3796C11.024 21.7353 8.01058 28.996 8 36.57V109.17C8.01058 116.744 11.024 124.005 16.3796 129.36C21.7353 134.716 28.996 137.729 36.5699 137.74H109.17C116.744 137.729 124.005 134.716 129.36 129.36C134.716 124.005 137.729 116.744 137.74 109.17V36.57C137.729 28.996 134.716 21.7353 129.36 16.3796C124.005 11.024 116.744 8.01058 109.17 8H36.5699Z" fill="url(#paint0_linear_450_1342)"/>
<path d="M48.47 58.33L44.37 63.98L76.39 87.22L76.6 87.38L80.7 81.73L48.47 58.33Z" fill="url(#paint1_linear_450_1342)"/>
<path d="M69.17 58.33L65.07 63.98L97.31 87.38L101.41 81.73L69.17 58.33Z" fill="url(#paint2_linear_450_1342)"/>
<path d="M72.9 29.41C55.54 29.41 41.42 40.2001 41.42 53.4601V53.73H48.42V53.4601C48.42 44.0501 59.42 36.39 72.92 36.39C86.42 36.39 97.42 44.0501 97.42 53.4601V53.73H104.42V53.4601C104.38 40.2001 90.26 29.41 72.9 29.41Z" fill="url(#paint3_linear_450_1342)"/>
<path d="M97.35 92.28C97.35 101.69 86.35 109.35 72.84 109.35C59.33 109.35 48.34 101.69 48.34 92.28V92.01H41.34V92.28C41.34 105.54 55.4599 116.33 72.8199 116.33C90.1799 116.33 104.3 105.54 104.3 92.28V92.01H97.3L97.35 92.28Z" fill="url(#paint4_linear_450_1342)"/>
<path d="M229.376 116.24C221.605 116.24 214.868 114.545 209.164 111.156C203.543 107.684 199.161 102.807 196.02 96.524C192.961 90.2413 191.432 82.76 191.432 74.08C191.432 65.4 193.044 57.9186 196.268 51.636C199.575 45.3533 204.163 40.5173 210.032 37.128C215.901 33.656 222.639 31.92 230.244 31.92C238.345 31.92 244.917 33.4493 249.96 36.508C255.085 39.5666 259.219 44.2786 262.36 50.644L253.308 55.604C251.489 50.892 248.596 47.3373 244.628 44.94C240.743 42.46 235.948 41.22 230.244 41.22C224.705 41.22 219.787 42.5426 215.488 45.188C211.272 47.7506 207.924 51.512 205.444 56.472C203.047 61.3493 201.848 67.2187 201.848 74.08C201.848 80.9413 202.881 86.852 204.948 91.812C207.097 96.6893 210.239 100.451 214.372 103.096C218.588 105.659 223.713 106.94 229.748 106.94C233.137 106.94 236.279 106.527 239.172 105.7C242.148 104.791 244.711 103.468 246.86 101.732C249.092 99.996 250.828 97.8053 252.068 95.16C253.308 92.5146 253.928 89.4147 253.928 85.86V83.008H227.888V73.708H262.98V115H255.168L254.672 99.748L256.78 100.12C254.631 105.245 251.241 109.213 246.612 112.024C241.983 114.835 236.237 116.24 229.376 116.24Z" fill="#1B1130"/>
<path d="M283.023 41.096C280.791 41.096 278.972 40.4346 277.567 39.112C276.244 37.7066 275.583 35.888 275.583 33.656C275.583 31.424 276.244 29.6466 277.567 28.324C278.972 26.9186 280.791 26.216 283.023 26.216C285.255 26.216 287.032 26.9186 288.355 28.324C289.76 29.6466 290.463 31.424 290.463 33.656C290.463 35.888 289.76 37.7066 288.355 39.112C287.032 40.4346 285.255 41.096 283.023 41.096ZM287.983 53V115H278.063V53H287.983Z" fill="#1B1130"/>
<path d="M319.432 35.392V97.888C319.432 100.947 320.3 103.22 322.036 104.708C323.772 106.196 326.004 106.94 328.732 106.94C331.129 106.94 333.196 106.527 334.932 105.7C336.668 104.873 338.239 103.757 339.644 102.352L343.116 110.66C341.215 112.396 338.941 113.76 336.296 114.752C333.733 115.744 330.757 116.24 327.368 116.24C324.227 116.24 321.292 115.703 318.564 114.628C315.836 113.471 313.645 111.693 311.992 109.296C310.421 106.816 309.595 103.592 309.512 99.624V38.12L319.432 35.392ZM342 53V61.556H297.112V53H342Z" fill="#1B1130"/>
<path d="M350.549 115V24.48H360.469V62.3C362.619 58.58 365.471 55.8933 369.025 54.24C372.58 52.5866 376.465 51.76 380.681 51.76C385.145 51.76 389.196 52.628 392.833 54.364C396.471 56.0173 399.364 58.58 401.513 62.052C403.745 65.524 404.861 69.9467 404.861 75.32V115H394.941V78.792C394.941 71.9307 393.453 67.1773 390.477 64.532C387.584 61.804 383.988 60.44 379.689 60.44C376.713 60.44 373.737 61.1426 370.761 62.548C367.785 63.9533 365.305 66.268 363.321 69.492C361.42 72.6333 360.469 76.8493 360.469 82.14V115H350.549Z" fill="#1B1130"/>
<path d="M443.567 116.24C439.599 116.24 435.837 115.496 432.283 114.008C428.811 112.52 425.959 110.123 423.727 106.816C421.577 103.427 420.503 99.0453 420.503 93.672V53H430.423V91.068C430.423 97.3507 431.787 101.691 434.515 104.088C437.243 106.403 441.087 107.56 446.047 107.56C448.361 107.56 450.635 107.188 452.867 106.444C455.099 105.617 457.083 104.377 458.819 102.724C460.637 100.988 462.043 98.7973 463.035 96.152C464.109 93.5067 464.647 90.3653 464.647 86.728V53H474.567V115H465.887L465.267 105.576C463.117 109.296 460.183 112.024 456.463 113.76C452.825 115.413 448.527 116.24 443.567 116.24Z" fill="#1B1130"/>
<path d="M521.834 116.24C518.362 116.24 515.138 115.62 512.162 114.38C509.186 113.14 506.623 111.404 504.474 109.172C502.325 106.94 500.713 104.419 499.638 101.608L501.002 99.872L500.134 115H491.454V24.48H501.374V67.012L500.134 65.152C501.787 61.2667 504.557 58.084 508.442 55.604C512.41 53.0413 516.915 51.76 521.958 51.76C527.083 51.76 531.795 53.0413 536.094 55.604C540.393 58.1666 543.823 61.8453 546.386 66.64C548.949 71.4347 550.23 77.2213 550.23 84C550.23 90.696 548.907 96.4827 546.262 101.36C543.699 106.155 540.269 109.833 535.97 112.396C531.671 114.959 526.959 116.24 521.834 116.24ZM520.842 107.56C526.959 107.56 531.713 105.411 535.102 101.112C538.574 96.8133 540.31 91.1093 540.31 84C540.31 76.8906 538.615 71.1867 535.226 66.888C531.837 62.5893 527.083 60.44 520.966 60.44C517.081 60.44 513.65 61.432 510.674 63.416C507.781 65.4 505.507 68.1693 503.854 71.724C502.201 75.2786 501.374 79.4533 501.374 84.248C501.374 88.96 502.159 93.0933 503.73 96.648C505.383 100.12 507.657 102.807 510.55 104.708C513.526 106.609 516.957 107.56 520.842 107.56Z" fill="#1B1130"/>
<path d="M661.177 115H650.637L641.957 92.308H604.881L596.201 115H585.785L617.653 33.16H629.433L661.177 115ZM608.477 83.008H638.361L623.357 42.708L608.477 83.008Z" fill="#1B1130"/>
<path d="M694.331 51.76C698.629 51.76 702.391 52.4213 705.615 53.744C708.921 55.0666 711.773 56.968 714.171 59.448C716.568 61.928 718.511 64.8626 719.999 68.252L710.575 72.716C709.252 68.748 707.227 65.7306 704.499 63.664C701.853 61.5146 698.381 60.44 694.083 60.44C689.949 60.44 686.395 61.3906 683.419 63.292C680.443 65.1106 678.169 67.7973 676.599 71.352C675.028 74.824 674.243 79.04 674.243 84C674.243 88.8773 675.028 93.0933 676.599 96.648C678.169 100.203 680.443 102.931 683.419 104.832C686.395 106.651 689.949 107.56 694.083 107.56C697.307 107.56 700.076 107.064 702.391 106.072C704.788 105.08 706.731 103.633 708.219 101.732C709.789 99.8307 710.864 97.516 711.443 94.788L720.619 98.012C719.213 101.815 717.271 105.08 714.791 107.808C712.393 110.536 709.459 112.644 705.987 114.132C702.597 115.537 698.712 116.24 694.331 116.24C688.544 116.24 683.377 114.959 678.831 112.396C674.284 109.833 670.729 106.155 668.167 101.36C665.604 96.4827 664.323 90.696 664.323 84C664.323 77.304 665.604 71.5587 668.167 66.764C670.729 61.8867 674.284 58.1666 678.831 55.604C683.377 53.0413 688.544 51.76 694.331 51.76Z" fill="#1B1130"/>
<path d="M746.481 35.392V97.888C746.481 100.947 747.349 103.22 749.085 104.708C750.821 106.196 753.053 106.94 755.781 106.94C758.179 106.94 760.245 106.527 761.981 105.7C763.717 104.873 765.288 103.757 766.693 102.352L770.165 110.66C768.264 112.396 765.991 113.76 763.345 114.752C760.783 115.744 757.807 116.24 754.417 116.24C751.276 116.24 748.341 115.703 745.613 114.628C742.885 113.471 740.695 111.693 739.041 109.296C737.471 106.816 736.644 103.592 736.561 99.624V38.12L746.481 35.392ZM769.049 53V61.556H724.161V53H769.049Z" fill="#1B1130"/>
<path d="M782.559 41.096C780.327 41.096 778.508 40.4346 777.103 39.112C775.78 37.7066 775.119 35.888 775.119 33.656C775.119 31.424 775.78 29.6466 777.103 28.324C778.508 26.9186 780.327 26.216 782.559 26.216C784.791 26.216 786.568 26.9186 787.891 28.324C789.296 29.6466 789.999 31.424 789.999 33.656C789.999 35.888 789.296 37.7066 787.891 39.112C786.568 40.4346 784.791 41.096 782.559 41.096ZM787.519 53V115H777.599V53H787.519Z" fill="#1B1130"/>
<path d="M830.004 51.76C835.873 51.76 841.04 53.0413 845.504 55.604C850.051 58.1666 853.605 61.8867 856.168 66.764C858.731 71.5587 860.012 77.304 860.012 84C860.012 90.696 858.731 96.4827 856.168 101.36C853.605 106.155 850.051 109.833 845.504 112.396C841.04 114.959 835.873 116.24 830.004 116.24C824.217 116.24 819.051 114.959 814.504 112.396C809.957 109.833 806.403 106.155 803.84 101.36C801.277 96.4827 799.996 90.696 799.996 84C799.996 77.304 801.277 71.5587 803.84 66.764C806.403 61.8867 809.957 58.1666 814.504 55.604C819.051 53.0413 824.217 51.76 830.004 51.76ZM830.004 60.316C825.788 60.316 822.192 61.2667 819.216 63.168C816.24 65.0693 813.925 67.7973 812.272 71.352C810.701 74.824 809.916 79.04 809.916 84C809.916 88.8773 810.701 93.0933 812.272 96.648C813.925 100.203 816.24 102.931 819.216 104.832C822.192 106.733 825.788 107.684 830.004 107.684C834.22 107.684 837.816 106.733 840.792 104.832C843.768 102.931 846.041 100.203 847.612 96.648C849.265 93.0933 850.092 88.8773 850.092 84C850.092 79.04 849.265 74.824 847.612 71.352C846.041 67.7973 843.768 65.0693 840.792 63.168C837.816 61.2667 834.22 60.316 830.004 60.316Z" fill="#1B1130"/>
<path d="M872.488 115V53H881.168L882.036 66.888L880.424 65.524C881.746 62.2173 883.524 59.572 885.756 57.588C887.988 55.5213 890.55 54.0333 893.444 53.124C896.42 52.2146 899.478 51.76 902.62 51.76C907.084 51.76 911.134 52.628 914.772 54.364C918.409 56.0173 921.302 58.58 923.452 62.052C925.684 65.524 926.8 69.9467 926.8 75.32V115H916.88V78.792C916.88 71.9307 915.392 67.1773 912.416 64.532C909.522 61.804 905.926 60.44 901.628 60.44C898.652 60.44 895.676 61.1426 892.7 62.548C889.724 63.9533 887.244 66.2266 885.26 69.368C883.358 72.5093 882.408 76.7253 882.408 82.016V115H872.488Z" fill="#1B1130"/>
<path d="M965.381 116.24C959.346 116.24 953.766 114.959 948.641 112.396C943.598 109.833 939.713 106.196 936.985 101.484L945.417 95.408C947.236 99.2106 949.881 102.187 953.353 104.336C956.908 106.485 961.165 107.56 966.125 107.56C970.506 107.56 973.937 106.733 976.417 105.08C978.897 103.344 980.137 101.112 980.137 98.384C980.137 96.648 979.558 95.0773 978.401 93.672C977.326 92.184 975.218 91.1093 972.077 90.448L957.197 87.348C951.162 86.108 946.822 84.0413 944.177 81.148C941.614 78.2547 940.333 74.6587 940.333 70.36C940.333 66.9707 941.284 63.8706 943.185 61.06C945.169 58.2493 947.938 56.0173 951.493 54.364C955.13 52.628 959.388 51.76 964.265 51.76C970.382 51.76 975.549 52.9586 979.765 55.356C983.981 57.7533 987.122 61.1426 989.189 65.524L980.881 70.98C979.476 67.3426 977.202 64.6973 974.061 63.044C970.92 61.308 967.654 60.44 964.265 60.44C961.289 60.44 958.726 60.8533 956.577 61.68C954.51 62.5067 952.898 63.664 951.741 65.152C950.666 66.5573 950.129 68.1693 950.129 69.988C950.129 71.8066 950.749 73.5013 951.989 75.072C953.229 76.56 955.544 77.6346 958.933 78.296L974.433 81.52C980.22 82.6773 984.27 84.5786 986.585 87.224C988.9 89.8693 990.057 93.0933 990.057 96.896C990.057 100.781 989.024 104.212 986.957 107.188C984.89 110.081 981.997 112.313 978.277 113.884C974.557 115.455 970.258 116.24 965.381 116.24Z" fill="#1B1130"/>
<defs>
<linearGradient id="paint0_linear_450_1342" x1="0" y1="146" x2="146" y2="0" gradientUnits="userSpaceOnUse">
<stop stop-color="#0D3CD7"/>
<stop offset="1" stop-color="#8CA2EA"/>
</linearGradient>
<linearGradient id="paint1_linear_450_1342" x1="0" y1="146" x2="146" y2="0" gradientUnits="userSpaceOnUse">
<stop stop-color="#0D3CD7"/>
<stop offset="1" stop-color="#8CA2EA"/>
</linearGradient>
<linearGradient id="paint2_linear_450_1342" x1="0" y1="146" x2="146" y2="0" gradientUnits="userSpaceOnUse">
<stop stop-color="#0D3CD7"/>
<stop offset="1" stop-color="#8CA2EA"/>
</linearGradient>
<linearGradient id="paint3_linear_450_1342" x1="0" y1="146" x2="146" y2="0" gradientUnits="userSpaceOnUse">
<stop stop-color="#0D3CD7"/>
<stop offset="1" stop-color="#8CA2EA"/>
</linearGradient>
<linearGradient id="paint4_linear_450_1342" x1="0" y1="146" x2="146" y2="0" gradientUnits="userSpaceOnUse">
<stop stop-color="#0D3CD7"/>
<stop offset="1" stop-color="#8CA2EA"/>
</linearGradient>
</defs>
</svg>
